<svg width="136" height="137" viewBox="0 0 136 137" fill="none" xmlns="http://www.w3.org/2000/svg">
<path d="M3.98438 136.878L28.1562 136.878C34.7472 136.878 40.1094 131.515 40.1094 124.924C40.1094 118.333 34.7472 112.971 28.1562 112.971H24.1719C19.8523 112.971 16.2031 109.201 16.2031 104.737C16.2031 100.273 19.8523 96.5026 24.1719 96.5026H28.1464C39.2142 111.198 56.5138 120.409 75.9688 120.409C109.07 120.409 136 93.598 136 60.6432C136 27.6884 109.07 0.877563 75.9688 0.877563C42.8389 0.877563 16.2031 27.7737 16.2031 60.6432C16.2031 70.5409 18.5951 80.0705 23.1017 88.5747C14.8468 89.1371 8.23438 96.2306 8.23438 104.737C8.23438 113.475 15.2958 120.94 24.1719 120.94H28.1562C30.3532 120.94 32.1406 122.727 32.1406 124.924C32.1406 127.121 30.3532 128.909 28.1562 128.909L3.98438 128.909C1.78394 128.909 0 130.693 0 132.893C0 135.094 1.78394 136.878 3.98438 136.878ZM128.031 60.6432C128.031 89.204 104.676 112.44 75.9688 112.44C72.1554 112.44 68.4383 112.022 64.8574 111.236C95.7679 105.359 119.797 78.1317 119.797 44.7057C119.797 39.9311 119.287 35.1671 118.292 30.5139C124.419 39.0086 128.031 49.4136 128.031 60.6432ZM105.566 18.0555C109.717 26.3664 111.828 35.3265 111.828 44.7057C111.828 77.6605 85.0173 104.471 52.0625 104.471C50.7763 104.471 49.4801 104.428 48.1958 104.346C44.6808 102.105 41.4529 99.4513 38.581 96.454C79.7587 94.9959 110.382 57.1941 102.693 16.2076C103.672 16.7928 104.63 17.4098 105.566 18.0555ZM75.9688 8.84631C82.1036 8.84631 87.9925 9.91068 93.4628 11.858C96.6777 22.7778 96.7821 34.8016 93.2886 46.2206C77.5062 40.7102 66.3292 26.8201 64.3357 10.1875C68.1049 9.30877 72.0035 8.84631 75.9688 8.84631ZM48.25 16.9481C50.9007 15.2657 53.7038 13.8204 56.6243 12.6355C59.4883 31.7913 72.8851 47.4347 90.4506 53.6665C88.7703 57.3181 86.7321 60.7712 84.3819 63.9832C63.5311 60.3861 48.0781 42.2107 48.0781 20.7994C48.0781 19.5151 48.139 18.2263 48.25 16.9481ZM32.3215 32.76C34.5621 29.2745 37.2034 26.0931 40.1675 23.2674C41.237 45.9377 56.9609 65.1158 78.5193 70.8517C75.1663 74.2291 71.4138 77.2089 67.3394 79.7145C46.8568 75.6457 32.1406 57.8023 32.1406 36.7369C32.1406 35.4109 32.2036 34.0778 32.3215 32.76ZM25.5661 48.6592C29.5234 65.3891 41.3751 78.6982 56.7779 84.8538C50.3383 87.2328 43.3808 88.5338 36.125 88.5338C34.8386 88.5338 33.5452 88.4889 32.2596 88.4068C27.1413 80.3773 24.1719 70.8509 24.1719 60.6432C24.1719 56.6017 24.6362 52.5825 25.5661 48.6592Z" fill="#68AC82" fill-opacity="0.15"/>
</svg>
