<svg width="226" height="226" viewBox="0 0 226 226" fill="none" xmlns="http://www.w3.org/2000/svg">
<path d="M216.156 36.9951C211.227 32.0659 205.046 28.8604 198.327 27.6726C197.139 20.9544 193.934 14.7725 189.005 9.84378C182.658 3.49681 174.219 0.000441405 165.239 0C156.263 0.000882811 147.824 3.49637 141.477 9.84378C131.033 20.2879 128.803 36.2566 135.374 49.011L49.0106 135.374C36.2575 128.804 20.287 131.033 9.84378 141.477C3.49593 147.824 0 156.265 0 165.241C0 174.218 3.49593 182.658 9.8429 189.005C14.7721 193.934 20.9535 197.139 27.6721 198.327C28.86 205.045 32.0655 211.227 36.9946 216.156C43.3412 222.503 51.7804 226 60.7608 226C69.7372 225.999 78.1764 222.503 84.5234 216.157C94.9675 205.713 97.197 189.743 90.6263 176.989L176.989 90.6263C189.742 97.1962 205.712 94.9675 216.156 84.5234C222.504 78.176 226 69.7359 226 60.7595C226 51.783 222.504 43.3429 216.156 36.9951ZM206.792 75.159C199.608 82.3429 188.114 83.1144 180.055 76.9555L175.45 73.4366L73.4362 175.451L76.9551 180.055C83.114 188.115 82.342 199.609 75.159 206.792C71.313 210.638 66.1993 212.757 60.7577 212.757C55.3182 212.757 50.2041 210.638 46.3582 206.792C42.4804 202.914 40.3634 197.754 40.3979 192.264L40.4398 185.56L33.7357 185.602C33.6916 185.602 33.6483 185.602 33.6042 185.602C28.163 185.602 23.0546 183.488 19.2073 179.641C15.3609 175.795 13.2426 170.681 13.2426 165.241C13.2426 159.802 15.3609 154.687 19.2073 150.841C26.3907 143.657 37.8854 142.885 45.9441 149.044L50.5489 152.563L152.563 50.5493L149.044 45.9446C142.885 37.8854 143.657 26.3907 150.84 19.2078C154.686 15.3618 159.8 13.2435 165.241 13.243C170.681 13.2435 175.795 15.3618 179.641 19.2073C183.518 23.0855 185.635 28.2451 185.601 33.7357L185.559 40.4398L192.263 40.3979C192.307 40.3974 192.35 40.3974 192.395 40.3974C197.836 40.3974 202.944 42.5118 206.791 46.3586C210.638 50.205 212.756 55.3187 212.756 60.759C212.756 66.1993 210.638 71.313 206.792 75.159Z" fill="#88CCDD" fill-opacity="0.2"/>
</svg>
