<svg width="65" height="65" viewBox="0 0 65 65" fill="none" xmlns="http://www.w3.org/2000/svg">
<g clip-path="url(#clip0)">
<mask id="path-1-outside-1" maskUnits="userSpaceOnUse" x="24.1895" y="14.5974" width="42" height="45" fill="black">
<rect fill="white" x="24.1895" y="14.5974" width="42" height="45"/>
<path d="M64.8071 36.3937C64.6459 36.0712 64.2429 35.91 63.9205 35.8294C62.0665 35.8294 46.1066 35.1846 46.1066 16.6453C46.1066 16.081 45.623 15.5974 45.0587 15.5974C44.4945 15.5974 44.0109 16.081 44.0109 16.6453C44.0109 35.1846 28.051 35.8294 26.2776 35.8294C26.0358 35.8294 25.794 35.91 25.6328 36.0713C25.4716 36.1519 25.391 36.3131 25.3104 36.3937C25.1492 36.7161 25.1492 37.1191 25.3104 37.4415C25.4716 37.764 25.8746 38.0058 26.2776 38.0058C26.2776 38.0058 26.2776 38.0058 26.3582 38.0058C28.2122 38.0058 44.0915 38.6506 44.0915 57.1899C44.0915 57.7542 44.5751 58.2378 45.1394 58.2378C45.7036 58.2378 46.1872 57.7542 46.1872 57.1899C46.1872 38.7312 62.0665 38.0058 63.9205 38.0058C64.3235 38.0058 64.6459 37.764 64.8877 37.4415C65.0489 37.1191 65.0489 36.7161 64.8071 36.3937ZM45.0587 49.2906C42.7212 41.633 36.9982 38.3282 32.4843 36.8773C36.9982 35.4264 42.7212 32.1216 45.0587 24.464C47.3963 32.1216 53.1193 35.4264 57.6332 36.8773C53.1193 38.3282 47.3963 41.633 45.0587 49.2906Z"/>
</mask>
<path d="M64.8071 36.3937C64.6459 36.0712 64.2429 35.91 63.9205 35.8294C62.0665 35.8294 46.1066 35.1846 46.1066 16.6453C46.1066 16.081 45.623 15.5974 45.0587 15.5974C44.4945 15.5974 44.0109 16.081 44.0109 16.6453C44.0109 35.1846 28.051 35.8294 26.2776 35.8294C26.0358 35.8294 25.794 35.91 25.6328 36.0713C25.4716 36.1519 25.391 36.3131 25.3104 36.3937C25.1492 36.7161 25.1492 37.1191 25.3104 37.4415C25.4716 37.764 25.8746 38.0058 26.2776 38.0058C26.2776 38.0058 26.2776 38.0058 26.3582 38.0058C28.2122 38.0058 44.0915 38.6506 44.0915 57.1899C44.0915 57.7542 44.5751 58.2378 45.1394 58.2378C45.7036 58.2378 46.1872 57.7542 46.1872 57.1899C46.1872 38.7312 62.0665 38.0058 63.9205 38.0058C64.3235 38.0058 64.6459 37.764 64.8877 37.4415C65.0489 37.1191 65.0489 36.7161 64.8071 36.3937ZM45.0587 49.2906C42.7212 41.633 36.9982 38.3282 32.4843 36.8773C36.9982 35.4264 42.7212 32.1216 45.0587 24.464C47.3963 32.1216 53.1193 35.4264 57.6332 36.8773C53.1193 38.3282 47.3963 41.633 45.0587 49.2906Z" fill="#88CCDD"/>
<path d="M64.8071 36.3937L63.9127 36.8409L63.953 36.9215L64.0071 36.9937L64.8071 36.3937ZM63.9205 35.8294L64.163 34.8593L64.0436 34.8294H63.9205V35.8294ZM25.6328 36.0713L26.08 36.9657L26.2251 36.8931L26.3399 36.7784L25.6328 36.0713ZM25.3104 36.3937L24.6033 35.6866L24.4885 35.8013L24.4159 35.9465L25.3104 36.3937ZM64.8877 37.4415L65.6877 38.0415L65.7418 37.9694L65.7822 37.8888L64.8877 37.4415ZM45.0587 49.2906L44.1023 49.5825L45.0587 52.7157L46.0152 49.5825L45.0587 49.2906ZM32.4843 36.8773L32.1783 35.9253L29.2164 36.8773L32.1783 37.8293L32.4843 36.8773ZM45.0587 24.464L46.0152 24.1721L45.0587 21.0389L44.1023 24.1721L45.0587 24.464ZM57.6332 36.8773L57.9392 37.8293L60.9011 36.8773L57.9392 35.9253L57.6332 36.8773ZM65.7016 35.9465C65.5009 35.5452 65.1783 35.2977 64.9145 35.1493C64.6476 34.9992 64.373 34.9118 64.163 34.8593L63.6779 36.7996C63.7903 36.8277 63.8785 36.8612 63.934 36.8924C63.9926 36.9254 63.9521 36.9198 63.9127 36.8409L65.7016 35.9465ZM63.9205 34.8294C63.0646 34.8294 58.8213 34.6738 54.8246 32.3272C50.9095 30.0286 47.1066 25.5611 47.1066 16.6453H45.1066C45.1066 26.2687 49.2837 31.3933 53.812 34.052C58.2587 36.6627 62.9224 36.8294 63.9205 36.8294V34.8294ZM47.1066 16.6453C47.1066 15.5288 46.1753 14.5974 45.0587 14.5974V16.5974C45.0559 16.5974 45.0567 16.5967 45.0621 16.599C45.0683 16.6017 45.0777 16.6074 45.0872 16.6169C45.0967 16.6264 45.1023 16.6357 45.105 16.6419C45.1074 16.6473 45.1066 16.6481 45.1066 16.6453H47.1066ZM45.0587 14.5974C43.9422 14.5974 43.0109 15.5288 43.0109 16.6453H45.0109C45.0109 16.6481 45.0101 16.6473 45.0125 16.6419C45.0152 16.6357 45.0208 16.6264 45.0303 16.6169C45.0398 16.6074 45.0492 16.6017 45.0554 16.599C45.0608 16.5967 45.0616 16.5974 45.0587 16.5974V14.5974ZM43.0109 16.6453C43.0109 25.5612 39.2078 30.0291 35.302 32.3278C31.315 34.6742 27.0916 34.8294 26.2776 34.8294V36.8294C27.237 36.8294 31.8802 36.6622 36.3164 34.0514C40.8339 31.3928 45.0109 26.2686 45.0109 16.6453H43.0109ZM26.2776 34.8294C25.8373 34.8294 25.3169 34.973 24.9257 35.3641L26.3399 36.7784C26.3028 36.8155 26.2727 36.8275 26.2667 36.8297C26.2608 36.8318 26.2653 36.8294 26.2776 36.8294V34.8294ZM25.1856 35.1768C24.9263 35.3065 24.7611 35.4867 24.6731 35.5923C24.6323 35.6412 24.591 35.696 24.5808 35.7092C24.5588 35.7377 24.5733 35.7165 24.6033 35.6866L26.0175 37.1008C26.0558 37.0624 26.0868 37.0267 26.109 37.0002C26.1311 36.9736 26.1504 36.9488 26.1634 36.9321C26.1699 36.9236 26.1767 36.9148 26.1816 36.9084C26.187 36.9014 26.1912 36.8959 26.1951 36.8908C26.2029 36.8807 26.2072 36.8755 26.2096 36.8726C26.2224 36.8573 26.1781 36.9166 26.08 36.9657L25.1856 35.1768ZM24.4159 35.9465C24.114 36.5504 24.114 37.2848 24.4159 37.8888L26.2048 36.9943C26.1843 36.9534 26.1843 36.8818 26.2048 36.8409L24.4159 35.9465ZM24.4159 37.8888C24.7616 38.5801 25.5307 39.0058 26.2776 39.0058V37.0058C26.2763 37.0058 26.268 37.0055 26.2539 37.0014C26.2396 36.9974 26.2244 36.9909 26.2103 36.9826C26.1961 36.9743 26.1884 36.9672 26.1865 36.9653C26.1844 36.9631 26.1933 36.9714 26.2048 36.9943L24.4159 37.8888ZM26.2776 38.0058C26.2776 39.0058 26.2776 39.0058 26.2776 39.0058H26.2776C26.2776 39.0058 26.2776 39.0058 26.2776 39.0058H26.2776H26.2776H26.2776C26.2776 39.0058 26.2776 39.0058 26.2776 39.0058C26.2776 39.0058 26.2776 39.0058 26.2776 39.0058C26.2776 39.0058 26.2776 39.0058 26.2776 39.0058C26.2776 39.0058 26.2776 39.0058 26.2776 39.0058C26.2776 39.0058 26.2776 39.0058 26.2776 39.0058C26.2776 39.0058 26.2776 39.0058 26.2776 39.0058C26.2776 39.0058 26.2776 39.0058 26.2776 39.0058C26.2776 39.0058 26.2776 39.0058 26.2776 39.0058C26.2776 39.0058 26.2776 39.0058 26.2776 39.0058C26.2776 39.0058 26.2776 39.0058 26.2776 39.0058C26.2776 39.0058 26.2776 39.0058 26.2776 39.0058C26.2776 39.0058 26.2776 39.0058 26.2776 39.0058C26.2776 39.0058 26.2776 39.0058 26.2776 39.0058C26.2776 39.0058 26.2776 39.0058 26.2776 39.0058C26.2776 39.0058 26.2776 39.0058 26.2776 39.0058C26.2776 39.0058 26.2776 39.0058 26.2776 39.0058C26.2776 39.0058 26.2776 39.0058 26.2776 39.0058C26.2776 39.0058 26.2776 39.0058 26.2776 39.0058C26.2776 39.0058 26.2776 39.0058 26.2776 39.0058C26.2776 39.0058 26.2776 39.0058 26.2776 39.0058C26.2776 39.0058 26.2776 39.0058 26.2776 39.0058C26.2776 39.0058 26.2776 39.0058 26.2776 39.0058C26.2776 39.0058 26.2776 39.0058 26.2777 39.0058C26.2777 39.0058 26.2777 39.0058 26.2777 39.0058C26.2777 39.0058 26.2777 39.0058 26.2777 39.0058C26.2777 39.0058 26.2777 39.0058 26.2777 39.0058C26.2777 39.0058 26.2777 39.0058 26.2777 39.0058C26.2777 39.0058 26.2777 39.0058 26.2777 39.0058C26.2777 39.0058 26.2777 39.0058 26.2777 39.0058C26.2777 39.0058 26.2777 39.0058 26.2777 39.0058C26.2777 39.0058 26.2777 39.0058 26.2777 39.0058C26.2777 39.0058 26.2777 39.0058 26.2777 39.0058C26.2777 39.0058 26.2777 39.0058 26.2777 39.0058C26.2777 39.0058 26.2777 39.0058 26.2777 39.0058C26.2777 39.0058 26.2777 39.0058 26.2777 39.0058C26.2777 39.0058 26.2777 39.0058 26.2777 39.0058C26.2777 39.0058 26.2777 39.0058 26.2777 39.0058C26.2777 39.0058 26.2777 39.0058 26.2777 39.0058C26.2777 39.0058 26.2777 39.0058 26.2777 39.0058C26.2777 39.0058 26.2777 39.0058 26.2777 39.0058C26.2777 39.0058 26.2777 39.0058 26.2777 39.0058C26.2777 39.0058 26.2777 39.0058 26.2777 39.0058C26.2777 39.0058 26.2777 39.0058 26.2777 39.0058C26.2777 39.0058 26.2777 39.0058 26.2777 39.0058C26.2777 39.0058 26.2777 39.0058 26.2777 39.0058C26.2777 39.0058 26.2777 39.0058 26.2777 39.0058C26.2777 39.0058 26.2777 39.0058 26.2777 39.0058C26.2777 39.0058 26.2777 39.0058 26.2777 39.0058C26.2777 39.0058 26.2777 39.0058 26.2778 39.0058C26.2778 39.0058 26.2778 39.0058 26.2778 39.0058C26.2778 39.0058 26.2778 39.0058 26.2778 39.0058C26.2778 39.0058 26.2778 39.0058 26.2778 39.0058C26.2778 39.0058 26.2778 39.0058 26.2778 39.0058C26.2778 39.0058 26.2778 39.0058 26.2778 39.0058C26.2778 39.0058 26.2778 39.0058 26.2778 39.0058C26.2778 39.0058 26.2778 39.0058 26.2778 39.0058C26.2778 39.0058 26.2778 39.0058 26.2778 39.0058C26.2778 39.0058 26.2778 39.0058 26.2778 39.0058C26.2778 39.0058 26.2778 39.0058 26.2778 39.0058C26.2778 39.0058 26.2778 39.0058 26.2778 39.0058C26.2778 39.0058 26.2778 39.0058 26.2778 39.0058C26.2778 39.0058 26.2778 39.0058 26.2779 39.0058C26.2779 39.0058 26.2779 39.0058 26.2779 39.0058C26.2779 39.0058 26.2779 39.0058 26.2779 39.0058C26.2779 39.0058 26.2779 39.0058 26.2779 39.0058C26.2779 39.0058 26.2779 39.0058 26.2779 39.0058C26.2779 39.0058 26.2779 39.0058 26.2779 39.0058C26.2779 39.0058 26.2779 39.0058 26.2779 39.0058C26.2779 39.0058 26.2779 39.0058 26.2779 39.0058C26.2779 39.0058 26.2779 39.0058 26.2779 39.0058C26.2779 39.0058 26.2779 39.0058 26.2779 39.0058C26.278 39.0058 26.278 39.0058 26.278 39.0058C26.278 39.0058 26.278 39.0058 26.278 39.0058C26.278 39.0058 26.278 39.0058 26.278 39.0058C26.278 39.0058 26.278 39.0058 26.278 39.0058C26.278 39.0058 26.278 39.0058 26.278 39.0058C26.278 39.0058 26.278 39.0058 26.278 39.0058C26.278 39.0058 26.278 39.0058 26.278 39.0058C26.278 39.0058 26.278 39.0058 26.2781 39.0058C26.2781 39.0058 26.2781 39.0058 26.2781 39.0058C26.2781 39.0058 26.2781 39.0058 26.2781 39.0058C26.2781 39.0058 26.2781 39.0058 26.2781 39.0058C26.2781 39.0058 26.2781 39.0058 26.2781 39.0058C26.2781 39.0058 26.2781 39.0058 26.2781 39.0058C26.2781 39.0058 26.2781 39.0058 26.2781 39.0058C26.2781 39.0058 26.2782 39.0058 26.2782 39.0058C26.2782 39.0058 26.2782 39.0058 26.2782 39.0058C26.2782 39.0058 26.2782 39.0058 26.2782 39.0058C26.2782 39.0058 26.2782 39.0058 26.2782 39.0058C26.2782 39.0058 26.2782 39.0058 26.2782 39.0058C26.2782 39.0058 26.2782 39.0058 26.2782 39.0058C26.2783 39.0058 26.2783 39.0058 26.2783 39.0058C26.2783 39.0058 26.2783 39.0058 26.2783 39.0058C26.2783 39.0058 26.2783 39.0058 26.2783 39.0058C26.2783 39.0058 26.2783 39.0058 26.2783 39.0058C26.2783 39.0058 26.2783 39.0058 26.2783 39.0058C26.2784 39.0058 26.2784 39.0058 26.2784 39.0058C26.2784 39.0058 26.2784 39.0058 26.2784 39.0058C26.2784 39.0058 26.2784 39.0058 26.2784 39.0058C26.2784 39.0058 26.2784 39.0058 26.2784 39.0058C26.2784 39.0058 26.2784 39.0058 26.2785 39.0058C26.2785 39.0058 26.2785 39.0058 26.2785 39.0058C26.2785 39.0058 26.2785 39.0058 26.2785 39.0058C26.2785 39.0058 26.2785 39.0058 26.2785 39.0058C26.2785 39.0058 26.2785 39.0058 26.2785 39.0058C26.2786 39.0058 26.2786 39.0058 26.2786 39.0058C26.2786 39.0058 26.2786 39.0058 26.2786 39.0058C26.2786 39.0058 26.2786 39.0058 26.2786 39.0058C26.2786 39.0058 26.2786 39.0058 26.2786 39.0058C26.2786 39.0058 26.2787 39.0058 26.2787 39.0058C26.2787 39.0058 26.2787 39.0058 26.2787 39.0058C26.2787 39.0058 26.2787 39.0058 26.2787 39.0058C26.2787 39.0058 26.2787 39.0058 26.2787 39.0058C26.2788 39.0058 26.2788 39.0058 26.2788 39.0058C26.2788 39.0058 26.2788 39.0058 26.2788 39.0058C26.2788 39.0058 26.2788 39.0058 26.2788 39.0058C26.2788 39.0058 26.2788 39.0058 26.2789 39.0058C26.2789 39.0058 26.2789 39.0058 26.2789 39.0058C26.2789 39.0058 26.2789 39.0058 26.2789 39.0058C26.2789 39.0058 26.2789 39.0058 26.2789 39.0058C26.279 39.0058 26.279 39.0058 26.279 39.0058C26.279 39.0058 26.279 39.0058 26.279 39.0058C26.279 39.0058 26.279 39.0058 26.279 39.0058C26.2791 39.0058 26.2791 39.0058 26.2791 39.0058C26.2791 39.0058 26.2791 39.0058 26.2791 39.0058C26.2791 39.0058 26.2791 39.0058 26.2791 39.0058C26.2792 39.0058 26.2792 39.0058 26.2792 39.0058C26.2792 39.0058 26.2792 39.0058 26.2792 39.0058C26.2792 39.0058 26.2792 39.0058 26.2792 39.0058C26.2793 39.0058 26.2793 39.0058 26.2793 39.0058C26.2793 39.0058 26.2793 39.0058 26.2793 39.0058C26.2793 39.0058 26.2793 39.0058 26.2793 39.0058C26.2794 39.0058 26.2794 39.0058 26.2794 39.0058C26.2794 39.0058 26.2794 39.0058 26.2794 39.0058C26.2794 39.0058 26.2794 39.0058 26.2795 39.0058C26.2795 39.0058 26.2795 39.0058 26.2795 39.0058C26.2795 39.0058 26.2795 39.0058 26.2795 39.0058C26.2795 39.0058 26.2796 39.0058 26.2796 39.0058C26.2796 39.0058 26.2796 39.0058 26.2796 39.0058C26.2796 39.0058 26.2796 39.0058 26.2797 39.0058C26.2797 39.0058 26.2797 39.0058 26.2797 39.0058C26.2797 39.0058 26.2797 39.0058 26.2797 39.0058C26.2798 39.0058 26.2798 39.0058 26.2798 39.0058C26.2798 39.0058 26.2798 39.0058 26.2798 39.0058C26.2798 39.0058 26.2799 39.0058 26.2799 39.0058C26.2799 39.0058 26.2799 39.0058 26.2799 39.0058C26.2799 39.0058 26.2799 39.0058 26.28 39.0058C26.28 39.0058 26.28 39.0058 26.28 39.0058C26.28 39.0058 26.28 39.0058 26.28 39.0058C26.2801 39.0058 26.2801 39.0058 26.2801 39.0058C26.2801 39.0058 26.2801 39.0058 26.2801 39.0058C26.2802 39.0058 26.2802 39.0058 26.2802 39.0058C26.2802 39.0058 26.2802 39.0058 26.2802 39.0058C26.2802 39.0058 26.2803 39.0058 26.2803 39.0058C26.2803 39.0058 26.2803 39.0058 26.2803 39.0058C26.2803 39.0058 26.2804 39.0058 26.2804 39.0058C26.2804 39.0058 26.2804 39.0058 26.2804 39.0058C26.2804 39.0058 26.2805 39.0058 26.2805 39.0058C26.2805 39.0058 26.2805 39.0058 26.2805 39.0058C26.2805 39.0058 26.2806 39.0058 26.2806 39.0058C26.2806 39.0058 26.2806 39.0058 26.2806 39.0058C26.2806 39.0058 26.2807 39.0058 26.2807 39.0058C26.2807 39.0058 26.2807 39.0058 26.2807 39.0058C26.2808 39.0058 26.2808 39.0058 26.2808 39.0058C26.2808 39.0058 26.2808 39.0058 26.2808 39.0058C26.2809 39.0058 26.2809 39.0058 26.2809 39.0058C26.2809 39.0058 26.2809 39.0058 26.281 39.0058C26.281 39.0058 26.281 39.0058 26.281 39.0058C26.281 39.0058 26.2811 39.0058 26.2811 39.0058C26.2811 39.0058 26.2811 39.0058 26.2811 39.0058C26.2812 39.0058 26.2812 39.0058 26.2812 39.0058C26.2812 39.0058 26.2812 39.0058 26.2812 39.0058C26.2813 39.0058 26.2813 39.0058 26.2813 39.0058C26.2813 39.0058 26.2813 39.0058 26.2814 39.0058C26.2814 39.0058 26.2814 39.0058 26.2814 39.0058C26.2815 39.0058 26.2815 39.0058 26.2815 39.0058C26.2815 39.0058 26.2815 39.0058 26.2816 39.0058C26.2816 39.0058 26.2816 39.0058 26.2816 39.0058C26.2816 39.0058 26.2817 39.0058 26.2817 39.0058C26.2817 39.0058 26.2817 39.0058 26.2817 39.0058C26.2818 39.0058 26.2818 39.0058 26.2818 39.0058C26.2818 39.0058 26.2819 39.0058 26.2819 39.0058C26.2819 39.0058 26.2819 39.0058 26.2819 39.0058C26.282 39.0058 26.282 39.0058 26.282 39.0058C26.282 39.0058 26.2821 39.0058 26.2821 39.0058C26.2821 39.0058 26.2821 39.0058 26.2822 39.0058C26.2822 39.0058 26.2822 39.0058 26.2822 39.0058C26.2822 39.0058 26.2823 39.0058 26.2823 39.0058C26.2823 39.0058 26.2823 39.0058 26.2824 39.0058C26.2824 39.0058 26.2824 39.0058 26.2824 39.0058C26.2825 39.0058 26.2825 39.0058 26.2825 39.0058C26.2825 39.0058 26.2826 39.0058 26.2826 39.0058C26.2826 39.0058 26.2826 39.0058 26.2827 39.0058C26.2827 39.0058 26.2827 39.0058 26.2827 39.0058C26.2828 39.0058 26.2828 39.0058 26.2828 39.0058C26.2828 39.0058 26.2829 39.0058 26.2829 39.0058C26.2829 39.0058 26.2829 39.0058 26.283 39.0058C26.283 39.0058 26.283 39.0058 26.283 39.0058C26.2831 39.0058 26.2831 39.0058 26.2831 39.0058C26.2831 39.0058 26.2832 39.0058 26.2832 39.0058C26.2832 39.0058 26.2832 39.0058 26.2833 39.0058C26.2833 39.0058 26.2833 39.0058 26.2834 39.0058C26.2834 39.0058 26.2834 39.0058 26.2834 39.0058C26.2835 39.0058 26.2835 39.0058 26.2835 39.0058C26.2835 39.0058 26.2836 39.0058 26.2836 39.0058C26.2836 39.0058 26.2837 39.0058 26.2837 39.0058C26.2837 39.0058 26.2837 39.0058 26.2838 39.0058C26.2838 39.0058 26.2838 39.0058 26.2839 39.0058C26.2839 39.0058 26.2839 39.0058 26.2839 39.0058C26.284 39.0058 26.284 39.0058 26.284 39.0058C26.2841 39.0058 26.2841 39.0058 26.2841 39.0058C26.2841 39.0058 26.2842 39.0058 26.2842 39.0058C26.2842 39.0058 26.2843 39.0058 26.2843 39.0058C26.2843 39.0058 26.2843 39.0058 26.2844 39.0058C26.2844 39.0058 26.2844 39.0058 26.2845 39.0058C26.2845 39.0058 26.2845 39.0058 26.2846 39.0058C26.2846 39.0058 26.2846 39.0058 26.2847 39.0058C26.2847 39.0058 26.2847 39.0058 26.2847 39.0058C26.2848 39.0058 26.2848 39.0058 26.2848 39.0058C26.2849 39.0058 26.2849 39.0058 26.2849 39.0058C26.285 39.0058 26.285 39.0058 26.285 39.0058C26.2851 39.0058 26.2851 39.0058 26.2851 39.0058C26.2852 39.0058 26.2852 39.0058 26.2852 39.0058C26.2853 39.0058 26.2853 39.0058 26.2853 39.0058C26.2854 39.0058 26.2854 39.0058 26.2854 39.0058C26.2855 39.0058 26.2855 39.0058 26.2855 39.0058C26.2856 39.0058 26.2856 39.0058 26.2856 39.0058C26.2857 39.0058 26.2857 39.0058 26.2857 39.0058C26.2858 39.0058 26.2858 39.0058 26.2858 39.0058C26.2859 39.0058 26.2859 39.0058 26.2859 39.0058C26.286 39.0058 26.286 39.0058 26.286 39.0058C26.2861 39.0058 26.2861 39.0058 26.2861 39.0058C26.2862 39.0058 26.2862 39.0058 26.2862 39.0058C26.2863 39.0058 26.2863 39.0058 26.2864 39.0058C26.2864 39.0058 26.2864 39.0058 26.2865 39.0058C26.2865 39.0058 26.2865 39.0058 26.2866 39.0058C26.2866 39.0058 26.2866 39.0058 26.2867 39.0058C26.2867 39.0058 26.2868 39.0058 26.2868 39.0058C26.2868 39.0058 26.2869 39.0058 26.2869 39.0058C26.2869 39.0058 26.287 39.0058 26.287 39.0058C26.2871 39.0058 26.2871 39.0058 26.2871 39.0058C26.2872 39.0058 26.2872 39.0058 26.2872 39.0058C26.2873 39.0058 26.2873 39.0058 26.2874 39.0058C26.2874 39.0058 26.2874 39.0058 26.2875 39.0058C26.2875 39.0058 26.2875 39.0058 26.2876 39.0058C26.2876 39.0058 26.2877 39.0058 26.2877 39.0058C26.2877 39.0058 26.2878 39.0058 26.2878 39.0058C26.2879 39.0058 26.2879 39.0058 26.2879 39.0058C26.288 39.0058 26.288 39.0058 26.2881 39.0058C26.2881 39.0058 26.2881 39.0058 26.2882 39.0058C26.2882 39.0058 26.2883 39.0058 26.2883 39.0058C26.2883 39.0058 26.2884 39.0058 26.2884 39.0058C26.2885 39.0058 26.2885 39.0058 26.2886 39.0058C26.2886 39.0058 26.2886 39.0058 26.2887 39.0058C26.2887 39.0058 26.2888 39.0058 26.2888 39.0058C26.2888 39.0058 26.2889 39.0058 26.2889 39.0058C26.289 39.0058 26.289 39.0058 26.2891 39.0058C26.2891 39.0058 26.2891 39.0058 26.2892 39.0058C26.2892 39.0058 26.2893 39.0058 26.2893 39.0058C26.2894 39.0058 26.2894 39.0058 26.2895 39.0058C26.2895 39.0058 26.2895 39.0058 26.2896 39.0058C26.2896 39.0058 26.2897 39.0058 26.2897 39.0058C26.2898 39.0058 26.2898 39.0058 26.2898 39.0058C26.2899 39.0058 26.2899 39.0058 26.29 39.0058C26.29 39.0058 26.2901 39.0058 26.2901 39.0058C26.2902 39.0058 26.2902 39.0058 26.2903 39.0058C26.2903 39.0058 26.2903 39.0058 26.2904 39.0058C26.2904 39.0058 26.2905 39.0058 26.2905 39.0058C26.2906 39.0058 26.2906 39.0058 26.2907 39.0058C26.2907 39.0058 26.2908 39.0058 26.2908 39.0058C26.2909 39.0058 26.2909 39.0058 26.291 39.0058C26.291 39.0058 26.291 39.0058 26.2911 39.0058C26.2911 39.0058 26.2912 39.0058 26.2912 39.0058C26.2913 39.0058 26.2913 39.0058 26.2914 39.0058C26.2914 39.0058 26.2915 39.0058 26.2915 39.0058C26.2916 39.0058 26.2916 39.0058 26.2917 39.0058C26.2917 39.0058 26.2918 39.0058 26.2918 39.0058C26.2919 39.0058 26.2919 39.0058 26.292 39.0058C26.292 39.0058 26.2921 39.0058 26.2921 39.0058C26.2922 39.0058 26.2922 39.0058 26.2923 39.0058C26.2923 39.0058 26.2924 39.0058 26.2924 39.0058C26.2925 39.0058 26.2925 39.0058 26.2926 39.0058C26.2926 39.0058 26.2927 39.0058 26.2927 39.0058C26.2928 39.0058 26.2928 39.0058 26.2929 39.0058C26.2929 39.0058 26.293 39.0058 26.293 39.0058C26.2931 39.0058 26.2932 39.0058 26.2932 39.0058C26.2933 39.0058 26.2933 39.0058 26.2934 39.0058C26.2934 39.0058 26.2935 39.0058 26.2935 39.0058C26.2936 39.0058 26.2936 39.0058 26.2937 39.0058C26.2937 39.0058 26.2938 39.0058 26.2938 39.0058C26.2939 39.0058 26.294 39.0058 26.294 39.0058C26.2941 39.0058 26.2941 39.0058 26.2942 39.0058C26.2942 39.0058 26.2943 39.0058 26.2943 39.0058C26.2944 39.0058 26.2944 39.0058 26.2945 39.0058C26.2946 39.0058 26.2946 39.0058 26.2947 39.0058C26.2947 39.0058 26.2948 39.0058 26.2948 39.0058C26.2949 39.0058 26.2949 39.0058 26.295 39.0058C26.2951 39.0058 26.2951 39.0058 26.2952 39.0058C26.2952 39.0058 26.2953 39.0058 26.2953 39.0058C26.2954 39.0058 26.2955 39.0058 26.2955 39.0058C26.2956 39.0058 26.2956 39.0058 26.2957 39.0058C26.2958 39.0058 26.2958 39.0058 26.2959 39.0058C26.2959 39.0058 26.296 39.0058 26.296 39.0058C26.2961 39.0058 26.2962 39.0058 26.2962 39.0058C26.2963 39.0058 26.2963 39.0058 26.2964 39.0058C26.2965 39.0058 26.2965 39.0058 26.2966 39.0058C26.2966 39.0058 26.2967 39.0058 26.2968 39.0058C26.2968 39.0058 26.2969 39.0058 26.2969 39.0058C26.297 39.0058 26.2971 39.0058 26.2971 39.0058C26.2972 39.0058 26.2972 39.0058 26.2973 39.0058C26.2974 39.0058 26.2974 39.0058 26.2975 39.0058C26.2976 39.0058 26.2976 39.0058 26.2977 39.0058C26.2977 39.0058 26.2978 39.0058 26.2979 39.0058C26.2979 39.0058 26.298 39.0058 26.2981 39.0058C26.2981 39.0058 26.2982 39.0058 26.2982 39.0058C26.2983 39.0058 26.2984 39.0058 26.2984 39.0058C26.2985 39.0058 26.2986 39.0058 26.2986 39.0058C26.2987 39.0058 26.2988 39.0058 26.2988 39.0058C26.2989 39.0058 26.299 39.0058 26.299 39.0058C26.2991 39.0058 26.2991 39.0058 26.2992 39.0058C26.2993 39.0058 26.2993 39.0058 26.2994 39.0058C26.2995 39.0058 26.2995 39.0058 26.2996 39.0058C26.2997 39.0058 26.2997 39.0058 26.2998 39.0058C26.2999 39.0058 26.2999 39.0058 26.3 39.0058C26.3001 39.0058 26.3001 39.0058 26.3002 39.0058C26.3003 39.0058 26.3003 39.0058 26.3004 39.0058C26.3005 39.0058 26.3005 39.0058 26.3006 39.0058C26.3007 39.0058 26.3008 39.0058 26.3008 39.0058C26.3009 39.0058 26.301 39.0058 26.301 39.0058C26.3011 39.0058 26.3012 39.0058 26.3012 39.0058C26.3013 39.0058 26.3014 39.0058 26.3014 39.0058C26.3015 39.0058 26.3016 39.0058 26.3017 39.0058C26.3017 39.0058 26.3018 39.0058 26.3019 39.0058C26.3019 39.0058 26.302 39.0058 26.3021 39.0058C26.3021 39.0058 26.3022 39.0058 26.3023 39.0058C26.3024 39.0058 26.3024 39.0058 26.3025 39.0058C26.3026 39.0058 26.3027 39.0058 26.3027 39.0058C26.3028 39.0058 26.3029 39.0058 26.3029 39.0058C26.303 39.0058 26.3031 39.0058 26.3032 39.0058C26.3032 39.0058 26.3033 39.0058 26.3034 39.0058C26.3035 39.0058 26.3035 39.0058 26.3036 39.0058C26.3037 39.0058 26.3037 39.0058 26.3038 39.0058C26.3039 39.0058 26.304 39.0058 26.304 39.0058C26.3041 39.0058 26.3042 39.0058 26.3043 39.0058C26.3043 39.0058 26.3044 39.0058 26.3045 39.0058C26.3046 39.0058 26.3046 39.0058 26.3047 39.0058C26.3048 39.0058 26.3049 39.0058 26.305 39.0058C26.305 39.0058 26.3051 39.0058 26.3052 39.0058C26.3053 39.0058 26.3053 39.0058 26.3054 39.0058C26.3055 39.0058 26.3056 39.0058 26.3056 39.0058C26.3057 39.0058 26.3058 39.0058 26.3059 39.0058C26.306 39.0058 26.306 39.0058 26.3061 39.0058C26.3062 39.0058 26.3063 39.0058 26.3064 39.0058C26.3064 39.0058 26.3065 39.0058 26.3066 39.0058C26.3067 39.0058 26.3068 39.0058 26.3068 39.0058C26.3069 39.0058 26.307 39.0058 26.3071 39.0058C26.3072 39.0058 26.3072 39.0058 26.3073 39.0058C26.3074 39.0058 26.3075 39.0058 26.3076 39.0058C26.3076 39.0058 26.3077 39.0058 26.3078 39.0058C26.3079 39.0058 26.308 39.0058 26.3081 39.0058C26.3081 39.0058 26.3082 39.0058 26.3083 39.0058C26.3084 39.0058 26.3085 39.0058 26.3085 39.0058C26.3086 39.0058 26.3087 39.0058 26.3088 39.0058C26.3089 39.0058 26.309 39.0058 26.309 39.0058C26.3091 39.0058 26.3092 39.0058 26.3093 39.0058C26.3094 39.0058 26.3095 39.0058 26.3096 39.0058C26.3096 39.0058 26.3097 39.0058 26.3098 39.0058C26.3099 39.0058 26.31 39.0058 26.3101 39.0058C26.3102 39.0058 26.3102 39.0058 26.3103 39.0058C26.3104 39.0058 26.3105 39.0058 26.3106 39.0058C26.3107 39.0058 26.3108 39.0058 26.3108 39.0058C26.3109 39.0058 26.311 39.0058 26.3111 39.0058C26.3112 39.0058 26.3113 39.0058 26.3114 39.0058C26.3115 39.0058 26.3115 39.0058 26.3116 39.0058C26.3117 39.0058 26.3118 39.0058 26.3119 39.0058C26.312 39.0058 26.3121 39.0058 26.3122 39.0058C26.3123 39.0058 26.3123 39.0058 26.3124 39.0058C26.3125 39.0058 26.3126 39.0058 26.3127 39.0058C26.3128 39.0058 26.3129 39.0058 26.313 39.0058C26.3131 39.0058 26.3132 39.0058 26.3133 39.0058C26.3133 39.0058 26.3134 39.0058 26.3135 39.0058C26.3136 39.0058 26.3137 39.0058 26.3138 39.0058C26.3139 39.0058 26.314 39.0058 26.3141 39.0058C26.3142 39.0058 26.3143 39.0058 26.3144 39.0058C26.3145 39.0058 26.3145 39.0058 26.3146 39.0058C26.3147 39.0058 26.3148 39.0058 26.3149 39.0058C26.315 39.0058 26.3151 39.0058 26.3152 39.0058C26.3153 39.0058 26.3154 39.0058 26.3155 39.0058C26.3156 39.0058 26.3157 39.0058 26.3158 39.0058C26.3159 39.0058 26.316 39.0058 26.3161 39.0058C26.3162 39.0058 26.3163 39.0058 26.3164 39.0058C26.3165 39.0058 26.3165 39.0058 26.3166 39.0058C26.3167 39.0058 26.3168 39.0058 26.3169 39.0058C26.317 39.0058 26.3171 39.0058 26.3172 39.0058C26.3173 39.0058 26.3174 39.0058 26.3175 39.0058C26.3176 39.0058 26.3177 39.0058 26.3178 39.0058C26.3179 39.0058 26.318 39.0058 26.3181 39.0058C26.3182 39.0058 26.3183 39.0058 26.3184 39.0058C26.3185 39.0058 26.3186 39.0058 26.3187 39.0058C26.3188 39.0058 26.3189 39.0058 26.319 39.0058C26.3191 39.0058 26.3192 39.0058 26.3193 39.0058C26.3194 39.0058 26.3195 39.0058 26.3196 39.0058C26.3197 39.0058 26.3198 39.0058 26.3199 39.0058C26.32 39.0058 26.3201 39.0058 26.3202 39.0058C26.3203 39.0058 26.3205 39.0058 26.3206 39.0058C26.3207 39.0058 26.3208 39.0058 26.3209 39.0058C26.321 39.0058 26.3211 39.0058 26.3212 39.0058C26.3213 39.0058 26.3214 39.0058 26.3215 39.0058C26.3216 39.0058 26.3217 39.0058 26.3218 39.0058C26.3219 39.0058 26.322 39.0058 26.3221 39.0058C26.3222 39.0058 26.3223 39.0058 26.3224 39.0058C26.3225 39.0058 26.3227 39.0058 26.3228 39.0058C26.3229 39.0058 26.323 39.0058 26.3231 39.0058C26.3232 39.0058 26.3233 39.0058 26.3234 39.0058C26.3235 39.0058 26.3236 39.0058 26.3237 39.0058C26.3238 39.0058 26.3239 39.0058 26.3241 39.0058C26.3242 39.0058 26.3243 39.0058 26.3244 39.0058C26.3245 39.0058 26.3246 39.0058 26.3247 39.0058C26.3248 39.0058 26.3249 39.0058 26.325 39.0058C26.3252 39.0058 26.3253 39.0058 26.3254 39.0058C26.3255 39.0058 26.3256 39.0058 26.3257 39.0058C26.3258 39.0058 26.3259 39.0058 26.326 39.0058C26.3262 39.0058 26.3263 39.0058 26.3264 39.0058C26.3265 39.0058 26.3266 39.0058 26.3267 39.0058C26.3268 39.0058 26.327 39.0058 26.3271 39.0058C26.3272 39.0058 26.3273 39.0058 26.3274 39.0058C26.3275 39.0058 26.3276 39.0058 26.3277 39.0058C26.3279 39.0058 26.328 39.0058 26.3281 39.0058C26.3282 39.0058 26.3283 39.0058 26.3284 39.0058C26.3286 39.0058 26.3287 39.0058 26.3288 39.0058C26.3289 39.0058 26.329 39.0058 26.3291 39.0058C26.3293 39.0058 26.3294 39.0058 26.3295 39.0058C26.3296 39.0058 26.3297 39.0058 26.3298 39.0058C26.33 39.0058 26.3301 39.0058 26.3302 39.0058C26.3303 39.0058 26.3304 39.0058 26.3306 39.0058C26.3307 39.0058 26.3308 39.0058 26.3309 39.0058C26.331 39.0058 26.3311 39.0058 26.3313 39.0058C26.3314 39.0058 26.3315 39.0058 26.3316 39.0058C26.3318 39.0058 26.3319 39.0058 26.332 39.0058C26.3321 39.0058 26.3322 39.0058 26.3324 39.0058C26.3325 39.0058 26.3326 39.0058 26.3327 39.0058C26.3328 39.0058 26.333 39.0058 26.3331 39.0058C26.3332 39.0058 26.3333 39.0058 26.3335 39.0058C26.3336 39.0058 26.3337 39.0058 26.3338 39.0058C26.334 39.0058 26.3341 39.0058 26.3342 39.0058C26.3343 39.0058 26.3344 39.0058 26.3346 39.0058C26.3347 39.0058 26.3348 39.0058 26.3349 39.0058C26.3351 39.0058 26.3352 39.0058 26.3353 39.0058C26.3355 39.0058 26.3356 39.0058 26.3357 39.0058C26.3358 39.0058 26.336 39.0058 26.3361 39.0058C26.3362 39.0058 26.3363 39.0058 26.3365 39.0058C26.3366 39.0058 26.3367 39.0058 26.3369 39.0058C26.337 39.0058 26.3371 39.0058 26.3372 39.0058C26.3374 39.0058 26.3375 39.0058 26.3376 39.0058C26.3378 39.0058 26.3379 39.0058 26.338 39.0058C26.3381 39.0058 26.3383 39.0058 26.3384 39.0058C26.3385 39.0058 26.3387 39.0058 26.3388 39.0058C26.3389 39.0058 26.3391 39.0058 26.3392 39.0058C26.3393 39.0058 26.3395 39.0058 26.3396 39.0058C26.3397 39.0058 26.3398 39.0058 26.34 39.0058C26.3401 39.0058 26.3402 39.0058 26.3404 39.0058C26.3405 39.0058 26.3406 39.0058 26.3408 39.0058C26.3409 39.0058 26.341 39.0058 26.3412 39.0058C26.3413 39.0058 26.3415 39.0058 26.3416 39.0058C26.3417 39.0058 26.3419 39.0058 26.342 39.0058C26.3421 39.0058 26.3423 39.0058 26.3424 39.0058C26.3425 39.0058 26.3427 39.0058 26.3428 39.0058C26.3429 39.0058 26.3431 39.0058 26.3432 39.0058C26.3434 39.0058 26.3435 39.0058 26.3436 39.0058C26.3438 39.0058 26.3439 39.0058 26.344 39.0058C26.3442 39.0058 26.3443 39.0058 26.3445 39.0058C26.3446 39.0058 26.3447 39.0058 26.3449 39.0058C26.345 39.0058 26.3452 39.0058 26.3453 39.0058C26.3454 39.0058 26.3456 39.0058 26.3457 39.0058C26.3459 39.0058 26.346 39.0058 26.3461 39.0058C26.3463 39.0058 26.3464 39.0058 26.3466 39.0058C26.3467 39.0058 26.3469 39.0058 26.347 39.0058C26.3471 39.0058 26.3473 39.0058 26.3474 39.0058C26.3476 39.0058 26.3477 39.0058 26.3479 39.0058C26.348 39.0058 26.3481 39.0058 26.3483 39.0058C26.3484 39.0058 26.3486 39.0058 26.3487 39.0058C26.3489 39.0058 26.349 39.0058 26.3492 39.0058C26.3493 39.0058 26.3494 39.0058 26.3496 39.0058C26.3497 39.0058 26.3499 39.0058 26.35 39.0058C26.3502 39.0058 26.3503 39.0058 26.3505 39.0058C26.3506 39.0058 26.3508 39.0058 26.3509 39.0058C26.3511 39.0058 26.3512 39.0058 26.3514 39.0058C26.3515 39.0058 26.3517 39.0058 26.3518 39.0058C26.352 39.0058 26.3521 39.0058 26.3523 39.0058C26.3524 39.0058 26.3526 39.0058 26.3527 39.0058C26.3529 39.0058 26.353 39.0058 26.3532 39.0058C26.3533 39.0058 26.3535 39.0058 26.3536 39.0058C26.3538 39.0058 26.3539 39.0058 26.3541 39.0058C26.3542 39.0058 26.3544 39.0058 26.3545 39.0058C26.3547 39.0058 26.3548 39.0058 26.355 39.0058C26.3551 39.0058 26.3553 39.0058 26.3554 39.0058C26.3556 39.0058 26.3557 39.0058 26.3559 39.0058C26.3561 39.0058 26.3562 39.0058 26.3564 39.0058C26.3565 39.0058 26.3567 39.0058 26.3568 39.0058C26.357 39.0058 26.3571 39.0058 26.3573 39.0058C26.3575 39.0058 26.3576 39.0058 26.3578 39.0058C26.3579 39.0058 26.3581 39.0058 26.3582 39.0058V37.0058C26.3581 37.0058 26.3579 37.0058 26.3578 37.0058C26.3576 37.0058 26.3575 37.0058 26.3573 37.0058C26.3571 37.0058 26.357 37.0058 26.3568 37.0058C26.3567 37.0058 26.3565 37.0058 26.3564 37.0058C26.3562 37.0058 26.3561 37.0058 26.3559 37.0058C26.3557 37.0058 26.3556 37.0058 26.3554 37.0058C26.3553 37.0058 26.3551 37.0058 26.355 37.0058C26.3548 37.0058 26.3547 37.0058 26.3545 37.0058C26.3544 37.0058 26.3542 37.0058 26.3541 37.0058C26.3539 37.0058 26.3538 37.0058 26.3536 37.0058C26.3535 37.0058 26.3533 37.0058 26.3532 37.0058C26.353 37.0058 26.3529 37.0058 26.3527 37.0058C26.3526 37.0058 26.3524 37.0058 26.3523 37.0058C26.3521 37.0058 26.352 37.0058 26.3518 37.0058C26.3517 37.0058 26.3515 37.0058 26.3514 37.0058C26.3512 37.0058 26.3511 37.0058 26.3509 37.0058C26.3508 37.0058 26.3506 37.0058 26.3505 37.0058C26.3503 37.0058 26.3502 37.0058 26.35 37.0058C26.3499 37.0058 26.3497 37.0058 26.3496 37.0058C26.3494 37.0058 26.3493 37.0058 26.3492 37.0058C26.349 37.0058 26.3489 37.0058 26.3487 37.0058C26.3486 37.0058 26.3484 37.0058 26.3483 37.0058C26.3481 37.0058 26.348 37.0058 26.3479 37.0058C26.3477 37.0058 26.3476 37.0058 26.3474 37.0058C26.3473 37.0058 26.3471 37.0058 26.347 37.0058C26.3469 37.0058 26.3467 37.0058 26.3466 37.0058C26.3464 37.0058 26.3463 37.0058 26.3461 37.0058C26.346 37.0058 26.3459 37.0058 26.3457 37.0058C26.3456 37.0058 26.3454 37.0058 26.3453 37.0058C26.3452 37.0058 26.345 37.0058 26.3449 37.0058C26.3447 37.0058 26.3446 37.0058 26.3445 37.0058C26.3443 37.0058 26.3442 37.0058 26.344 37.0058C26.3439 37.0058 26.3438 37.0058 26.3436 37.0058C26.3435 37.0058 26.3434 37.0058 26.3432 37.0058C26.3431 37.0058 26.3429 37.0058 26.3428 37.0058C26.3427 37.0058 26.3425 37.0058 26.3424 37.0058C26.3423 37.0058 26.3421 37.0058 26.342 37.0058C26.3419 37.0058 26.3417 37.0058 26.3416 37.0058C26.3415 37.0058 26.3413 37.0058 26.3412 37.0058C26.341 37.0058 26.3409 37.0058 26.3408 37.0058C26.3406 37.0058 26.3405 37.0058 26.3404 37.0058C26.3402 37.0058 26.3401 37.0058 26.34 37.0058C26.3398 37.0058 26.3397 37.0058 26.3396 37.0058C26.3395 37.0058 26.3393 37.0058 26.3392 37.0058C26.3391 37.0058 26.3389 37.0058 26.3388 37.0058C26.3387 37.0058 26.3385 37.0058 26.3384 37.0058C26.3383 37.0058 26.3381 37.0058 26.338 37.0058C26.3379 37.0058 26.3378 37.0058 26.3376 37.0058C26.3375 37.0058 26.3374 37.0058 26.3372 37.0058C26.3371 37.0058 26.337 37.0058 26.3369 37.0058C26.3367 37.0058 26.3366 37.0058 26.3365 37.0058C26.3363 37.0058 26.3362 37.0058 26.3361 37.0058C26.336 37.0058 26.3358 37.0058 26.3357 37.0058C26.3356 37.0058 26.3355 37.0058 26.3353 37.0058C26.3352 37.0058 26.3351 37.0058 26.3349 37.0058C26.3348 37.0058 26.3347 37.0058 26.3346 37.0058C26.3344 37.0058 26.3343 37.0058 26.3342 37.0058C26.3341 37.0058 26.334 37.0058 26.3338 37.0058C26.3337 37.0058 26.3336 37.0058 26.3335 37.0058C26.3333 37.0058 26.3332 37.0058 26.3331 37.0058C26.333 37.0058 26.3328 37.0058 26.3327 37.0058C26.3326 37.0058 26.3325 37.0058 26.3324 37.0058C26.3322 37.0058 26.3321 37.0058 26.332 37.0058C26.3319 37.0058 26.3318 37.0058 26.3316 37.0058C26.3315 37.0058 26.3314 37.0058 26.3313 37.0058C26.3311 37.0058 26.331 37.0058 26.3309 37.0058C26.3308 37.0058 26.3307 37.0058 26.3306 37.0058C26.3304 37.0058 26.3303 37.0058 26.3302 37.0058C26.3301 37.0058 26.33 37.0058 26.3298 37.0058C26.3297 37.0058 26.3296 37.0058 26.3295 37.0058C26.3294 37.0058 26.3293 37.0058 26.3291 37.0058C26.329 37.0058 26.3289 37.0058 26.3288 37.0058C26.3287 37.0058 26.3286 37.0058 26.3284 37.0058C26.3283 37.0058 26.3282 37.0058 26.3281 37.0058C26.328 37.0058 26.3279 37.0058 26.3277 37.0058C26.3276 37.0058 26.3275 37.0058 26.3274 37.0058C26.3273 37.0058 26.3272 37.0058 26.3271 37.0058C26.327 37.0058 26.3268 37.0058 26.3267 37.0058C26.3266 37.0058 26.3265 37.0058 26.3264 37.0058C26.3263 37.0058 26.3262 37.0058 26.326 37.0058C26.3259 37.0058 26.3258 37.0058 26.3257 37.0058C26.3256 37.0058 26.3255 37.0058 26.3254 37.0058C26.3253 37.0058 26.3252 37.0058 26.325 37.0058C26.3249 37.0058 26.3248 37.0058 26.3247 37.0058C26.3246 37.0058 26.3245 37.0058 26.3244 37.0058C26.3243 37.0058 26.3242 37.0058 26.3241 37.0058C26.3239 37.0058 26.3238 37.0058 26.3237 37.0058C26.3236 37.0058 26.3235 37.0058 26.3234 37.0058C26.3233 37.0058 26.3232 37.0058 26.3231 37.0058C26.323 37.0058 26.3229 37.0058 26.3228 37.0058C26.3227 37.0058 26.3225 37.0058 26.3224 37.0058C26.3223 37.0058 26.3222 37.0058 26.3221 37.0058C26.322 37.0058 26.3219 37.0058 26.3218 37.0058C26.3217 37.0058 26.3216 37.0058 26.3215 37.0058C26.3214 37.0058 26.3213 37.0058 26.3212 37.0058C26.3211 37.0058 26.321 37.0058 26.3209 37.0058C26.3208 37.0058 26.3207 37.0058 26.3206 37.0058C26.3205 37.0058 26.3203 37.0058 26.3202 37.0058C26.3201 37.0058 26.32 37.0058 26.3199 37.0058C26.3198 37.0058 26.3197 37.0058 26.3196 37.0058C26.3195 37.0058 26.3194 37.0058 26.3193 37.0058C26.3192 37.0058 26.3191 37.0058 26.319 37.0058C26.3189 37.0058 26.3188 37.0058 26.3187 37.0058C26.3186 37.0058 26.3185 37.0058 26.3184 37.0058C26.3183 37.0058 26.3182 37.0058 26.3181 37.0058C26.318 37.0058 26.3179 37.0058 26.3178 37.0058C26.3177 37.0058 26.3176 37.0058 26.3175 37.0058C26.3174 37.0058 26.3173 37.0058 26.3172 37.0058C26.3171 37.0058 26.317 37.0058 26.3169 37.0058C26.3168 37.0058 26.3167 37.0058 26.3166 37.0058C26.3165 37.0058 26.3165 37.0058 26.3164 37.0058C26.3163 37.0058 26.3162 37.0058 26.3161 37.0058C26.316 37.0058 26.3159 37.0058 26.3158 37.0058C26.3157 37.0058 26.3156 37.0058 26.3155 37.0058C26.3154 37.0058 26.3153 37.0058 26.3152 37.0058C26.3151 37.0058 26.315 37.0058 26.3149 37.0058C26.3148 37.0058 26.3147 37.0058 26.3146 37.0058C26.3145 37.0058 26.3145 37.0058 26.3144 37.0058C26.3143 37.0058 26.3142 37.0058 26.3141 37.0058C26.314 37.0058 26.3139 37.0058 26.3138 37.0058C26.3137 37.0058 26.3136 37.0058 26.3135 37.0058C26.3134 37.0058 26.3133 37.0058 26.3133 37.0058C26.3132 37.0058 26.3131 37.0058 26.313 37.0058C26.3129 37.0058 26.3128 37.0058 26.3127 37.0058C26.3126 37.0058 26.3125 37.0058 26.3124 37.0058C26.3123 37.0058 26.3123 37.0058 26.3122 37.0058C26.3121 37.0058 26.312 37.0058 26.3119 37.0058C26.3118 37.0058 26.3117 37.0058 26.3116 37.0058C26.3115 37.0058 26.3115 37.0058 26.3114 37.0058C26.3113 37.0058 26.3112 37.0058 26.3111 37.0058C26.311 37.0058 26.3109 37.0058 26.3108 37.0058C26.3108 37.0058 26.3107 37.0058 26.3106 37.0058C26.3105 37.0058 26.3104 37.0058 26.3103 37.0058C26.3102 37.0058 26.3102 37.0058 26.3101 37.0058C26.31 37.0058 26.3099 37.0058 26.3098 37.0058C26.3097 37.0058 26.3096 37.0058 26.3096 37.0058C26.3095 37.0058 26.3094 37.0058 26.3093 37.0058C26.3092 37.0058 26.3091 37.0058 26.309 37.0058C26.309 37.0058 26.3089 37.0058 26.3088 37.0058C26.3087 37.0058 26.3086 37.0058 26.3085 37.0058C26.3085 37.0058 26.3084 37.0058 26.3083 37.0058C26.3082 37.0058 26.3081 37.0058 26.3081 37.0058C26.308 37.0058 26.3079 37.0058 26.3078 37.0058C26.3077 37.0058 26.3076 37.0058 26.3076 37.0058C26.3075 37.0058 26.3074 37.0058 26.3073 37.0058C26.3072 37.0058 26.3072 37.0058 26.3071 37.0058C26.307 37.0058 26.3069 37.0058 26.3068 37.0058C26.3068 37.0058 26.3067 37.0058 26.3066 37.0058C26.3065 37.0058 26.3064 37.0058 26.3064 37.0058C26.3063 37.0058 26.3062 37.0058 26.3061 37.0058C26.306 37.0058 26.306 37.0058 26.3059 37.0058C26.3058 37.0058 26.3057 37.0058 26.3056 37.0058C26.3056 37.0058 26.3055 37.0058 26.3054 37.0058C26.3053 37.0058 26.3053 37.0058 26.3052 37.0058C26.3051 37.0058 26.305 37.0058 26.305 37.0058C26.3049 37.0058 26.3048 37.0058 26.3047 37.0058C26.3046 37.0058 26.3046 37.0058 26.3045 37.0058C26.3044 37.0058 26.3043 37.0058 26.3043 37.0058C26.3042 37.0058 26.3041 37.0058 26.304 37.0058C26.304 37.0058 26.3039 37.0058 26.3038 37.0058C26.3037 37.0058 26.3037 37.0058 26.3036 37.0058C26.3035 37.0058 26.3035 37.0058 26.3034 37.0058C26.3033 37.0058 26.3032 37.0058 26.3032 37.0058C26.3031 37.0058 26.303 37.0058 26.3029 37.0058C26.3029 37.0058 26.3028 37.0058 26.3027 37.0058C26.3027 37.0058 26.3026 37.0058 26.3025 37.0058C26.3024 37.0058 26.3024 37.0058 26.3023 37.0058C26.3022 37.0058 26.3021 37.0058 26.3021 37.0058C26.302 37.0058 26.3019 37.0058 26.3019 37.0058C26.3018 37.0058 26.3017 37.0058 26.3017 37.0058C26.3016 37.0058 26.3015 37.0058 26.3014 37.0058C26.3014 37.0058 26.3013 37.0058 26.3012 37.0058C26.3012 37.0058 26.3011 37.0058 26.301 37.0058C26.301 37.0058 26.3009 37.0058 26.3008 37.0058C26.3008 37.0058 26.3007 37.0058 26.3006 37.0058C26.3005 37.0058 26.3005 37.0058 26.3004 37.0058C26.3003 37.0058 26.3003 37.0058 26.3002 37.0058C26.3001 37.0058 26.3001 37.0058 26.3 37.0058C26.2999 37.0058 26.2999 37.0058 26.2998 37.0058C26.2997 37.0058 26.2997 37.0058 26.2996 37.0058C26.2995 37.0058 26.2995 37.0058 26.2994 37.0058C26.2993 37.0058 26.2993 37.0058 26.2992 37.0058C26.2991 37.0058 26.2991 37.0058 26.299 37.0058C26.299 37.0058 26.2989 37.0058 26.2988 37.0058C26.2988 37.0058 26.2987 37.0058 26.2986 37.0058C26.2986 37.0058 26.2985 37.0058 26.2984 37.0058C26.2984 37.0058 26.2983 37.0058 26.2982 37.0058C26.2982 37.0058 26.2981 37.0058 26.2981 37.0058C26.298 37.0058 26.2979 37.0058 26.2979 37.0058C26.2978 37.0058 26.2977 37.0058 26.2977 37.0058C26.2976 37.0058 26.2976 37.0058 26.2975 37.0058C26.2974 37.0058 26.2974 37.0058 26.2973 37.0058C26.2972 37.0058 26.2972 37.0058 26.2971 37.0058C26.2971 37.0058 26.297 37.0058 26.2969 37.0058C26.2969 37.0058 26.2968 37.0058 26.2968 37.0058C26.2967 37.0058 26.2966 37.0058 26.2966 37.0058C26.2965 37.0058 26.2965 37.0058 26.2964 37.0058C26.2963 37.0058 26.2963 37.0058 26.2962 37.0058C26.2962 37.0058 26.2961 37.0058 26.296 37.0058C26.296 37.0058 26.2959 37.0058 26.2959 37.0058C26.2958 37.0058 26.2958 37.0058 26.2957 37.0058C26.2956 37.0058 26.2956 37.0058 26.2955 37.0058C26.2955 37.0058 26.2954 37.0058 26.2953 37.0058C26.2953 37.0058 26.2952 37.0058 26.2952 37.0058C26.2951 37.0058 26.2951 37.0058 26.295 37.0058C26.2949 37.0058 26.2949 37.0058 26.2948 37.0058C26.2948 37.0058 26.2947 37.0058 26.2947 37.0058C26.2946 37.0058 26.2946 37.0058 26.2945 37.0058C26.2944 37.0058 26.2944 37.0058 26.2943 37.0058C26.2943 37.0058 26.2942 37.0058 26.2942 37.0058C26.2941 37.0058 26.2941 37.0058 26.294 37.0058C26.294 37.0058 26.2939 37.0058 26.2938 37.0058C26.2938 37.0058 26.2937 37.0058 26.2937 37.0058C26.2936 37.0058 26.2936 37.0058 26.2935 37.0058C26.2935 37.0058 26.2934 37.0058 26.2934 37.0058C26.2933 37.0058 26.2933 37.0058 26.2932 37.0058C26.2932 37.0058 26.2931 37.0058 26.293 37.0058C26.293 37.0058 26.2929 37.0058 26.2929 37.0058C26.2928 37.0058 26.2928 37.0058 26.2927 37.0058C26.2927 37.0058 26.2926 37.0058 26.2926 37.0058C26.2925 37.0058 26.2925 37.0058 26.2924 37.0058C26.2924 37.0058 26.2923 37.0058 26.2923 37.0058C26.2922 37.0058 26.2922 37.0058 26.2921 37.0058C26.2921 37.0058 26.292 37.0058 26.292 37.0058C26.2919 37.0058 26.2919 37.0058 26.2918 37.0058C26.2918 37.0058 26.2917 37.0058 26.2917 37.0058C26.2916 37.0058 26.2916 37.0058 26.2915 37.0058C26.2915 37.0058 26.2914 37.0058 26.2914 37.0058C26.2913 37.0058 26.2913 37.0058 26.2912 37.0058C26.2912 37.0058 26.2911 37.0058 26.2911 37.0058C26.291 37.0058 26.291 37.0058 26.291 37.0058C26.2909 37.0058 26.2909 37.0058 26.2908 37.0058C26.2908 37.0058 26.2907 37.0058 26.2907 37.0058C26.2906 37.0058 26.2906 37.0058 26.2905 37.0058C26.2905 37.0058 26.2904 37.0058 26.2904 37.0058C26.2903 37.0058 26.2903 37.0058 26.2903 37.0058C26.2902 37.0058 26.2902 37.0058 26.2901 37.0058C26.2901 37.0058 26.29 37.0058 26.29 37.0058C26.2899 37.0058 26.2899 37.0058 26.2898 37.0058C26.2898 37.0058 26.2898 37.0058 26.2897 37.0058C26.2897 37.0058 26.2896 37.0058 26.2896 37.0058C26.2895 37.0058 26.2895 37.0058 26.2895 37.0058C26.2894 37.0058 26.2894 37.0058 26.2893 37.0058C26.2893 37.0058 26.2892 37.0058 26.2892 37.0058C26.2891 37.0058 26.2891 37.0058 26.2891 37.0058C26.289 37.0058 26.289 37.0058 26.2889 37.0058C26.2889 37.0058 26.2888 37.0058 26.2888 37.0058C26.2888 37.0058 26.2887 37.0058 26.2887 37.0058C26.2886 37.0058 26.2886 37.0058 26.2886 37.0058C26.2885 37.0058 26.2885 37.0058 26.2884 37.0058C26.2884 37.0058 26.2883 37.0058 26.2883 37.0058C26.2883 37.0058 26.2882 37.0058 26.2882 37.0058C26.2881 37.0058 26.2881 37.0058 26.2881 37.0058C26.288 37.0058 26.288 37.0058 26.2879 37.0058C26.2879 37.0058 26.2879 37.0058 26.2878 37.0058C26.2878 37.0058 26.2877 37.0058 26.2877 37.0058C26.2877 37.0058 26.2876 37.0058 26.2876 37.0058C26.2875 37.0058 26.2875 37.0058 26.2875 37.0058C26.2874 37.0058 26.2874 37.0058 26.2874 37.0058C26.2873 37.0058 26.2873 37.0058 26.2872 37.0058C26.2872 37.0058 26.2872 37.0058 26.2871 37.0058C26.2871 37.0058 26.2871 37.0058 26.287 37.0058C26.287 37.0058 26.2869 37.0058 26.2869 37.0058C26.2869 37.0058 26.2868 37.0058 26.2868 37.0058C26.2868 37.0058 26.2867 37.0058 26.2867 37.0058C26.2866 37.0058 26.2866 37.0058 26.2866 37.0058C26.2865 37.0058 26.2865 37.0058 26.2865 37.0058C26.2864 37.0058 26.2864 37.0058 26.2864 37.0058C26.2863 37.0058 26.2863 37.0058 26.2862 37.0058C26.2862 37.0058 26.2862 37.0058 26.2861 37.0058C26.2861 37.0058 26.2861 37.0058 26.286 37.0058C26.286 37.0058 26.286 37.0058 26.2859 37.0058C26.2859 37.0058 26.2859 37.0058 26.2858 37.0058C26.2858 37.0058 26.2858 37.0058 26.2857 37.0058C26.2857 37.0058 26.2857 37.0058 26.2856 37.0058C26.2856 37.0058 26.2856 37.0058 26.2855 37.0058C26.2855 37.0058 26.2855 37.0058 26.2854 37.0058C26.2854 37.0058 26.2854 37.0058 26.2853 37.0058C26.2853 37.0058 26.2853 37.0058 26.2852 37.0058C26.2852 37.0058 26.2852 37.0058 26.2851 37.0058C26.2851 37.0058 26.2851 37.0058 26.285 37.0058C26.285 37.0058 26.285 37.0058 26.2849 37.0058C26.2849 37.0058 26.2849 37.0058 26.2848 37.0058C26.2848 37.0058 26.2848 37.0058 26.2847 37.0058C26.2847 37.0058 26.2847 37.0058 26.2847 37.0058C26.2846 37.0058 26.2846 37.0058 26.2846 37.0058C26.2845 37.0058 26.2845 37.0058 26.2845 37.0058C26.2844 37.0058 26.2844 37.0058 26.2844 37.0058C26.2843 37.0058 26.2843 37.0058 26.2843 37.0058C26.2843 37.0058 26.2842 37.0058 26.2842 37.0058C26.2842 37.0058 26.2841 37.0058 26.2841 37.0058C26.2841 37.0058 26.2841 37.0058 26.284 37.0058C26.284 37.0058 26.284 37.0058 26.2839 37.0058C26.2839 37.0058 26.2839 37.0058 26.2839 37.0058C26.2838 37.0058 26.2838 37.0058 26.2838 37.0058C26.2837 37.0058 26.2837 37.0058 26.2837 37.0058C26.2837 37.0058 26.2836 37.0058 26.2836 37.0058C26.2836 37.0058 26.2835 37.0058 26.2835 37.0058C26.2835 37.0058 26.2835 37.0058 26.2834 37.0058C26.2834 37.0058 26.2834 37.0058 26.2834 37.0058C26.2833 37.0058 26.2833 37.0058 26.2833 37.0058C26.2832 37.0058 26.2832 37.0058 26.2832 37.0058C26.2832 37.0058 26.2831 37.0058 26.2831 37.0058C26.2831 37.0058 26.2831 37.0058 26.283 37.0058C26.283 37.0058 26.283 37.0058 26.283 37.0058C26.2829 37.0058 26.2829 37.0058 26.2829 37.0058C26.2829 37.0058 26.2828 37.0058 26.2828 37.0058C26.2828 37.0058 26.2828 37.0058 26.2827 37.0058C26.2827 37.0058 26.2827 37.0058 26.2827 37.0058C26.2826 37.0058 26.2826 37.0058 26.2826 37.0058C26.2826 37.0058 26.2825 37.0058 26.2825 37.0058C26.2825 37.0058 26.2825 37.0058 26.2824 37.0058C26.2824 37.0058 26.2824 37.0058 26.2824 37.0058C26.2823 37.0058 26.2823 37.0058 26.2823 37.0058C26.2823 37.0058 26.2822 37.0058 26.2822 37.0058C26.2822 37.0058 26.2822 37.0058 26.2822 37.0058C26.2821 37.0058 26.2821 37.0058 26.2821 37.0058C26.2821 37.0058 26.282 37.0058 26.282 37.0058C26.282 37.0058 26.282 37.0058 26.2819 37.0058C26.2819 37.0058 26.2819 37.0058 26.2819 37.0058C26.2819 37.0058 26.2818 37.0058 26.2818 37.0058C26.2818 37.0058 26.2818 37.0058 26.2817 37.0058C26.2817 37.0058 26.2817 37.0058 26.2817 37.0058C26.2817 37.0058 26.2816 37.0058 26.2816 37.0058C26.2816 37.0058 26.2816 37.0058 26.2816 37.0058C26.2815 37.0058 26.2815 37.0058 26.2815 37.0058C26.2815 37.0058 26.2815 37.0058 26.2814 37.0058C26.2814 37.0058 26.2814 37.0058 26.2814 37.0058C26.2813 37.0058 26.2813 37.0058 26.2813 37.0058C26.2813 37.0058 26.2813 37.0058 26.2812 37.0058C26.2812 37.0058 26.2812 37.0058 26.2812 37.0058C26.2812 37.0058 26.2812 37.0058 26.2811 37.0058C26.2811 37.0058 26.2811 37.0058 26.2811 37.0058C26.2811 37.0058 26.281 37.0058 26.281 37.0058C26.281 37.0058 26.281 37.0058 26.281 37.0058C26.2809 37.0058 26.2809 37.0058 26.2809 37.0058C26.2809 37.0058 26.2809 37.0058 26.2808 37.0058C26.2808 37.0058 26.2808 37.0058 26.2808 37.0058C26.2808 37.0058 26.2808 37.0058 26.2807 37.0058C26.2807 37.0058 26.2807 37.0058 26.2807 37.0058C26.2807 37.0058 26.2806 37.0058 26.2806 37.0058C26.2806 37.0058 26.2806 37.0058 26.2806 37.0058C26.2806 37.0058 26.2805 37.0058 26.2805 37.0058C26.2805 37.0058 26.2805 37.0058 26.2805 37.0058C26.2805 37.0058 26.2804 37.0058 26.2804 37.0058C26.2804 37.0058 26.2804 37.0058 26.2804 37.0058C26.2804 37.0058 26.2803 37.0058 26.2803 37.0058C26.2803 37.0058 26.2803 37.0058 26.2803 37.0058C26.2803 37.0058 26.2802 37.0058 26.2802 37.0058C26.2802 37.0058 26.2802 37.0058 26.2802 37.0058C26.2802 37.0058 26.2802 37.0058 26.2801 37.0058C26.2801 37.0058 26.2801 37.0058 26.2801 37.0058C26.2801 37.0058 26.2801 37.0058 26.28 37.0058C26.28 37.0058 26.28 37.0058 26.28 37.0058C26.28 37.0058 26.28 37.0058 26.28 37.0058C26.2799 37.0058 26.2799 37.0058 26.2799 37.0058C26.2799 37.0058 26.2799 37.0058 26.2799 37.0058C26.2799 37.0058 26.2798 37.0058 26.2798 37.0058C26.2798 37.0058 26.2798 37.0058 26.2798 37.0058C26.2798 37.0058 26.2798 37.0058 26.2797 37.0058C26.2797 37.0058 26.2797 37.0058 26.2797 37.0058C26.2797 37.0058 26.2797 37.0058 26.2797 37.0058C26.2796 37.0058 26.2796 37.0058 26.2796 37.0058C26.2796 37.0058 26.2796 37.0058 26.2796 37.0058C26.2796 37.0058 26.2795 37.0058 26.2795 37.0058C26.2795 37.0058 26.2795 37.0058 26.2795 37.0058C26.2795 37.0058 26.2795 37.0058 26.2795 37.0058C26.2794 37.0058 26.2794 37.0058 26.2794 37.0058C26.2794 37.0058 26.2794 37.0058 26.2794 37.0058C26.2794 37.0058 26.2794 37.0058 26.2793 37.0058C26.2793 37.0058 26.2793 37.0058 26.2793 37.0058C26.2793 37.0058 26.2793 37.0058 26.2793 37.0058C26.2793 37.0058 26.2793 37.0058 26.2792 37.0058C26.2792 37.0058 26.2792 37.0058 26.2792 37.0058C26.2792 37.0058 26.2792 37.0058 26.2792 37.0058C26.2792 37.0058 26.2792 37.0058 26.2791 37.0058C26.2791 37.0058 26.2791 37.0058 26.2791 37.0058C26.2791 37.0058 26.2791 37.0058 26.2791 37.0058C26.2791 37.0058 26.2791 37.0058 26.279 37.0058C26.279 37.0058 26.279 37.0058 26.279 37.0058C26.279 37.0058 26.279 37.0058 26.279 37.0058C26.279 37.0058 26.279 37.0058 26.2789 37.0058C26.2789 37.0058 26.2789 37.0058 26.2789 37.0058C26.2789 37.0058 26.2789 37.0058 26.2789 37.0058C26.2789 37.0058 26.2789 37.0058 26.2789 37.0058C26.2788 37.0058 26.2788 37.0058 26.2788 37.0058C26.2788 37.0058 26.2788 37.0058 26.2788 37.0058C26.2788 37.0058 26.2788 37.0058 26.2788 37.0058C26.2788 37.0058 26.2788 37.0058 26.2787 37.0058C26.2787 37.0058 26.2787 37.0058 26.2787 37.0058C26.2787 37.0058 26.2787 37.0058 26.2787 37.0058C26.2787 37.0058 26.2787 37.0058 26.2787 37.0058C26.2787 37.0058 26.2786 37.0058 26.2786 37.0058C26.2786 37.0058 26.2786 37.0058 26.2786 37.0058C26.2786 37.0058 26.2786 37.0058 26.2786 37.0058C26.2786 37.0058 26.2786 37.0058 26.2786 37.0058C26.2786 37.0058 26.2786 37.0058 26.2785 37.0058C26.2785 37.0058 26.2785 37.0058 26.2785 37.0058C26.2785 37.0058 26.2785 37.0058 26.2785 37.0058C26.2785 37.0058 26.2785 37.0058 26.2785 37.0058C26.2785 37.0058 26.2785 37.0058 26.2785 37.0058C26.2784 37.0058 26.2784 37.0058 26.2784 37.0058C26.2784 37.0058 26.2784 37.0058 26.2784 37.0058C26.2784 37.0058 26.2784 37.0058 26.2784 37.0058C26.2784 37.0058 26.2784 37.0058 26.2784 37.0058C26.2784 37.0058 26.2784 37.0058 26.2783 37.0058C26.2783 37.0058 26.2783 37.0058 26.2783 37.0058C26.2783 37.0058 26.2783 37.0058 26.2783 37.0058C26.2783 37.0058 26.2783 37.0058 26.2783 37.0058C26.2783 37.0058 26.2783 37.0058 26.2783 37.0058C26.2783 37.0058 26.2783 37.0058 26.2782 37.0058C26.2782 37.0058 26.2782 37.0058 26.2782 37.0058C26.2782 37.0058 26.2782 37.0058 26.2782 37.0058C26.2782 37.0058 26.2782 37.0058 26.2782 37.0058C26.2782 37.0058 26.2782 37.0058 26.2782 37.0058C26.2782 37.0058 26.2782 37.0058 26.2782 37.0058C26.2782 37.0058 26.2781 37.0058 26.2781 37.0058C26.2781 37.0058 26.2781 37.0058 26.2781 37.0058C26.2781 37.0058 26.2781 37.0058 26.2781 37.0058C26.2781 37.0058 26.2781 37.0058 26.2781 37.0058C26.2781 37.0058 26.2781 37.0058 26.2781 37.0058C26.2781 37.0058 26.2781 37.0058 26.2781 37.0058C26.2781 37.0058 26.2781 37.0058 26.2781 37.0058C26.278 37.0058 26.278 37.0058 26.278 37.0058C26.278 37.0058 26.278 37.0058 26.278 37.0058C26.278 37.0058 26.278 37.0058 26.278 37.0058C26.278 37.0058 26.278 37.0058 26.278 37.0058C26.278 37.0058 26.278 37.0058 26.278 37.0058C26.278 37.0058 26.278 37.0058 26.278 37.0058C26.278 37.0058 26.278 37.0058 26.278 37.0058C26.278 37.0058 26.278 37.0058 26.2779 37.0058C26.2779 37.0058 26.2779 37.0058 26.2779 37.0058C26.2779 37.0058 26.2779 37.0058 26.2779 37.0058C26.2779 37.0058 26.2779 37.0058 26.2779 37.0058C26.2779 37.0058 26.2779 37.0058 26.2779 37.0058C26.2779 37.0058 26.2779 37.0058 26.2779 37.0058C26.2779 37.0058 26.2779 37.0058 26.2779 37.0058C26.2779 37.0058 26.2779 37.0058 26.2779 37.0058C26.2779 37.0058 26.2779 37.0058 26.2779 37.0058C26.2779 37.0058 26.2779 37.0058 26.2779 37.0058C26.2778 37.0058 26.2778 37.0058 26.2778 37.0058C26.2778 37.0058 26.2778 37.0058 26.2778 37.0058C26.2778 37.0058 26.2778 37.0058 26.2778 37.0058C26.2778 37.0058 26.2778 37.0058 26.2778 37.0058C26.2778 37.0058 26.2778 37.0058 26.2778 37.0058C26.2778 37.0058 26.2778 37.0058 26.2778 37.0058C26.2778 37.0058 26.2778 37.0058 26.2778 37.0058C26.2778 37.0058 26.2778 37.0058 26.2778 37.0058C26.2778 37.0058 26.2778 37.0058 26.2778 37.0058C26.2778 37.0058 26.2778 37.0058 26.2778 37.0058C26.2778 37.0058 26.2778 37.0058 26.2778 37.0058C26.2778 37.0058 26.2778 37.0058 26.2778 37.0058C26.2778 37.0058 26.2778 37.0058 26.2778 37.0058C26.2777 37.0058 26.2777 37.0058 26.2777 37.0058C26.2777 37.0058 26.2777 37.0058 26.2777 37.0058C26.2777 37.0058 26.2777 37.0058 26.2777 37.0058C26.2777 37.0058 26.2777 37.0058 26.2777 37.0058C26.2777 37.0058 26.2777 37.0058 26.2777 37.0058C26.2777 37.0058 26.2777 37.0058 26.2777 37.0058C26.2777 37.0058 26.2777 37.0058 26.2777 37.0058C26.2777 37.0058 26.2777 37.0058 26.2777 37.0058C26.2777 37.0058 26.2777 37.0058 26.2777 37.0058C26.2777 37.0058 26.2777 37.0058 26.2777 37.0058C26.2777 37.0058 26.2777 37.0058 26.2777 37.0058C26.2777 37.0058 26.2777 37.0058 26.2777 37.0058C26.2777 37.0058 26.2777 37.0058 26.2777 37.0058C26.2777 37.0058 26.2777 37.0058 26.2777 37.0058C26.2777 37.0058 26.2777 37.0058 26.2777 37.0058C26.2777 37.0058 26.2777 37.0058 26.2777 37.0058C26.2777 37.0058 26.2777 37.0058 26.2777 37.0058C26.2777 37.0058 26.2777 37.0058 26.2777 37.0058C26.2777 37.0058 26.2777 37.0058 26.2777 37.0058C26.2777 37.0058 26.2777 37.0058 26.2777 37.0058C26.2777 37.0058 26.2777 37.0058 26.2777 37.0058C26.2777 37.0058 26.2777 37.0058 26.2777 37.0058C26.2777 37.0058 26.2777 37.0058 26.2777 37.0058C26.2777 37.0058 26.2777 37.0058 26.2777 37.0058C26.2777 37.0058 26.2777 37.0058 26.2777 37.0058C26.2777 37.0058 26.2777 37.0058 26.2777 37.0058C26.2776 37.0058 26.2776 37.0058 26.2776 37.0058C26.2776 37.0058 26.2776 37.0058 26.2776 37.0058C26.2776 37.0058 26.2776 37.0058 26.2776 37.0058C26.2776 37.0058 26.2776 37.0058 26.2776 37.0058C26.2776 37.0058 26.2776 37.0058 26.2776 37.0058C26.2776 37.0058 26.2776 37.0058 26.2776 37.0058C26.2776 37.0058 26.2776 37.0058 26.2776 37.0058C26.2776 37.0058 26.2776 37.0058 26.2776 37.0058C26.2776 37.0058 26.2776 37.0058 26.2776 37.0058C26.2776 37.0058 26.2776 37.0058 26.2776 37.0058C26.2776 37.0058 26.2776 37.0058 26.2776 37.0058C26.2776 37.0058 26.2776 37.0058 26.2776 37.0058C26.2776 37.0058 26.2776 37.0058 26.2776 37.0058C26.2776 37.0058 26.2776 37.0058 26.2776 37.0058C26.2776 37.0058 26.2776 37.0058 26.2776 37.0058C26.2776 37.0058 26.2776 37.0058 26.2776 37.0058C26.2776 37.0058 26.2776 37.0058 26.2776 37.0058C26.2776 37.0058 26.2776 37.0058 26.2776 37.0058C26.2776 37.0058 26.2776 37.0058 26.2776 37.0058C26.2776 37.0058 26.2776 37.0058 26.2776 37.0058C26.2776 37.0058 26.2776 37.0058 26.2776 37.0058C26.2776 37.0058 26.2776 37.0058 26.2776 37.0058C26.2776 37.0058 26.2776 37.0058 26.2776 37.0058H26.2776H26.2776H26.2776C26.2776 37.0058 26.2776 37.0058 26.2776 37.0058H26.2776C26.2776 37.0058 26.2776 37.0058 26.2776 38.0058ZM26.3582 39.0058C27.2137 39.0058 31.436 39.1614 35.412 41.5069C39.3065 43.8044 43.0915 48.2717 43.0915 57.1899H45.0915C45.0915 47.5689 40.9368 42.4441 36.4282 39.7843C32.001 37.1726 27.3567 37.0058 26.3582 37.0058V39.0058ZM43.0915 57.1899C43.0915 58.3065 44.0228 59.2378 45.1394 59.2378V57.2378C45.1422 57.2378 45.1414 57.2386 45.136 57.2362C45.1298 57.2335 45.1204 57.2279 45.1109 57.2184C45.1014 57.2089 45.0958 57.1995 45.0931 57.1933C45.0907 57.1879 45.0915 57.1871 45.0915 57.1899H43.0915ZM45.1394 59.2378C46.2559 59.2378 47.1872 58.3065 47.1872 57.1899H45.1872C45.1872 57.1871 45.188 57.1879 45.1856 57.1933C45.1829 57.1995 45.1773 57.2089 45.1678 57.2184C45.1583 57.2279 45.1489 57.2335 45.1427 57.2362C45.1373 57.2386 45.1365 57.2378 45.1394 57.2378V59.2378ZM47.1872 57.1899C47.1872 48.3136 50.9708 43.8448 54.8683 41.5362C58.8462 39.18 63.07 39.0058 63.9205 39.0058V37.0058C62.917 37.0058 58.2742 37.1943 53.849 39.8155C49.3433 42.4843 45.1872 47.6075 45.1872 57.1899H47.1872ZM63.9205 39.0058C64.7662 39.0058 65.3499 38.492 65.6877 38.0415L64.0877 36.8415C64.0197 36.9322 63.9652 36.9775 63.9346 36.9966C63.9209 37.0051 63.9146 37.0069 63.9154 37.0066C63.9157 37.0065 63.9167 37.0063 63.9182 37.006C63.9198 37.0058 63.9206 37.0058 63.9205 37.0058V39.0058ZM65.7822 37.8888C66.088 37.2772 66.1077 36.4611 65.6071 35.7937L64.0071 36.9937C64.0073 36.9939 64.0066 36.993 64.0056 36.9912C64.0046 36.9893 64.0036 36.987 64.0027 36.9844C64.0007 36.979 64.0002 36.9748 64.0001 36.9731C64 36.9716 64.0003 36.9732 63.9994 36.9776C63.9984 36.9821 63.9965 36.988 63.9933 36.9943L65.7822 37.8888ZM46.0152 48.9986C43.5484 40.9179 37.4878 37.4352 32.7903 35.9253L32.1783 37.8293C36.5086 39.2212 41.8939 42.3481 44.1023 49.5825L46.0152 48.9986ZM32.7903 37.8293C37.4878 36.3194 43.5484 32.8367 46.0152 24.756L44.1023 24.1721C41.8939 31.4065 36.5086 34.5334 32.1783 35.9253L32.7903 37.8293ZM44.1023 24.756C46.5691 32.8367 52.6297 36.3194 57.3272 37.8293L57.9392 35.9253C53.6089 34.5334 48.2236 31.4065 46.0152 24.1721L44.1023 24.756ZM57.3272 35.9253C52.6297 37.4352 46.5691 40.9179 44.1023 48.9986L46.0152 49.5825C48.2236 42.3481 53.6089 39.2212 57.9392 37.8293L57.3272 35.9253Z" fill="#88CCDD" mask="url(#path-1-outside-1)"/>
<path d="M10.2368 12.7598H10.2013L10.1661 12.7649C9.39344 12.8752 8.76953 13.4582 8.76953 14.3077C8.76953 15.1481 9.47702 15.8556 10.3174 15.8556C10.8078 15.8556 13.1193 15.934 15.2925 17.2169C17.4247 18.4756 19.4901 20.93 19.4901 25.8343C19.4901 26.6614 20.1754 27.3598 20.9982 27.3817C21.4183 27.436 21.798 27.2524 22.0565 26.9939C22.3253 26.7251 22.5052 26.3383 22.5052 25.9149C22.5052 21.0127 24.5888 18.5577 26.7322 17.298C28.9164 16.0143 31.229 15.9362 31.6779 15.9362H31.7585C32.6227 15.9362 33.3064 15.2042 33.3064 14.3077C33.3064 13.4673 32.5989 12.7598 31.7585 12.7598C31.3096 12.7598 28.997 12.6817 26.8128 11.398C24.6695 10.1383 22.5858 7.6833 22.5858 2.78109C22.5858 1.94071 21.8783 1.23322 21.0379 1.23322C20.1976 1.23322 19.4901 1.94071 19.4901 2.78109C19.4901 7.6833 17.4064 10.1383 15.2631 11.398C13.0789 12.6817 10.7663 12.7598 10.3174 12.7598H10.3169H10.3165H10.316H10.3155H10.3151H10.3146H10.3141H10.3137H10.3132H10.3128H10.3123H10.3119H10.3114H10.311H10.3105H10.3101H10.3096H10.3092H10.3088H10.3083H10.3079H10.3075H10.307H10.3066H10.3062H10.3057H10.3053H10.3049H10.3045H10.304H10.3036H10.3032H10.3028H10.3024H10.302H10.3016H10.3012H10.3008H10.3004H10.2999H10.2995H10.2992H10.2988H10.2984H10.298H10.2976H10.2972H10.2968H10.2964H10.296H10.2956H10.2953H10.2949H10.2945H10.2941H10.2937H10.2934H10.293H10.2926H10.2923H10.2919H10.2915H10.2912H10.2908H10.2904H10.2901H10.2897H10.2894H10.289H10.2887H10.2883H10.288H10.2876H10.2873H10.2869H10.2866H10.2862H10.2859H10.2856H10.2852H10.2849H10.2845H10.2842H10.2839H10.2836H10.2832H10.2829H10.2826H10.2823H10.2819H10.2816H10.2813H10.281H10.2807H10.2803H10.28H10.2797H10.2794H10.2791H10.2788H10.2785H10.2782H10.2779H10.2776H10.2773H10.277H10.2767H10.2764H10.2761H10.2758H10.2755H10.2752H10.2749H10.2747H10.2744H10.2741H10.2738H10.2735H10.2733H10.273H10.2727H10.2724H10.2721H10.2719H10.2716H10.2713H10.2711H10.2708H10.2705H10.2703H10.27H10.2698H10.2695H10.2692H10.269H10.2687H10.2685H10.2682H10.268H10.2677H10.2675H10.2672H10.267H10.2667H10.2665H10.2662H10.266H10.2658H10.2655H10.2653H10.2651H10.2648H10.2646H10.2644H10.2641H10.2639H10.2637H10.2634H10.2632H10.263H10.2628H10.2625H10.2623H10.2621H10.2619H10.2617H10.2615H10.2612H10.261H10.2608H10.2606H10.2604H10.2602H10.26H10.2598H10.2596H10.2594H10.2592H10.259H10.2588H10.2586H10.2584H10.2582H10.258H10.2578H10.2576H10.2574H10.2572H10.257H10.2568H10.2567H10.2565H10.2563H10.2561H10.2559H10.2557H10.2556H10.2554H10.2552H10.255H10.2549H10.2547H10.2545H10.2543H10.2542H10.254H10.2538H10.2537H10.2535H10.2533H10.2532H10.253H10.2529H10.2527H10.2525H10.2524H10.2522H10.2521H10.2519H10.2518H10.2516H10.2514H10.2513H10.2511H10.251H10.2508H10.2507H10.2506H10.2504H10.2503H10.2501H10.25H10.2498H10.2497H10.2496H10.2494H10.2493H10.2492H10.249H10.2489H10.2488H10.2486H10.2485H10.2484H10.2482H10.2481H10.248H10.2478H10.2477H10.2476H10.2475H10.2474H10.2472H10.2471H10.247H10.2469H10.2468H10.2466H10.2465H10.2464H10.2463H10.2462H10.2461H10.246H10.2458H10.2457H10.2456H10.2455H10.2454H10.2453H10.2452H10.2451H10.245H10.2449H10.2448H10.2447H10.2446H10.2445H10.2444H10.2443H10.2442H10.2441H10.244H10.2439H10.2438H10.2437H10.2436H10.2435H10.2435H10.2434H10.2433H10.2432H10.2431H10.243H10.2429H10.2429H10.2428H10.2427H10.2426H10.2425H10.2424H10.2424H10.2423H10.2422H10.2421H10.242H10.242H10.2419H10.2418H10.2417H10.2417H10.2416H10.2415H10.2415H10.2414H10.2413H10.2413H10.2412H10.2411H10.241H10.241H10.2409H10.2409H10.2408H10.2407H10.2407H10.2406H10.2405H10.2405H10.2404H10.2404H10.2403H10.2402H10.2402H10.2401H10.2401H10.24H10.24H10.2399H10.2399H10.2398H10.2397H10.2397H10.2396H10.2396H10.2395H10.2395H10.2394H10.2394H10.2394H10.2393H10.2393H10.2392H10.2392H10.2391H10.2391H10.239H10.239H10.2389H10.2389H10.2389H10.2388H10.2388H10.2387H10.2387H10.2387H10.2386H10.2386H10.2386H10.2385H10.2385H10.2384H10.2384H10.2384H10.2383H10.2383H10.2383H10.2382H10.2382H10.2382H10.2381H10.2381H10.2381H10.2381H10.238H10.238H10.238H10.2379H10.2379H10.2379H10.2379H10.2378H10.2378H10.2378H10.2378H10.2377H10.2377H10.2377H10.2377H10.2376H10.2376H10.2376H10.2376H10.2376H10.2375H10.2375H10.2375H10.2375H10.2375H10.2374H10.2374H10.2374H10.2374H10.2374H10.2373H10.2373H10.2373H10.2373H10.2373H10.2373H10.2373H10.2372H10.2372H10.2372H10.2372H10.2372H10.2372H10.2372H10.2371H10.2371H10.2371H10.2371H10.2371H10.2371H10.2371H10.2371H10.2371H10.237H10.237H10.237H10.237H10.237H10.237H10.237H10.237H10.237H10.237H10.237H10.2369H10.2369H10.2369H10.2369H10.2369H10.2369H10.2369H10.2369H10.2369H10.2369H10.2368H10.2368H10.2368H10.2368H10.2368H10.2368ZM25.606 14.2984C23.7914 15.2573 22.1337 16.7643 20.966 18.8881C19.7795 16.6735 18.0384 15.2478 16.3087 14.317C18.1233 13.3581 19.781 11.8511 20.9486 9.72729C22.1352 11.9419 23.8763 13.3676 25.606 14.2984Z" fill="#88CCDD" stroke="#88CCDD"/>
<path d="M0.967268 49.613L0.896558 49.118C0.123915 49.2284 -0.5 49.8113 -0.5 50.6608C-0.5 51.5012 0.207491 52.2087 1.04787 52.2087C1.53825 52.2087 3.84976 52.2872 6.02299 53.57C8.1552 54.8287 10.2206 57.2831 10.2206 62.1874C10.2206 63.0018 10.885 63.6914 11.6909 63.7333C12.1176 63.8417 12.5171 63.6774 12.787 63.4075C13.0698 63.1246 13.2357 62.7117 13.2357 62.268C13.2357 57.3658 15.3193 54.9108 17.4627 53.6511C19.6469 52.3674 21.9595 52.2893 22.4084 52.2893H22.489C23.3532 52.2893 24.0369 51.5573 24.0369 50.6608C24.0369 49.8205 23.3294 49.113 22.489 49.113C22.0401 49.113 19.7275 49.0349 17.5433 47.7511C15.3999 46.4915 13.3163 44.0364 13.3163 39.1342C13.3163 38.2939 12.6088 37.5864 11.7684 37.5864C10.928 37.5864 10.2206 38.2939 10.2206 39.1342C10.2206 44.0364 8.13692 46.4915 5.9936 47.7511C3.80935 49.0349 1.4968 49.113 1.04787 49.113H1.0474H1.04693H1.04647H1.046H1.04554H1.04507H1.04461H1.04415H1.0437H1.04324H1.04279H1.04234H1.04189H1.04144H1.04099H1.04055H1.04011H1.03967H1.03923H1.03879H1.03836H1.03792H1.03749H1.03706H1.03663H1.03621H1.03578H1.03536H1.03494H1.03452H1.0341H1.03369H1.03327H1.03286H1.03245H1.03204H1.03163H1.03123H1.03082H1.03042H1.03002H1.02962H1.02922H1.02883H1.02843H1.02804H1.02765H1.02726H1.02688H1.02649H1.02611H1.02572H1.02534H1.02497H1.02459H1.02421H1.02384H1.02347H1.0231H1.02273H1.02236H1.02199H1.02163H1.02127H1.02091H1.02055H1.02019H1.01983H1.01948H1.01913H1.01878H1.01843H1.01808H1.01773H1.01739H1.01704H1.0167H1.01636H1.01602H1.01569H1.01535H1.01502H1.01468H1.01435H1.01402H1.0137H1.01337H1.01305H1.01272H1.0124H1.01208H1.01176H1.01145H1.01113H1.01082H1.0105H1.01019H1.00988H1.00957H1.00927H1.00896H1.00866H1.00836H1.00806H1.00776H1.00746H1.00716H1.00687H1.00658H1.00628H1.00599H1.0057H1.00542H1.00513H1.00485H1.00456H1.00428H1.004H1.00372H1.00344H1.00317H1.00289H1.00262H1.00235H1.00208H1.00181H1.00154H1.00127H1.00101H1.00075H1.00048H1.00022H0.999963H0.999704H0.999448H0.999192H0.998938H0.998686H0.998434H0.998184H0.997936H0.997688H0.997442H0.997198H0.996954H0.996712H0.996472H0.996232H0.995994H0.995757H0.995522H0.995288H0.995055H0.994823H0.994593H0.994364H0.994137H0.99391H0.993685H0.993461H0.993238H0.993017H0.992797H0.992578H0.992361H0.992144H0.991929H0.991715H0.991503H0.991292H0.991081H0.990873H0.990665H0.990458H0.990253H0.990049H0.989846H0.989645H0.989444H0.989245H0.989047H0.98885H0.988655H0.98846H0.988267H0.988075H0.987884H0.987695H0.987506H0.987319H0.987132H0.986947H0.986763H0.986581H0.986399H0.986219H0.986039H0.985861H0.985684H0.985508H0.985333H0.985159H0.984987H0.984815H0.984645H0.984476H0.984308H0.984141H0.983975H0.98381H0.983646H0.983483H0.983322H0.983161H0.983002H0.982843H0.982686H0.98253H0.982374H0.98222H0.982067H0.981915H0.981764H0.981614H0.981465H0.981317H0.981171H0.981025H0.98088H0.980736H0.980593H0.980452H0.980311H0.980171H0.980032H0.979895H0.979758H0.979622H0.979487H0.979354H0.979221H0.979089H0.978958H0.978828H0.978699H0.978571H0.978444H0.978318H0.978193H0.978069H0.977946H0.977824H0.977702H0.977582H0.977462H0.977344H0.977226H0.97711H0.976994H0.976879H0.976765H0.976652H0.97654H0.976428H0.976318H0.976209H0.9761H0.975992H0.975886H0.97578H0.975675H0.97557H0.975467H0.975364H0.975263H0.975162H0.975062H0.974963H0.974865H0.974767H0.974671H0.974575H0.97448H0.974386H0.974293H0.9742H0.974109H0.974018H0.973928H0.973839H0.973751H0.973663H0.973576H0.97349H0.973405H0.97332H0.973237H0.973154H0.973072H0.97299H0.97291H0.97283H0.972751H0.972673H0.972595H0.972518H0.972442H0.972367H0.972292H0.972218H0.972145H0.972073H0.972001H0.97193H0.97186H0.97179H0.971721H0.971653H0.971586H0.971519H0.971453H0.971387H0.971323H0.971259H0.971195H0.971133H0.971071H0.971009H0.970949H0.970889H0.970829H0.970771H0.970713H0.970655H0.970598H0.970542H0.970487H0.970432H0.970378H0.970324H0.970271H0.970219H0.970167H0.970116H0.970065H0.970015H0.969966H0.969917H0.969869H0.969821H0.969774H0.969728H0.969682H0.969637H0.969592H0.969548H0.969505H0.969462H0.969419H0.969377H0.969336H0.969295H0.969255H0.969215H0.969176H0.969137H0.969099H0.969061H0.969024H0.968988H0.968952H0.968916H0.968881H0.968846H0.968812H0.968779H0.968746H0.968713H0.968681H0.968649H0.968618H0.968588H0.968557H0.968528H0.968498H0.96847H0.968441H0.968413H0.968386H0.968359H0.968332H0.968306H0.96828H0.968255H0.96823H0.968206H0.968182H0.968158H0.968135H0.968112H0.96809H0.968068H0.968046H0.968025H0.968004H0.967983H0.967963H0.967944H0.967924H0.967905H0.967887H0.967869H0.967851H0.967833H0.967816H0.967799H0.967783H0.967767H0.967751H0.967736H0.967721H0.967706H0.967692H0.967677H0.967664H0.96765H0.967637H0.967624H0.967612H0.967599H0.967587H0.967576H0.967564H0.967553H0.967542H0.967532H0.967522H0.967512H0.967502H0.967492H0.967483H0.967474H0.967465H0.967457H0.967449H0.967441H0.967433H0.967426H0.967418H0.967404H0.967391H0.967379H0.967368H0.967358H0.967348H0.967339H0.967331H0.967323H0.967313H0.967304H0.967296H0.967288H0.96728L0.967272 49.113L0.967268 49.613ZM16.3365 50.7322C14.5167 51.6937 12.8547 53.2067 11.6865 55.3401C10.4639 53.12 8.7626 51.688 7.03712 50.7518C8.85249 49.793 10.511 48.2856 11.6791 46.161C12.8657 48.3756 14.6068 49.8014 16.3365 50.7322Z" fill="#88CCDD" stroke="#88CCDD"/>
</g>
<defs>
<clipPath id="clip0">
<rect width="65" height="65" fill="white"/>
</clipPath>
</defs>
</svg>
