<svg width="65" height="65" viewBox="0 0 65 65" fill="none" xmlns="http://www.w3.org/2000/svg">
<path d="M56.875 65H8.125C7.07332 65 6.2207 64.1474 6.2207 63.0957V38.5938C6.2207 37.5421 7.07332 36.6895 8.125 36.6895H56.875C57.9267 36.6895 58.7793 37.5421 58.7793 38.5938V63.0957C58.7793 64.1474 57.9267 65 56.875 65ZM10.0293 61.1914H54.9707V40.498H10.0293V61.1914Z" fill="#88CCDD"/>
<path d="M59.2871 40.498H5.71289C2.5628 40.498 0 37.9352 0 34.7852V34.2773C0 31.1273 2.5628 28.5645 5.71289 28.5645H59.2871C62.4372 28.5645 65 31.1273 65 34.2773V34.7852C65 37.9352 62.4372 40.498 59.2871 40.498ZM5.71289 32.373C4.66286 32.373 3.80859 33.2273 3.80859 34.2773V34.7852C3.80859 35.8352 4.66286 36.6895 5.71289 36.6895H59.2871C60.3371 36.6895 61.1914 35.8352 61.1914 34.7852V34.2773C61.1914 33.2273 60.3371 32.373 59.2871 32.373H5.71289Z" fill="#88CCDD"/>
<path d="M27.4219 24.248H5.07812C4.02645 24.248 3.17383 23.3954 3.17383 22.3438V6.09375C3.17383 5.04207 4.02645 4.18945 5.07812 4.18945H27.4219C28.4736 4.18945 29.3262 5.04207 29.3262 6.09375V22.3438C29.3262 23.3954 28.4736 24.248 27.4219 24.248ZM6.98242 20.4395H25.5176V7.99805H6.98242V20.4395Z" fill="#88CCDD"/>
<path d="M59.9219 32.373H37.5781C36.5264 32.373 35.6738 31.5204 35.6738 30.4688V25.3906C35.6738 18.1804 41.5398 12.3145 48.75 12.3145C55.9602 12.3145 61.8262 18.1804 61.8262 25.3906V30.4688C61.8262 31.5204 60.9736 32.373 59.9219 32.373ZM39.4824 28.5645H58.0176V25.3906C58.0176 20.2805 53.8601 16.123 48.75 16.123C43.6399 16.123 39.4824 20.2805 39.4824 25.3906V28.5645Z" fill="#88CCDD"/>
<path d="M16.25 32.373C15.1983 32.373 14.3457 31.5204 14.3457 30.4688V22.3438C14.3457 21.2921 15.1983 20.4395 16.25 20.4395C17.3017 20.4395 18.1543 21.2921 18.1543 22.3438V30.4688C18.1543 31.5204 17.3017 32.373 16.25 32.373Z" fill="#88CCDD"/>
<path d="M48.75 16.123C44.3399 16.123 40.752 12.5351 40.752 8.125C40.752 5.99104 41.5771 3.96678 43.0756 2.42531C44.5957 0.861377 46.611 0 48.75 0C50.889 0 52.9043 0.861377 54.4244 2.42531C55.9229 3.96678 56.748 5.99104 56.748 8.125C56.748 12.5351 53.1601 16.123 48.75 16.123ZM48.75 3.80859C46.4791 3.80859 44.5605 5.78525 44.5605 8.125C44.5605 10.435 46.44 12.3145 48.75 12.3145C51.06 12.3145 52.9395 10.435 52.9395 8.125C52.9395 5.78525 51.0209 3.80859 48.75 3.80859Z" fill="#88CCDD"/>
</svg>
