<svg width="65" height="65" viewBox="0 0 65 65" fill="none" xmlns="http://www.w3.org/2000/svg">
<path d="M63.2818 12.9751L56.8002 11.8949C55.5177 8.7152 52.5568 6.42027 49.09 6.0351L46.6752 5.76685L42.8666 5.34371C42.7967 5.33584 42.7266 5.33203 42.6562 5.33203C39.5062 5.33203 36.9434 7.89483 36.9434 11.0449V16.123C36.9434 16.8114 37.0657 17.4717 37.2899 18.0833C36.8989 19.0242 36.3236 19.8617 35.6109 20.5542L9.54383 0.397871C9.2102 0.140029 8.80052 0 8.37891 0H2.03125C0.97957 0 0.126953 0.852617 0.126953 1.9043C0.126953 2.95598 0.97957 3.80859 2.03125 3.80859H7.72853L31.9114 22.5082C31.7304 22.5448 31.5472 22.5751 31.3621 22.5982L15.7697 24.5473C15.205 24.6179 14.6534 24.727 14.1173 24.872L11.8546 23.5657C9.45978 22.1829 7.92378 19.71 7.74566 16.9505C7.65921 15.6083 6.72103 14.5007 5.41138 14.1946C4.10173 13.8879 2.76974 14.4654 2.09727 15.6302C2.09536 15.6334 2.09346 15.6368 2.09168 15.64C0.236006 18.8593 -0.328301 22.6252 0.502861 26.2449C1.22827 29.4037 2.9556 32.2022 5.42001 34.2508C5.27935 34.9857 5.20508 35.7425 5.20508 36.5145V44.6542L0.544248 50.4804C0.274092 50.8179 0.126953 51.2375 0.126953 51.6699V63.0957C0.126953 64.1474 0.97957 65 2.03125 65H9.64844C10.7001 65 11.5527 64.1474 11.5527 63.0957V55.7012C16.0503 54.2528 19.1699 50.0726 19.1699 45.2173V44.471L22.3523 45.9177C25.0245 47.1324 27.7786 48.0591 30.5957 48.7001V63.0957C30.5957 64.1474 31.4483 65 32.5 65H40.1172H47.7344C48.7861 65 49.6387 64.1474 49.6387 63.0957V45.2656C53.5337 43.1957 55.9863 39.1691 55.9863 34.6771V24.375H57.8906C61.7407 24.375 64.873 21.2427 64.873 17.3926V14.8535C64.873 13.9226 64.2001 13.1281 63.2818 12.9751ZM40.752 11.0449C40.752 10.0242 41.5591 9.18849 42.5688 9.14266L44.5605 9.36394V16.123C44.5605 17.1731 43.7063 18.0273 42.6562 18.0273C41.6062 18.0273 40.752 17.1731 40.752 16.123V11.0449ZM4.40807 19.8217C5.27033 22.7635 7.23176 25.2943 9.95033 26.8639L10.0037 26.8948C8.74516 27.8475 7.68282 29.0384 6.8801 30.3968C4.25026 27.5755 3.30269 23.5103 4.40807 19.8217ZM34.4043 49.3863C35.6638 49.5542 36.9335 49.6686 38.2129 49.7244V61.1914H34.4043V49.3863ZM47.0272 42.2847C46.3042 42.5737 45.8301 43.274 45.8301 44.0527V61.1914H42.0215V47.8613C42.0215 47.433 41.8783 47.0389 41.6396 46.7208L41.6406 46.7188L40.8789 45.7031C39.1597 43.4109 38.2129 40.5704 38.2129 37.7051C38.2129 36.6534 37.3603 35.8008 36.3086 35.8008C35.2569 35.8008 34.4043 36.6534 34.4043 37.7051C34.4043 40.5163 35.1151 43.3076 36.4331 45.7826C32.1137 45.3789 27.9211 44.2653 23.9284 42.4505L18.0537 39.7801C17.4642 39.5121 16.779 39.562 16.2348 39.9127C15.6903 40.2631 15.3613 40.8662 15.3613 41.5137V45.2173C15.3613 48.7571 12.8271 51.7486 9.33537 52.3306C8.41712 52.4836 7.74414 53.278 7.74414 54.209V61.1914H3.93555V52.3379L8.59638 46.5118C8.86653 46.1742 9.01367 45.7547 9.01367 45.3223V36.5145C9.01367 32.3615 12.1212 28.8415 16.242 28.3263L31.8344 26.3772C33.104 26.2185 34.3131 25.8455 35.4227 25.2948C39.8996 28.9307 45.5016 30.9003 51.2271 30.9003C51.5436 30.9003 51.8606 30.8921 52.1777 30.88V34.677C52.1777 38.047 50.156 41.0332 47.0272 42.2847ZM61.0645 17.3926C61.0645 19.1426 59.6407 20.5664 57.8906 20.5664H54.082C53.0303 20.5664 52.1777 21.419 52.1777 22.4707V27.0702C47.3223 27.2888 42.5155 25.827 38.6023 22.9407C39.1148 22.3982 39.5751 21.8041 39.9732 21.1649C40.7738 21.5926 41.687 21.8359 42.6562 21.8359C45.8063 21.8359 48.3691 19.2731 48.3691 16.123V9.78707L48.6694 9.82046C50.9939 10.0787 52.9368 11.7768 53.5041 14.046C53.688 14.7814 54.2906 15.3378 55.0385 15.4624L61.0645 16.4667V17.3926Z" fill="#88CCDD"/>
</svg>
