<svg width="46" height="40" viewBox="0 0 46 40" fill="none" xmlns="http://www.w3.org/2000/svg">
<g clip-path="url(#clip0)">
<path d="M40.1162 0H6.44646C3.35165 0 0.834839 2.2425 0.834839 5V35C0.834839 37.7575 3.35165 40 6.44646 40H40.1162C43.211 40 45.7278 37.7575 45.7278 35V5C45.7278 2.2425 43.211 0 40.1162 0Z" fill="white"/>
<path d="M38.7133 20H31.6987V15C31.6987 13.62 32.9557 13.75 34.5045 13.75H37.3104V7.5H31.6987C27.0495 7.5 23.2813 10.8575 23.2813 15V20H17.6697V26.25H23.2813V40H31.6987V26.25H35.9074L38.7133 20Z" fill="#4764AD"/>
</g>
<defs>
<clipPath id="clip0">
<rect width="44.893" height="40" fill="white" transform="translate(0.834839)"/>
</clipPath>
</defs>
</svg>
