<svg width="65" height="65" viewBox="0 0 65 65" fill="none" xmlns="http://www.w3.org/2000/svg">
<path d="M57.2559 0C60.4059 0 62.9688 2.5628 62.9688 5.71289V57.3828C62.9688 61.5829 59.5517 65 55.3516 65C51.1514 65 47.7344 61.5829 47.7344 57.3828L47.7341 57.2162C47.7316 56.2916 47.7288 55.1411 48.3549 53.7155C49.3134 51.5328 51.543 45.8509 51.543 40.2441C51.543 37.0098 48.9268 34.2773 45.8301 34.2773H43.9258V30.4688H49.6387C50.6887 30.4688 51.543 29.6145 51.543 28.5645V26.6602H43.9258V22.8516H51.543V19.043H43.9258V15.2344H51.543V11.4258H43.9258V7.61719H51.543V5.71289C51.543 4.66286 50.6887 3.80859 49.6387 3.80859H43.9258V0C46.6385 0 54.5374 0 57.2559 0ZM55.3516 5.71289V28.5645C55.3516 30.625 54.2547 32.434 52.6145 33.4391C54.3794 35.2969 55.3516 37.7121 55.3516 40.2441C55.3516 46.5725 52.8973 52.8442 51.8419 55.2471C51.5393 55.9359 51.5407 56.4689 51.5427 57.2065L51.543 57.3828C51.543 59.4829 53.2515 61.1914 55.3516 61.1914C57.4516 61.1914 59.1602 59.4829 59.1602 57.3828V5.71289C59.1602 4.66286 58.3059 3.80859 57.2559 3.80859L55.024 3.80732C55.2354 4.40337 55.3516 5.04537 55.3516 5.71289Z" fill="#88CCDD"/>
<path d="M33.6717 41.8292C37.4673 40.8026 42.0358 43.5789 43.5104 49.0318C44.9988 54.5346 42.4045 59.1946 38.6433 60.2117C34.2346 61.4038 30.1085 57.71 28.8259 53.0825L25.4812 42.4023H24.2845L20.9398 53.0823C19.8679 56.9502 16.7194 60.4258 12.7453 60.4256C12.7319 60.4256 12.7186 60.4244 12.7051 60.4244C10.9718 63.1758 7.57416 65 3.93555 65H2.03125V61.1914H3.93555C5.86016 61.1914 7.75595 60.359 8.92303 59.1113C6.01822 56.8755 5.27097 52.6703 6.25511 49.0317C7.74326 43.5287 12.3326 40.8116 16.0939 41.829C17.5184 42.2143 18.7637 43.106 19.6856 44.3626L20.8896 40.5284L12.0216 12.5294C10.4488 7.5202 13.2443 2.16443 18.2531 0.590464L20.0564 0.0237451L24.9052 15.0639L29.7036 0.0220947L31.5126 0.590464C36.5214 2.16443 39.3169 7.5202 37.7425 12.534L28.876 40.5285L30.0799 44.3628C31.0018 43.1062 32.2472 42.2145 33.6717 41.8292ZM37.6491 56.5351C39.9941 55.9009 40.4793 52.4118 39.8341 50.0261C39.1684 47.5648 36.9823 44.8792 34.6661 45.5057C32.321 46.14 31.8359 49.629 32.4811 52.0149C33.1247 54.3948 35.3036 57.1697 37.6491 56.5351ZM15.0996 45.5056C12.7546 44.8713 10.5767 47.6403 9.93155 50.026C9.2879 52.4061 9.77108 55.9008 12.1165 56.535C14.4615 57.1697 16.6394 54.4003 17.2845 52.0146C17.9283 49.6346 17.445 46.14 15.0996 45.5056ZM17.6899 5.09552C15.8002 6.50813 14.9093 9.01228 15.654 11.384L20.848 27.7829L22.915 21.303L17.6899 5.09552ZM34.1103 11.3885C34.8554 9.01583 33.967 6.51346 32.0816 5.09984L22.8398 34.0714L24.2808 38.5938H25.4847L34.1103 11.3885Z" fill="#88CCDD"/>
</svg>
