<svg width="60" height="60" viewBox="0 0 60 60" fill="none" xmlns="http://www.w3.org/2000/svg">
<path d="M30 42.5C32.75 42.5 35 40.25 35 37.5C35 34.75 32.75 32.5 30 32.5C27.25 32.5 25 34.75 25 37.5C25 40.25 27.25 42.5 30 42.5ZM45 20H42.5V15C42.5 8.1 36.9 2.5 30 2.5C23.1 2.5 17.5 8.1 17.5 15H22.25C22.25 10.725 25.725 7.25 30 7.25C34.275 7.25 37.75 10.725 37.75 15V20H15C12.25 20 10 22.25 10 25V50C10 52.75 12.25 55 15 55H45C47.75 55 50 52.75 50 50V25C50 22.25 47.75 20 45 20ZM45 50H15V25H45V50Z" fill="#156981"/>
</svg>
