<svg width="44" height="48" viewBox="0 0 44 48" fill="none" xmlns="http://www.w3.org/2000/svg">
<path d="M43.0938 46.6563L0.90625 46.7461V13.9336L22 1.34375L43.0938 13.8438V46.6563Z" fill="#0292C9"/>
<path d="M36.0629 46.7539L36.626 44.7794C37.8005 40.864 38.1601 36.7494 37.6826 32.6896C37.1315 28.0047 35.4802 23.5167 32.8636 19.5918C31.3631 17.341 29.466 15.3817 27.2647 13.8094C25.8545 12.8021 24.2466 12.1055 22.5472 11.7656C21.6768 11.5916 20.7761 11.6477 19.934 11.9283L18.0785 12.5469C17.5938 12.7084 17.1502 12.9737 16.7785 13.3241C16.4068 13.6746 16.1159 14.1019 15.9262 14.5762L14.9691 16.9688L10.3022 19.3022C10.1041 19.4012 9.92922 19.5413 9.78932 19.7131C9.64943 19.885 9.54767 20.0846 9.49081 20.2987C9.43395 20.5128 9.42328 20.7366 9.45951 20.9552C9.49574 21.1738 9.57804 21.3822 9.70095 21.5665L11.8441 24.7813L16.4581 24.3613V46.7461L36.0629 46.7539Z" fill="#FBB540"/>
<path d="M30.5938 19.7246C30.5938 20.5534 30.2645 21.3483 29.6785 21.9343C29.0924 22.5204 28.2976 22.8496 27.4688 22.8496C26.6399 22.8496 25.8451 22.5204 25.259 21.9343C24.673 21.3483 24.3438 20.5534 24.3438 19.7246V18.0918C24.3436 16.8458 24.0051 15.6232 23.3643 14.5547L22.5684 13.2285C22.2315 12.6673 21.8343 12.1447 21.3838 11.6699C21.4385 11.668 21.4922 11.667 21.5469 11.667C21.8826 11.6667 22.2176 11.6998 22.5469 11.7656C24.2464 12.1053 25.8545 12.802 27.2646 13.8096C27.5947 14.0459 27.9183 14.2907 28.2354 14.5439C28.976 15.1886 29.5698 15.9847 29.9766 16.8784C30.3835 17.7721 30.5939 18.7426 30.5938 19.7246Z" fill="#FBB540"/>
<path d="M11.0336 21.9355L10.2816 22.4375L9.70058 21.5664C9.57778 21.382 9.49558 21.1736 9.45943 20.955C9.42328 20.7364 9.434 20.5126 9.49088 20.2985C9.54776 20.0843 9.6495 19.8847 9.78937 19.7129C9.92923 19.5411 10.104 19.4009 10.3021 19.3018L11.8392 18.5332L11.8441 18.5312L12.0209 19.0605C12.1943 19.5817 12.1916 20.1454 12.0132 20.6649C11.8348 21.1844 11.4906 21.6309 11.0336 21.9355Z" fill="#FBB540"/>
<path d="M33.0392 29.9921L28.25 34.7812L23.4608 29.9921C23.2454 29.7766 23.0745 29.5209 22.9579 29.2394C22.8413 28.9579 22.7812 28.6561 22.7813 28.3515C22.7813 27.7361 23.0257 27.1459 23.4608 26.7108C23.896 26.2757 24.4861 26.0312 25.1015 26.0312C25.4062 26.0312 25.7079 26.0913 25.9894 26.2079C26.2709 26.3245 26.5266 26.4954 26.7421 26.7108L28.25 28.2187L29.7579 26.7108C29.9734 26.4954 30.2291 26.3245 30.5106 26.2079C30.7921 26.0913 31.0938 26.0312 31.3985 26.0312C32.0139 26.0312 32.604 26.2757 33.0392 26.7108C33.4743 27.1459 33.7188 27.7361 33.7188 28.3515C33.7188 28.6561 33.6587 28.9579 33.5421 29.2394C33.4255 29.5209 33.2546 29.7766 33.0392 29.9921Z" fill="#E82F3E"/>
<path d="M18.582 18.5312C19.1753 18.5312 19.6562 18.0503 19.6562 17.457C19.6562 16.8637 19.1753 16.3828 18.582 16.3828C17.9888 16.3828 17.5078 16.8637 17.5078 17.457C17.5078 18.0503 17.9888 18.5312 18.582 18.5312Z" fill="#D18D28"/>
<path d="M16.458 24.3618L19.933 24.0459C20.0874 24.0319 20.2356 23.9786 20.3636 23.8912C20.4916 23.8038 20.5952 23.6852 20.6645 23.5466C20.7215 23.4326 20.8072 23.3354 20.9132 23.2647C21.0192 23.1939 21.1418 23.152 21.2689 23.143C21.3961 23.134 21.5233 23.1582 21.6382 23.2134C21.7531 23.2685 21.8517 23.3526 21.9242 23.4574C22.005 23.5742 22.0501 23.7118 22.0542 23.8537C22.0582 23.9956 22.0211 24.1356 21.9472 24.2568C21.7718 24.5445 21.533 24.7884 21.2491 24.9699C20.9652 25.1514 20.6436 25.2657 20.3089 25.3042L16.5315 25.7383L16.458 24.3618Z" fill="#D18D28"/>
<path d="M30.5938 19.7246C30.5938 20.5534 30.2645 21.3483 29.6785 21.9343C29.0924 22.5204 28.2976 22.8496 27.4688 22.8496C26.6399 22.8496 25.8451 22.5204 25.259 21.9343C24.673 21.3483 24.3438 20.5534 24.3438 19.7246V18.0918C24.3436 16.8458 24.0051 15.6232 23.3643 14.5547L22.5684 13.2285C22.2315 12.6673 21.8343 12.1447 21.3838 11.6699C21.4385 11.668 21.4922 11.667 21.5469 11.667C21.8826 11.6667 22.2176 11.6998 22.5469 11.7656C24.2464 12.1053 25.8545 12.802 27.2646 13.8096L27.7148 14.1318C27.8955 14.2607 28.069 14.3981 28.2354 14.5439C28.976 15.1886 29.5698 15.9847 29.9766 16.8784C30.3835 17.7721 30.5939 18.7426 30.5938 19.7246Z" fill="#D18D28"/>
<path d="M11.0336 21.9355L10.2816 22.4375L9.70058 21.5664C9.57778 21.382 9.49558 21.1736 9.45943 20.955C9.42328 20.7364 9.434 20.5126 9.49088 20.2985C9.54776 20.0843 9.6495 19.8847 9.78937 19.7129C9.92923 19.5411 10.104 19.4009 10.3021 19.3017L11.8392 18.5332L11.8441 18.5312L12.0209 19.0605C12.1943 19.5817 12.1916 20.1454 12.0132 20.6649C11.8348 21.1844 11.4906 21.6309 11.0336 21.9355Z" fill="#D18D28"/>
<path d="M23.5628 39.625L23.7733 39.6852C25.2881 40.118 26.6208 41.0325 27.5696 42.2903C28.5183 43.5481 29.0316 45.0807 29.0316 46.6562V46.7539H9.50031L9.02775 45.1205C8.19621 42.418 7.96137 39.5672 8.33946 36.765C8.71755 33.9629 9.69955 31.2762 11.2176 28.8907L11.8441 27.9062L12.0248 27.5449C12.44 26.7145 13.0782 26.0161 13.8679 25.528C14.6577 25.0399 15.5677 24.7813 16.4961 24.7812H16.5316V27.9062L19.2539 29.2675C19.8658 29.5734 20.3997 30.015 20.8149 30.5587C21.2302 31.1023 21.5158 31.7336 21.6499 32.4044L22.0003 34.1562L22.0795 34.2354C22.4874 34.6433 22.7305 35.1872 22.7624 35.7631C22.7943 36.339 22.6127 36.9064 22.2524 37.3568L22.0003 37.6719L23.5628 39.625Z" fill="#FBFDFF"/>
<path d="M18.3395 40.4063C17.6633 40.4081 16.9935 40.2758 16.3688 40.0171C15.7442 39.7583 15.177 39.3783 14.7002 38.8988L14.4163 38.6149C14.2698 38.4684 14.1875 38.2697 14.1875 38.0625C14.1875 37.8553 14.2698 37.6566 14.4163 37.5101C14.5628 37.3635 14.7616 37.2812 14.9688 37.2812C15.176 37.2812 15.3747 37.3635 15.5212 37.5101L15.8051 37.7939C16.1615 38.1504 16.5891 38.4276 17.06 38.6076C17.5308 38.7875 18.0343 38.8662 18.5376 38.8383C19.0409 38.8104 19.5327 38.6767 19.9808 38.4459C20.4289 38.215 20.8232 37.8922 21.1381 37.4986L21.39 37.1836C21.5195 37.0218 21.7079 36.9181 21.9139 36.8952C22.1199 36.8724 22.3265 36.9323 22.4883 37.0618C22.6501 37.1913 22.7538 37.3798 22.7767 37.5858C22.7995 37.7917 22.7396 37.9984 22.6101 38.1602L22.3581 38.475C21.8772 39.079 21.2659 39.5665 20.57 39.9009C19.8741 40.2354 19.1116 40.4081 18.3395 40.4063Z" fill="#CBCBCB"/>
<path d="M18.0938 34.4492C18.687 34.4492 19.168 33.9683 19.168 33.375C19.168 32.7817 18.687 32.3008 18.0938 32.3008C17.5005 32.3008 17.0195 32.7817 17.0195 33.375C17.0195 33.9683 17.5005 34.4492 18.0938 34.4492Z" fill="#CBCBCB"/>
<path d="M31.3987 25.25C30.9912 25.2489 30.5876 25.3285 30.2112 25.4844C29.8348 25.6403 29.493 25.8693 29.2057 26.1582L28.2501 27.114L27.2947 26.1585C27.0067 25.8705 26.6648 25.642 26.2885 25.4861C25.9122 25.3303 25.5089 25.25 25.1016 25.25C24.6943 25.25 24.291 25.3302 23.9147 25.4861C23.5384 25.6419 23.1965 25.8704 22.9085 26.1583C22.6205 26.4463 22.392 26.7882 22.2361 27.1645C22.0802 27.5408 22 27.9441 22 28.3514C22 28.7587 22.0802 29.162 22.236 29.5383C22.3919 29.9146 22.6203 30.2565 22.9083 30.5445L27.6975 35.3338C27.77 35.4063 27.8562 35.4639 27.951 35.5032C28.0457 35.5424 28.1473 35.5626 28.2499 35.5626C28.3525 35.5626 28.4541 35.5424 28.5489 35.5032C28.6437 35.4639 28.7298 35.4063 28.8024 35.3338L33.5919 30.5445C34.0257 30.1108 34.3211 29.5581 34.4407 28.9565C34.5604 28.3548 34.499 27.7312 34.2642 27.1645C34.0294 26.5978 33.6319 26.1134 33.1218 25.7726C32.6118 25.4318 32.0121 25.25 31.3987 25.25ZM32.4869 29.4395L28.2501 33.6765L24.0133 29.4395C23.7312 29.1495 23.5746 28.7602 23.5774 28.3557C23.5802 27.9512 23.7421 27.5641 24.0282 27.278C24.3142 26.992 24.7014 26.8301 25.1058 26.8273C25.5103 26.8246 25.8997 26.9812 26.1896 27.2633L27.6975 28.7712C27.77 28.8437 27.8562 28.9013 27.951 28.9406C28.0457 28.9798 28.1473 29 28.2499 29C28.3525 29 28.4541 28.9798 28.5489 28.9406C28.6437 28.9013 28.7298 28.8437 28.8024 28.7712L30.3107 27.2632C30.6004 26.9803 30.99 26.823 31.395 26.8254C31.8 26.8278 32.1877 26.9897 32.474 27.2761C32.7604 27.5625 32.9223 27.9502 32.9247 28.3551C32.9272 28.7601 32.7699 29.1497 32.4869 29.4395Z" fill="black"/>
<path d="M43.4921 13.1716L22.3983 0.671577C22.2774 0.599923 22.1394 0.56223 21.9988 0.562471C21.8582 0.562711 21.7203 0.600877 21.5996 0.672944L0.50586 13.2629C0.389756 13.3322 0.293625 13.4304 0.226867 13.548C0.160108 13.6656 0.125008 13.7985 0.125 13.9337V46.7462C0.125 46.9534 0.20731 47.1521 0.353823 47.2986C0.500336 47.4451 0.69905 47.5274 0.90625 47.5274H0.90791L43.0954 47.4375C43.3023 47.4371 43.5006 47.3546 43.6468 47.2081C43.7929 47.0616 43.875 46.8632 43.875 46.6562V13.8437C43.875 13.7081 43.8396 13.5748 43.7725 13.457C43.7054 13.3391 43.6087 13.2408 43.4921 13.1716ZM15.75 25.6277V27.9062C15.75 28.0513 15.7904 28.1935 15.8667 28.3169C15.9429 28.4404 16.0521 28.5401 16.1818 28.605L18.9043 29.9662C19.4108 30.2174 19.8528 30.5818 20.196 31.0312C20.5392 31.4805 20.7745 32.0028 20.8836 32.5576L21.234 34.3095C21.2642 34.4607 21.3386 34.5996 21.4477 34.7087L21.5269 34.7879C21.7991 35.0596 21.9614 35.4222 21.9827 35.8063C22.0039 36.1903 21.8827 36.5686 21.6421 36.8687L21.3902 37.1836L21.1384 37.4984C20.8235 37.892 20.4291 38.2148 19.981 38.4457C19.5329 38.6765 19.0412 38.8102 18.5379 38.8381C18.0346 38.866 17.5311 38.7873 17.0602 38.6074C16.5894 38.4274 16.1618 38.1502 15.8054 37.7937L15.5215 37.5099C15.375 37.3633 15.1762 37.281 14.969 37.281C14.7618 37.281 14.5631 37.3633 14.4166 37.5099C14.2701 37.6564 14.1878 37.8551 14.1878 38.0623C14.1878 38.2695 14.2701 38.4682 14.4166 38.6147L14.7005 38.8986C15.1785 39.3767 15.746 39.7559 16.3706 40.0145C16.9952 40.2732 17.6647 40.4063 18.3407 40.4061C19.0168 40.406 19.6861 40.2727 20.3107 40.0138C20.9352 39.7549 21.5025 39.3755 21.9804 38.8973L22.9524 40.1133C23.0538 40.24 23.1921 40.3319 23.348 40.3765L23.5583 40.4366C24.7793 40.7899 25.8699 41.4933 26.6952 42.4599C27.5206 43.4265 28.0445 44.6138 28.2021 45.875H10.0771L9.77441 44.8907C8.97428 42.2966 8.74786 39.5595 9.11084 36.8691C9.47383 34.1787 10.4175 31.5995 11.8766 29.3102L12.5031 28.3257C12.5175 28.303 12.5308 28.2797 12.5428 28.2557L12.7235 27.8943C13.0151 27.3058 13.4409 26.7941 13.9667 26.4004C14.4924 26.0066 15.1032 25.742 15.75 25.6277ZM24.0168 38.9424L22.9954 37.6656C23.398 37.0824 23.5902 36.3794 23.5402 35.6725C23.4903 34.9655 23.2012 34.2966 22.7206 33.7757L22.4157 32.2511C22.2606 31.4627 21.9263 30.7206 21.4387 30.0821C20.951 29.4435 20.323 28.9257 19.6032 28.5686L17.3125 27.4234V25.0686L20.5082 24.778C20.6407 24.766 20.768 24.7203 20.8779 24.6453C20.9878 24.5703 21.0767 24.4684 21.1362 24.3494L21.9175 22.7869C22.0082 22.6018 22.0222 22.3884 21.9562 22.193C21.8903 21.9977 21.7498 21.8364 21.5655 21.7442C21.3811 21.652 21.1677 21.6364 20.9719 21.7008C20.7761 21.7652 20.6137 21.9044 20.52 22.0881L19.9333 23.2614L12.2359 23.9609L11.3646 22.6539L11.4669 22.5855C12.0485 22.1963 12.491 21.6319 12.7302 20.9741C12.9693 20.3164 12.9927 19.5996 12.7969 18.9276L15.3182 17.667C15.4893 17.5814 15.6231 17.436 15.6941 17.2584L16.6512 14.8658C16.7984 14.4967 17.0245 14.1641 17.3137 13.8915C17.6028 13.6188 17.948 13.4126 18.3252 13.2872L20.1807 12.6686C20.466 12.5741 20.7604 12.5097 21.0591 12.4764C21.3718 12.8357 21.6526 13.2216 21.8983 13.6297L22.694 14.956C23.2624 15.9032 23.5626 16.9871 23.5625 18.0918V19.7253C23.5625 20.7613 23.9741 21.7549 24.7066 22.4874C25.4392 23.22 26.4327 23.6315 27.4688 23.6315C28.5048 23.6315 29.4983 23.22 30.2309 22.4874C30.9634 21.7549 31.375 20.7613 31.375 19.7253C31.3749 19.4086 31.355 19.0922 31.3154 18.778C31.6283 19.1821 31.9276 19.598 32.2133 20.0256C34.7568 23.8501 36.3645 28.2195 36.9062 32.7805C37.3761 36.7343 37.0257 40.7425 35.877 44.5549L35.4766 45.8912L29.7756 45.9034C29.6196 44.3011 28.9878 42.782 27.9616 41.5415C26.9354 40.301 25.5616 39.3959 24.0168 38.9424ZM10.3506 21.1331C10.2891 21.0409 10.248 20.9367 10.2299 20.8275C10.2118 20.7182 10.2171 20.6063 10.2456 20.4992C10.274 20.3921 10.3249 20.2924 10.3948 20.2065C10.4648 20.1206 10.5522 20.0505 10.6513 20.001L11.3544 19.6494C11.3916 19.9651 11.3408 20.285 11.2078 20.5737C11.0748 20.8624 10.8647 21.1088 10.6006 21.2857L10.4984 21.3541L10.3506 21.1331ZM27.7547 15.1609C28.4007 15.7331 28.9181 16.4356 29.2729 17.2223C29.6276 18.009 29.8115 18.8619 29.8125 19.7249C29.814 20.1605 29.6934 20.5877 29.4644 20.9583C29.2355 21.3288 28.9072 21.6277 28.517 21.8212C28.1913 21.983 27.8325 22.0673 27.4688 22.0673C27.1051 22.0673 26.7463 21.983 26.4206 21.8212C26.0303 21.6277 25.7021 21.3288 25.4731 20.9583C25.2441 20.5878 25.1235 20.1605 25.125 19.7249V18.0918C25.1249 16.7044 24.7478 15.3431 24.0341 14.1533L23.2384 12.827C23.2157 12.7894 23.1909 12.7529 23.1678 12.7155C24.4752 13.0708 25.7088 13.6566 26.8104 14.4454C27.1326 14.6754 27.4474 14.9139 27.7547 15.1609ZM42.3125 45.8767L37.1087 45.8877L37.3738 45.0039C38.584 40.987 38.953 36.7638 38.4578 32.5979C37.8872 27.7922 36.1935 23.1883 33.5137 19.1585C32.2054 17.194 30.6027 15.4425 28.7617 13.9654C28.573 13.8002 28.3759 13.6432 28.1697 13.4958C28.1458 13.4788 28.121 13.4632 28.0954 13.449C27.9708 13.3562 27.8455 13.2641 27.7188 13.1736C26.22 12.0998 24.5091 11.3586 22.7006 10.9996C21.6969 10.7992 20.6582 10.8639 19.6871 11.1872L17.8316 11.8057C17.239 12.0026 16.6965 12.3267 16.2421 12.7551C15.7877 13.1836 15.4323 13.7061 15.2009 14.2861L14.3535 16.4028L9.95225 18.6034C9.655 18.752 9.39277 18.9622 9.18293 19.2199C8.9731 19.4776 8.82047 19.777 8.73518 20.0982C8.64988 20.4194 8.63386 20.755 8.68819 21.0829C8.74252 21.4107 8.86595 21.7233 9.05029 21.9998L9.63086 22.8705L11.1934 25.2143C11.2714 25.3312 11.3795 25.425 11.5063 25.4857C11.6332 25.5463 11.774 25.5716 11.9141 25.5589L12.6097 25.4956C12.0804 25.978 11.645 26.5541 11.3254 27.1948L11.1626 27.5204L10.5577 28.4708C8.97708 30.9509 7.95471 33.7451 7.56148 36.6596C7.16824 39.5742 7.41354 42.5394 8.28037 45.3497L8.46455 45.9483L1.6875 45.9629V14.3772L22.0015 2.25273L42.3125 14.289V45.8767Z" fill="black"/>
<path d="M18.0938 34.4492C18.687 34.4492 19.168 33.9683 19.168 33.375C19.168 32.7817 18.687 32.3008 18.0938 32.3008C17.5005 32.3008 17.0195 32.7817 17.0195 33.375C17.0195 33.9683 17.5005 34.4492 18.0938 34.4492Z" fill="black"/>
<path d="M18.582 18.5312C19.1753 18.5312 19.6562 18.0503 19.6562 17.457C19.6562 16.8638 19.1753 16.3828 18.582 16.3828C17.9888 16.3828 17.5078 16.8638 17.5078 17.457C17.5078 18.0503 17.9888 18.5312 18.582 18.5312Z" fill="black"/>
</svg>
