<svg width="93" height="49" viewBox="0 0 93 49" fill="none" xmlns="http://www.w3.org/2000/svg">
<path d="M45.1236 46.653L3.82422 46.7409V14.6192L24.4739 2.2944L45.1236 14.5312V46.653Z" fill="#2F80ED"/>
<path d="M38.2406 46.7486L38.7919 44.8156C39.9417 40.9826 40.2938 36.9546 39.8263 32.9803C39.2867 28.3941 37.6702 24.0005 35.1088 20.1583C33.6398 17.9549 31.7826 16.0368 29.6277 14.4976C28.2472 13.5115 26.6732 12.8295 25.0096 12.4969C24.1575 12.3265 23.2757 12.3814 22.4513 12.6561L20.6349 13.2617C20.1604 13.4198 19.7261 13.6795 19.3623 14.0226C18.9984 14.3656 18.7136 14.7839 18.5278 15.2482L17.591 17.5905L13.0223 19.8747C12.8283 19.9717 12.6572 20.1089 12.5202 20.2771C12.3833 20.4453 12.2837 20.6407 12.228 20.8503C12.1723 21.0599 12.1619 21.279 12.1973 21.493C12.2328 21.707 12.3134 21.9109 12.4337 22.0914L14.5318 25.2385L19.0486 24.8274V46.7409L38.2406 46.7486Z" fill="#FBC02D"/>
<path d="M32.8872 20.2883C32.8872 21.0996 32.5649 21.8778 31.9911 22.4515C31.4174 23.0252 30.6393 23.3475 29.828 23.3475C29.0166 23.3475 28.2385 23.0252 27.6648 22.4515C27.091 21.8778 26.7687 21.0996 26.7687 20.2883V18.6898C26.7686 17.4701 26.4372 16.2733 25.8099 15.2272L25.0307 13.9289C24.701 13.3796 24.3121 12.868 23.8711 12.4032C23.9246 12.4013 23.9772 12.4003 24.0307 12.4003C24.3595 12.4001 24.6874 12.4324 25.0097 12.4969C26.6734 12.8294 28.2476 13.5114 29.6281 14.4978C29.9513 14.7291 30.268 14.9688 30.5784 15.2167C31.3035 15.8478 31.8848 16.6271 32.283 17.502C32.6813 18.3769 32.8873 19.327 32.8872 20.2883Z" fill="#FBB540"/>
<path d="M13.7383 22.4527L13.0022 22.9441L12.4333 22.0913C12.3131 21.9108 12.2327 21.7068 12.1973 21.4928C12.1619 21.2788 12.1724 21.0597 12.2281 20.8501C12.2837 20.6405 12.3833 20.4451 12.5203 20.2769C12.6572 20.1086 12.8283 19.9714 13.0222 19.8744L14.527 19.122L14.5318 19.1201L14.7048 19.6382C14.8746 20.1484 14.8719 20.7003 14.6973 21.2088C14.5227 21.7174 14.1857 22.1544 13.7383 22.4527Z" fill="#FBB540"/>
<path d="M35.2812 30.3396L30.5929 35.028L25.9045 30.3396C25.6936 30.1287 25.5263 29.8783 25.4122 29.6027C25.298 29.3272 25.2393 29.0318 25.2393 28.7335C25.2393 28.1311 25.4786 27.5534 25.9045 27.1274C26.3305 26.7015 26.9082 26.4622 27.5106 26.4622C27.8089 26.4622 28.1043 26.5209 28.3798 26.6351C28.6554 26.7492 28.9058 26.9165 29.1167 27.1274L30.5929 28.6036L32.069 27.1274C32.28 26.9165 32.5303 26.7492 32.8059 26.6351C33.0815 26.5209 33.3768 26.4622 33.6751 26.4622C34.2775 26.4622 34.8553 26.7015 35.2812 27.1274C35.7072 27.5534 35.9465 28.1311 35.9465 28.7335C35.9465 29.0318 35.8877 29.3272 35.7736 29.6027C35.6594 29.8783 35.4921 30.1287 35.2812 30.3396Z" fill="#E82F3E"/>
<path d="M21.1278 19.1201C21.7086 19.1201 22.1794 18.6492 22.1794 18.0684C22.1794 17.4877 21.7086 17.0168 21.1278 17.0168C20.547 17.0168 20.0762 17.4877 20.0762 18.0684C20.0762 18.6492 20.547 19.1201 21.1278 19.1201Z" fill="#D18D28"/>
<path d="M19.0488 24.8279L22.4507 24.5186C22.6018 24.5049 22.7469 24.4527 22.8722 24.3672C22.9975 24.2817 23.0989 24.1655 23.1667 24.0298C23.2226 23.9182 23.3065 23.8231 23.4102 23.7538C23.514 23.6846 23.634 23.6435 23.7585 23.6347C23.8829 23.6259 24.0075 23.6496 24.12 23.7036C24.2325 23.7576 24.329 23.8399 24.4 23.9425C24.479 24.0568 24.5232 24.1916 24.5272 24.3305C24.5312 24.4694 24.4948 24.6064 24.4224 24.7251C24.2507 25.0067 24.017 25.2455 23.7391 25.4232C23.4611 25.6008 23.1463 25.7128 22.8186 25.7504L19.1208 26.1753L19.0488 24.8279Z" fill="#D18D28"/>
<path d="M32.8872 20.2883C32.8872 21.0996 32.5649 21.8778 31.9911 22.4515C31.4174 23.0252 30.6393 23.3475 29.828 23.3475C29.0166 23.3475 28.2385 23.0252 27.6648 22.4515C27.091 21.8778 26.7687 21.0996 26.7687 20.2883V18.6898C26.7686 17.4701 26.4372 16.2733 25.8099 15.2272L25.0307 13.9289C24.701 13.3796 24.3121 12.868 23.8711 12.4032C23.9246 12.4013 23.9772 12.4003 24.0307 12.4003C24.3595 12.4001 24.6874 12.4324 25.0097 12.4969C26.6734 12.8294 28.2476 13.5114 29.6281 14.4978L30.0689 14.8133C30.2457 14.9394 30.4156 15.0739 30.5784 15.2167C31.3035 15.8478 31.8848 16.6271 32.283 17.502C32.6813 18.3769 32.8873 19.327 32.8872 20.2883Z" fill="#D18D28"/>
<path d="M13.7383 22.4527L13.0022 22.9441L12.4333 22.0913C12.3131 21.9108 12.2327 21.7068 12.1973 21.4928C12.1619 21.2788 12.1724 21.0597 12.2281 20.8501C12.2837 20.6405 12.3833 20.4451 12.5203 20.2768C12.6572 20.1086 12.8283 19.9714 13.0222 19.8743L14.527 19.122L14.5318 19.1201L14.7048 19.6382C14.8746 20.1484 14.8719 20.7003 14.6973 21.2088C14.5227 21.7174 14.1857 22.1544 13.7383 22.4527Z" fill="#D18D28"/>
<path d="M26.0043 39.7697L26.2103 39.8286C27.6933 40.2524 28.9979 41.1476 29.9267 42.3789C30.8554 43.6103 31.3579 45.1106 31.3579 46.653V46.7486H12.2378L11.7752 45.1496C10.9612 42.5039 10.7313 39.7131 11.1014 36.97C11.4715 34.2268 12.4328 31.5967 13.9189 29.2615L14.5322 28.2977L14.7092 27.944C15.1156 27.1311 15.7404 26.4474 16.5135 25.9695C17.2866 25.4917 18.1775 25.2385 19.0863 25.2385H19.121V28.2977L21.7861 29.6303C22.3851 29.9298 22.9077 30.3621 23.3142 30.8943C23.7207 31.4265 24.0003 32.0445 24.1316 32.7012L24.4746 34.4161L24.5522 34.4937C24.9514 34.8929 25.1894 35.4254 25.2207 35.9892C25.2519 36.5529 25.0741 37.1084 24.7214 37.5493L24.4746 37.8577L26.0043 39.7697Z" fill="#FBFDFF"/>
<path d="M20.8907 40.5345C20.2288 40.5364 19.5731 40.4069 18.9616 40.1536C18.3501 39.9003 17.7949 39.5282 17.3281 39.0589L17.0502 38.7809C16.9068 38.6375 16.8262 38.443 16.8262 38.2401C16.8262 38.0373 16.9068 37.8427 17.0502 37.6993C17.1936 37.5559 17.3882 37.4753 17.591 37.4753C17.7938 37.4753 17.9884 37.5559 18.1318 37.6993L18.4097 37.9772C18.7586 38.3262 19.1772 38.5976 19.6382 38.7737C20.0991 38.9499 20.592 39.0269 21.0847 38.9996C21.5774 38.9723 22.0588 38.8414 22.4975 38.6154C22.9361 38.3894 23.3222 38.0735 23.6305 37.6881L23.877 37.3797C24.0038 37.2213 24.1883 37.1198 24.3899 37.0974C24.5916 37.0751 24.7938 37.1337 24.9522 37.2605C25.1106 37.3873 25.2122 37.5718 25.2345 37.7734C25.2569 37.9751 25.1982 38.1773 25.0714 38.3357L24.8248 38.6439C24.354 39.2353 23.7556 39.7125 23.0743 40.0399C22.3931 40.3672 21.6466 40.5364 20.8907 40.5345Z" fill="#CBCBCB"/>
<path d="M20.6502 34.7029C21.231 34.7029 21.7018 34.2321 21.7018 33.6513C21.7018 33.0705 21.231 32.5997 20.6502 32.5997C20.0695 32.5997 19.5986 33.0705 19.5986 33.6513C19.5986 34.2321 20.0695 34.7029 20.6502 34.7029Z" fill="#CBCBCB"/>
<path d="M33.6744 25.6974C33.2756 25.6962 32.8805 25.7742 32.512 25.9269C32.1435 26.0795 31.8089 26.3037 31.5276 26.5864L30.5922 27.5221L29.6568 26.5867C29.3749 26.3048 29.0402 26.0811 28.6718 25.9285C28.3035 25.7759 27.9087 25.6974 27.5099 25.6974C27.1112 25.6974 26.7164 25.7759 26.348 25.9284C25.9796 26.081 25.6449 26.3047 25.363 26.5866C25.081 26.8685 24.8574 27.2032 24.7048 27.5716C24.5522 27.9399 24.4736 28.3348 24.4736 28.7335C24.4736 29.1322 24.5521 29.527 24.7047 29.8954C24.8573 30.2638 25.0809 30.5985 25.3628 30.8804L30.0512 35.5689C30.1222 35.6399 30.2065 35.6962 30.2993 35.7347C30.3921 35.7731 30.4915 35.7929 30.592 35.7929C30.6924 35.7929 30.7919 35.7731 30.8847 35.7347C30.9775 35.6962 31.0618 35.6399 31.1328 35.5689L35.8215 30.8804C36.2461 30.4558 36.5353 29.9148 36.6525 29.3258C36.7696 28.7368 36.7095 28.1263 36.4796 27.5715C36.2498 27.0167 35.8606 26.5426 35.3613 26.209C34.862 25.8754 34.2749 25.6973 33.6744 25.6974ZM34.7398 29.7986L30.5922 33.9464L26.4446 29.7986C26.1684 29.5148 26.0151 29.1337 26.0179 28.7377C26.0206 28.3417 26.1791 27.9627 26.4591 27.6827C26.7391 27.4027 27.1181 27.2442 27.5141 27.2415C27.9101 27.2388 28.2912 27.3921 28.575 27.6682L30.0512 29.1444C30.1222 29.2154 30.2065 29.2718 30.2993 29.3102C30.3921 29.3487 30.4915 29.3684 30.592 29.3684C30.6924 29.3684 30.7919 29.3487 30.8847 29.3102C30.9775 29.2718 31.0618 29.2154 31.1328 29.1444L32.6093 27.6682C32.893 27.3912 33.2744 27.2372 33.6708 27.2396C34.0673 27.2419 34.4468 27.4005 34.7271 27.6808C35.0075 27.9611 35.166 28.3407 35.1684 28.7371C35.1707 29.1336 35.0168 29.5149 34.7398 29.7986Z" fill="black"/>
<path d="M45.5137 13.8732L24.864 1.63638C24.7456 1.56624 24.6105 1.52934 24.4729 1.52957C24.3352 1.52981 24.2002 1.56717 24.0821 1.63772L3.43241 13.9626C3.31875 14.0304 3.22465 14.1266 3.15929 14.2417C3.09394 14.3568 3.05958 14.4869 3.05957 14.6193V46.741C3.05957 46.9438 3.14015 47.1384 3.28358 47.2818C3.427 47.4252 3.62153 47.5058 3.82437 47.5058H3.826L45.1253 47.4178C45.3279 47.4173 45.522 47.3366 45.6651 47.1932C45.8082 47.0498 45.8885 46.8555 45.8885 46.653V14.5312C45.8885 14.3985 45.8539 14.268 45.7882 14.1526C45.7225 14.0372 45.6279 13.941 45.5137 13.8732ZM18.3556 26.0671V28.2977C18.3556 28.4397 18.3952 28.5789 18.4698 28.6997C18.5445 28.8206 18.6513 28.9182 18.7784 28.9817L21.4435 30.3143C21.9394 30.5602 22.3721 30.917 22.708 31.3568C23.044 31.7967 23.2743 32.308 23.3811 32.8511L23.7242 34.5661C23.7538 34.7142 23.8266 34.8502 23.9333 34.9569L24.0109 35.0345C24.2774 35.3004 24.4363 35.6555 24.4571 36.0314C24.4779 36.4073 24.3592 36.7777 24.1237 37.0715L23.8771 37.3797L23.6306 37.6879C23.3223 38.0733 22.9362 38.3892 22.4976 38.6152C22.0589 38.8412 21.5775 38.9721 21.0848 38.9994C20.5921 39.0267 20.0992 38.9497 19.6383 38.7735C19.1773 38.5974 18.7587 38.326 18.4098 37.977L18.1319 37.6991C17.9885 37.5557 17.794 37.4751 17.5911 37.4751C17.3883 37.4751 17.1937 37.5557 17.0503 37.6991C16.9069 37.8426 16.8263 38.0371 16.8263 38.2399C16.8263 38.4428 16.9069 38.6373 17.0503 38.7807L17.3282 39.0587C17.7962 39.5266 18.3517 39.8979 18.9632 40.1511C19.5746 40.4043 20.23 40.5346 20.8918 40.5344C21.5536 40.5343 22.2089 40.4038 22.8203 40.1503C23.4316 39.8969 23.9871 39.5255 24.4548 39.0573L25.4064 40.2477C25.5056 40.3717 25.641 40.4618 25.7937 40.5054L25.9995 40.5643C27.1948 40.9101 28.2624 41.5987 29.0704 42.5449C29.8784 43.4912 30.3913 44.6535 30.5456 45.8882H12.8022L12.5058 44.9246C11.7225 42.3851 11.5009 39.7056 11.8562 37.0718C12.2116 34.4381 13.1354 31.9132 14.5637 29.672L15.1771 28.7083C15.1912 28.6861 15.2042 28.6632 15.2159 28.6397L15.3929 28.286C15.6783 27.7099 16.0952 27.2089 16.6098 26.8235C17.1245 26.4381 17.7225 26.179 18.3556 26.0671ZM26.4484 39.1015L25.4485 37.8516C25.8426 37.2806 26.0307 36.5925 25.9818 35.9004C25.9329 35.2083 25.65 34.5535 25.1795 34.0436L24.881 32.551C24.7292 31.7793 24.4019 31.0528 23.9245 30.4277C23.4471 29.8026 22.8323 29.2957 22.1277 28.9461L19.8852 27.825V25.5197L23.0137 25.2353C23.1434 25.2235 23.2679 25.1788 23.3755 25.1054C23.4831 25.0319 23.5702 24.9322 23.6285 24.8157L24.3933 23.2861C24.4821 23.1049 24.4957 22.896 24.4312 22.7048C24.3666 22.5136 24.2291 22.3556 24.0486 22.2654C23.8681 22.1751 23.6593 22.1598 23.4676 22.2229C23.2759 22.286 23.1169 22.4222 23.0252 22.602L22.4509 23.7507L14.9155 24.4354L14.0626 23.1559L14.1627 23.089C14.7321 22.7079 15.1652 22.1554 15.3994 21.5115C15.6335 20.8676 15.6563 20.1659 15.4647 19.5081L17.9329 18.274C18.1004 18.1902 18.2314 18.0479 18.3009 17.874L19.2378 15.5318C19.382 15.1704 19.6033 14.8449 19.8864 14.578C20.1694 14.311 20.5074 14.1091 20.8766 13.9864L22.693 13.3809C22.9723 13.2884 23.2605 13.2253 23.5529 13.1926C23.859 13.5444 24.1339 13.9222 24.3745 14.3217L25.1535 15.62C25.7099 16.5473 26.0037 17.6084 26.0036 18.6899V20.289C26.0036 21.3032 26.4065 22.2758 27.1237 22.993C27.8408 23.7101 28.8135 24.113 29.8277 24.113C30.8419 24.113 31.8145 23.7101 32.5316 22.993C33.2488 22.2758 33.6517 21.3032 33.6517 20.289C33.6515 19.9789 33.6321 19.6692 33.5934 19.3616C33.8997 19.7572 34.1926 20.1643 34.4723 20.5829C36.9623 24.3269 38.5361 28.6043 39.0665 33.0693C39.5265 36.9399 39.1834 40.8638 38.0588 44.5958L37.6669 45.904L32.0859 45.916C31.9332 44.3473 31.3147 42.8603 30.3101 41.6459C29.3055 40.4315 27.9606 39.5454 26.4484 39.1015ZM13.0699 21.6671C13.0097 21.5769 12.9695 21.4749 12.9517 21.3679C12.934 21.2609 12.9392 21.1514 12.9671 21.0466C12.9949 20.9418 13.0447 20.8441 13.1132 20.76C13.1817 20.6759 13.2672 20.6073 13.3642 20.5588L14.0526 20.2147C14.0889 20.5237 14.0393 20.8368 13.9091 21.1195C13.7789 21.4021 13.5732 21.6434 13.3146 21.8166L13.2146 21.8835L13.0699 21.6671ZM30.1076 15.8207C30.74 16.3808 31.2465 17.0686 31.5938 17.8387C31.941 18.6088 32.1211 19.4438 32.1221 20.2886C32.1235 20.715 32.0055 21.1332 31.7813 21.496C31.5572 21.8587 31.2359 22.1513 30.8538 22.3407C30.535 22.4992 30.1838 22.5816 29.8277 22.5816C29.4717 22.5816 29.1204 22.4992 28.8016 22.3407C28.4195 22.1514 28.0982 21.8587 27.874 21.496C27.6498 21.1333 27.5318 20.715 27.5333 20.2886V18.6899C27.5332 17.3316 27.164 15.999 26.4653 14.8343L25.6863 13.5359C25.6642 13.499 25.6399 13.4634 25.6172 13.4268C26.8972 13.7746 28.1047 14.348 29.1831 15.1202C29.4986 15.3454 29.8068 15.5789 30.1076 15.8207ZM44.3589 45.8898L39.2647 45.9006L39.5242 45.0354C40.7089 41.1031 41.0702 36.9688 40.5854 32.8906C40.0268 28.1861 38.3687 23.679 35.7453 19.7341C34.4646 17.811 32.8956 16.0963 31.0934 14.6504C30.9087 14.4886 30.7157 14.3349 30.5139 14.1906C30.4905 14.174 30.4662 14.1587 30.4411 14.1448C30.3191 14.054 30.1965 13.9638 30.0725 13.8752C28.6052 12.824 26.9303 12.0984 25.1599 11.747C24.1773 11.5508 23.1605 11.6141 22.2098 11.9306L20.3934 12.5361C19.8133 12.7289 19.2822 13.0461 18.8374 13.4655C18.3925 13.8849 18.0446 14.3965 17.8181 14.9643L16.9885 17.0364L12.6799 19.1907C12.3889 19.3362 12.1322 19.5419 11.9268 19.7942C11.7214 20.0465 11.572 20.3396 11.4885 20.654C11.405 20.9684 11.3893 21.297 11.4425 21.618C11.4957 21.9389 11.6165 22.2449 11.797 22.5156L12.3653 23.368L13.8949 25.6624C13.9713 25.7769 14.0771 25.8687 14.2013 25.9281C14.3255 25.9874 14.4634 26.0122 14.6004 25.9997L15.2814 25.9378C14.7633 26.41 14.3371 26.974 14.0242 27.6012L13.8648 27.92L13.2726 28.8504C11.7253 31.2782 10.7244 34.0136 10.3395 36.8668C9.95453 39.72 10.1947 42.6228 11.0432 45.3739L11.2236 45.9599L4.58918 45.9742V15.0535L24.4755 3.18425L44.3589 14.9671V45.8898Z" fill="black"/>
<path d="M20.6502 34.7029C21.231 34.7029 21.7018 34.2321 21.7018 33.6513C21.7018 33.0705 21.231 32.5997 20.6502 32.5997C20.0695 32.5997 19.5986 33.0705 19.5986 33.6513C19.5986 34.2321 20.0695 34.7029 20.6502 34.7029Z" fill="black"/>
<path d="M21.1278 19.1201C21.7086 19.1201 22.1794 18.6492 22.1794 18.0685C22.1794 17.4877 21.7086 17.0169 21.1278 17.0169C20.547 17.0169 20.0762 17.4877 20.0762 18.0685C20.0762 18.6492 20.547 19.1201 21.1278 19.1201Z" fill="black"/>
<path d="M54.3428 5.07568C54.4209 4.97803 54.5771 4.9292 54.8115 4.9292C55.0508 4.9292 55.2241 5.13672 55.3315 5.55176C55.3999 5.80566 55.4512 6.33545 55.4854 7.14111C55.5244 7.94189 55.6367 8.44482 55.8223 8.6499C56.0859 8.93311 56.9111 9.07471 58.2979 9.07471C59.0254 9.07471 59.4771 8.94287 59.6528 8.6792C59.7603 8.51807 59.8457 7.97852 59.9092 7.06055C59.9775 6.14258 60.0435 5.5835 60.1069 5.3833C60.2241 5.00732 60.4561 4.81934 60.8027 4.81934C61.0127 4.81934 61.1567 4.91699 61.2349 5.1123C61.3179 5.30273 61.3594 5.61035 61.3594 6.03516V8.12988C61.3594 8.31543 61.3521 8.6792 61.3374 9.22119L61.3081 10.0269C61.2593 11.7847 61.2349 12.771 61.2349 12.9858L61.2495 13.7695C61.2544 13.9355 61.2568 14.0967 61.2568 14.2529C61.2568 14.6289 61.1152 14.8169 60.832 14.8169H60.6343C60.3608 14.8169 60.168 14.585 60.0557 14.1211C59.9971 13.8818 59.9531 13.2983 59.9238 12.3706C59.8994 11.4429 59.8457 10.8936 59.7627 10.7227C59.6064 10.415 59.1084 10.2612 58.2686 10.2612C57.4287 10.2612 56.8184 10.3149 56.4375 10.4224C56.0615 10.5298 55.8198 10.6714 55.7124 10.8472C55.605 11.0229 55.5269 11.5186 55.478 12.334C55.4341 13.1494 55.3853 13.6816 55.3315 13.9307C55.2192 14.4385 55.0239 14.6924 54.7456 14.6924C54.5112 14.6924 54.3525 14.6338 54.2695 14.5166C54.1865 14.3945 54.145 14.0894 54.145 13.6011V12.583L54.2769 7.39746L54.2695 7.14111C54.2646 6.97021 54.2622 6.79932 54.2622 6.62842L54.2476 6.37207L54.2256 5.6543C54.2256 5.36621 54.2646 5.17334 54.3428 5.07568ZM64.6699 9.8877V10.2539C64.6699 11.4453 64.9116 12.3657 65.395 13.0151C65.8784 13.6694 66.4985 13.9966 67.2554 13.9966H67.3652C68.2051 13.9966 68.8643 13.6011 69.3428 12.8101C69.7529 12.1265 69.958 11.167 69.958 9.93164V9.43359C69.958 8.91113 69.8848 8.38379 69.7383 7.85156C69.5918 7.31445 69.4209 6.89941 69.2256 6.60645C68.8203 5.99609 68.249 5.69092 67.5117 5.69092H67.4971H67.27C66.9233 5.6958 66.5693 5.81055 66.208 6.03516C65.1826 6.66992 64.6699 7.9541 64.6699 9.8877ZM71.4521 9.60938V9.93164C71.4521 10.6641 71.3594 11.3672 71.1738 12.041C70.8271 13.291 70.1484 14.1724 69.1377 14.6851C68.5811 14.9634 67.9976 15.1025 67.3872 15.1025H67.2261C66.0786 15.1025 65.1362 14.6631 64.3989 13.7842C64.0767 13.3984 63.8276 12.8906 63.6519 12.2607C63.481 11.626 63.3955 11.0034 63.3955 10.3931V9.90967C63.3955 9.23096 63.498 8.52539 63.7031 7.79297C64.0645 6.47461 64.7163 5.55908 65.6587 5.04639C66.1616 4.77295 66.7158 4.63623 67.3213 4.63623H67.4824C68.1367 4.64111 68.7129 4.77051 69.2109 5.02441C70.7051 5.78613 71.4521 7.31445 71.4521 9.60938ZM82.7607 14.48C82.7607 14.48 82.7583 14.48 82.7534 14.48C82.4263 14.48 82.1992 14.126 82.0723 13.418C82.0186 13.1152 81.938 12.0947 81.8306 10.3564C81.7231 8.61328 81.6108 7.7417 81.4937 7.7417C81.313 7.7417 80.9565 8.34229 80.4243 9.54346C79.5698 11.4771 79.084 12.5317 78.9668 12.7075C78.7471 13.0347 78.5151 13.1982 78.271 13.1982C78.0269 13.1982 77.812 13.0322 77.6265 12.7002C77.5435 12.5488 77.3701 12.1265 77.1064 11.4331L76.4766 9.76318C75.9443 8.43018 75.6099 7.76367 75.4731 7.76367C75.3364 7.76367 75.1387 8.63037 74.8799 10.3638C74.7773 11.0376 74.6943 11.6626 74.6309 12.2388C74.5674 12.8101 74.5015 13.2397 74.4331 13.5278C74.3208 14.021 74.1328 14.2676 73.8691 14.2676C73.6641 14.2676 73.5615 14.1064 73.5615 13.7842C73.5615 13.4619 73.5835 13.1152 73.6274 12.7441C73.6714 12.3682 73.7251 11.4087 73.7886 9.86572C73.8521 8.32275 73.8838 7.19238 73.8838 6.47461C73.8838 5.63965 74.1719 5.22217 74.748 5.22217C75.0361 5.22217 75.3584 5.49072 75.7148 6.02783C75.9004 6.30127 76.3691 7.13379 77.1211 8.52539C77.8779 9.91211 78.2881 10.6055 78.3516 10.6055C78.4199 10.6055 78.791 9.98779 79.4648 8.75244C80.1387 7.51709 80.6318 6.66504 80.9443 6.19629C81.4033 5.5127 81.8037 5.1709 82.1455 5.1709C82.5703 5.1709 82.8486 5.43945 82.9805 5.97656C83.0586 6.29883 83.0977 6.97998 83.0977 8.02002L83.1123 8.75977C83.1123 9.00391 83.1123 9.24805 83.1123 9.49219L83.0537 11.9971C83.0537 12.2217 83.0635 12.5415 83.083 12.9565L83.1196 13.5645L83.1489 13.8574C83.1489 14.2725 83.0195 14.48 82.7607 14.48ZM90.356 13.7695C91.1616 13.7695 91.5645 13.9136 91.5645 14.2017C91.5645 14.4897 91.396 14.6753 91.0591 14.7583C90.5122 14.895 89.5234 14.9634 88.0928 14.9634H87.8438C86.7695 14.9634 86.1104 14.8535 85.8662 14.6338C85.627 14.4092 85.5073 13.8208 85.5073 12.8687V12.6196L85.5146 12.3706C85.5146 11.3599 85.5537 10.4248 85.6318 9.56543C85.71 8.70605 85.749 7.79297 85.749 6.82617C85.749 5.85449 85.8613 5.29541 86.0859 5.14893C86.5791 4.82666 87.541 4.66553 88.9717 4.66553H90.2021C90.6221 4.66553 90.9248 4.70215 91.1104 4.77539C91.3008 4.84375 91.396 4.98291 91.396 5.19287C91.396 5.35889 91.2275 5.48828 90.8906 5.58105C90.5537 5.67383 89.9629 5.75439 89.1182 5.82275C88.2734 5.89111 87.7876 5.96924 87.6606 6.05713C87.5386 6.14014 87.4214 6.34277 87.3091 6.66504C87.1968 6.9873 87.1406 7.39746 87.1406 7.89551C87.1406 8.38867 87.2554 8.68408 87.4849 8.78174C87.7144 8.87939 88.2539 8.95508 89.1035 9.00879C89.9531 9.0625 90.3999 9.09668 90.4438 9.11133C90.605 9.16992 90.6855 9.32373 90.6855 9.57275C90.6855 9.82178 90.5244 9.99268 90.2021 10.0854C90.0752 10.1196 89.6162 10.1685 88.8252 10.2319C88.0342 10.2954 87.5239 10.3882 87.2944 10.5103C87.0698 10.6323 86.9575 11.0034 86.9575 11.6235C86.9575 12.6196 87.0747 13.2568 87.3091 13.5352C87.4653 13.7207 87.939 13.8135 88.73 13.8135C88.9009 13.8135 89.1401 13.8086 89.4478 13.7988L90.356 13.7695Z" fill="#2F80ED"/>
<path d="M55.7124 24.3677C55.7124 24.6411 55.771 24.8218 55.8882 24.9097C56.0103 24.9976 56.2227 25.0415 56.5254 25.0415H56.7305L56.7964 25.0342C57.646 25.0342 58.293 24.812 58.7373 24.3677C59.1816 23.9233 59.4038 23.3496 59.4038 22.6465V22.4048C59.4038 21.8188 59.2231 21.3599 58.8618 21.0278C58.5054 20.6958 58.0537 20.5298 57.5068 20.5298H57.0674C56.9209 20.5444 56.8062 20.5518 56.7231 20.5518C56.3569 20.5518 56.1006 20.6128 55.9541 20.7349C55.8125 20.8521 55.7417 21.0645 55.7417 21.3721L55.7271 21.5186L55.7197 21.7383V23.54L55.7124 23.7744V24.3677ZM54.5112 23.9941C54.5112 23.54 54.4868 23.0054 54.438 22.3901C54.3892 21.77 54.3647 21.3647 54.3647 21.1743C54.3647 20.437 54.4746 20.0098 54.6943 19.8926C55.1045 19.6729 56.0103 19.563 57.4116 19.563H57.7266C58.6885 19.563 59.4648 19.8315 60.0557 20.3687C60.6465 20.9058 60.9419 21.5918 60.9419 22.4268V22.5952C60.9419 23.0444 60.8418 23.4961 60.6416 23.9502C60.4463 24.3994 60.1362 24.7974 59.7114 25.144C59.2915 25.4907 58.5811 25.7642 57.5801 25.9644C56.584 26.1646 56.042 26.3184 55.9541 26.4258C55.7881 26.6357 55.6758 27.1191 55.6172 27.876C55.5635 28.6279 55.5024 29.1064 55.4341 29.3115C55.3511 29.5752 55.1924 29.707 54.958 29.707C54.7236 29.707 54.5576 29.6582 54.46 29.5605C54.3623 29.4629 54.3135 29.2554 54.3135 28.938V28.7842C54.3135 28.7451 54.333 28.5205 54.3721 28.1104C54.4111 27.7002 54.4307 27.3682 54.4307 27.1143L54.4893 25.5249L54.5039 25.2173L54.5112 24.7485V23.9941ZM67.4165 28.7695C68.2222 28.7695 68.625 28.9136 68.625 29.2017C68.625 29.4897 68.4565 29.6753 68.1196 29.7583C67.5728 29.895 66.584 29.9634 65.1533 29.9634H64.9043C63.8301 29.9634 63.1709 29.8535 62.9268 29.6338C62.6875 29.4092 62.5679 28.8208 62.5679 27.8687V27.6196L62.5752 27.3706C62.5752 26.3599 62.6143 25.4248 62.6924 24.5654C62.7705 23.7061 62.8096 22.793 62.8096 21.8262C62.8096 20.8545 62.9219 20.2954 63.1465 20.1489C63.6396 19.8267 64.6016 19.6655 66.0322 19.6655H67.2627C67.6826 19.6655 67.9854 19.7021 68.1709 19.7754C68.3613 19.8438 68.4565 19.9829 68.4565 20.1929C68.4565 20.3589 68.2881 20.4883 67.9512 20.5811C67.6143 20.6738 67.0234 20.7544 66.1787 20.8228C65.334 20.8911 64.8481 20.9692 64.7212 21.0571C64.5991 21.1401 64.4819 21.3428 64.3696 21.665C64.2573 21.9873 64.2012 22.3975 64.2012 22.8955C64.2012 23.3887 64.3159 23.6841 64.5454 23.7817C64.7749 23.8794 65.3145 23.9551 66.1641 24.0088C67.0137 24.0625 67.4604 24.0967 67.5044 24.1113C67.6655 24.1699 67.7461 24.3237 67.7461 24.5728C67.7461 24.8218 67.585 24.9927 67.2627 25.0854C67.1357 25.1196 66.6768 25.1685 65.8857 25.2319C65.0947 25.2954 64.5845 25.3882 64.355 25.5103C64.1304 25.6323 64.0181 26.0034 64.0181 26.6235C64.0181 27.6196 64.1353 28.2568 64.3696 28.5352C64.5259 28.7207 64.9995 28.8135 65.7905 28.8135C65.9614 28.8135 66.2007 28.8086 66.5083 28.7988L67.4165 28.7695ZM73.6934 29.9634H73.5322C73.293 29.9634 73.1416 29.895 73.0781 29.7583C73.0195 29.6216 72.9902 29.248 72.9902 28.6377L73.0049 28.4619L73.0269 28.1177C73.0366 27.937 73.0464 27.7563 73.0562 27.5757C73.0708 27.3901 73.0781 27.1509 73.0781 26.8579L73.0928 26.3013C73.0928 26.1792 73.0928 26.0571 73.0928 25.9351L73.1147 24.8218C73.1147 22.8979 73.0391 21.7749 72.8877 21.4526C72.7949 21.2524 72.6582 21.1279 72.4775 21.0791C72.3018 21.0254 71.9526 20.9985 71.4302 20.9985C70.9126 20.9985 70.5757 20.9644 70.4194 20.896C70.2681 20.8276 70.1924 20.6738 70.1924 20.4346C70.1924 20.166 70.3975 19.9951 70.8076 19.9219C71.7061 19.7607 73.0464 19.6802 74.8286 19.6802H76.4399C76.811 19.6802 77.0698 19.7144 77.2163 19.7827C77.3677 19.8511 77.4434 19.9878 77.4434 20.1929C77.4434 20.3931 77.353 20.5371 77.1724 20.625C77.0747 20.6738 76.7012 20.7422 76.0518 20.8301C75.4072 20.918 75.002 21.0864 74.8359 21.3354C74.5723 21.731 74.4404 22.7393 74.4404 24.3604L74.4111 25.8325L74.3086 28.4912C74.3086 29.1113 74.2622 29.5117 74.1694 29.6924C74.0767 29.873 73.918 29.9634 73.6934 29.9634Z" fill="#FF5722"/>
<path d="M57.4409 41.8613C57.5142 41.8613 57.9731 40.6797 58.8179 38.3164C58.9155 38.043 59.1353 37.3936 59.4771 36.3682C59.8188 35.3428 60.041 34.7202 60.1436 34.5005C60.3633 34.0317 60.644 33.7974 60.9858 33.7974C61.2397 33.7974 61.3667 33.856 61.3667 33.9731V34.127C61.3667 34.2148 61.0078 35.3525 60.29 37.54C59.0889 41.207 58.3101 43.2334 57.9536 43.6191C57.8169 43.7656 57.585 43.8389 57.2578 43.8389C56.9355 43.8389 56.6475 43.563 56.3936 43.0112C56.3643 42.9478 56.1323 42.2886 55.6978 41.0337C55.2681 39.7788 54.7505 38.3555 54.145 36.7637C53.5396 35.1719 53.2368 34.3711 53.2368 34.3613C53.2368 34.1367 53.4321 34.0244 53.8228 34.0244C54.0132 34.0244 54.2109 34.1416 54.416 34.376C54.9189 34.957 55.5171 36.3511 56.2104 38.5581C56.9087 40.7603 57.3188 41.8613 57.4409 41.8613ZM67.7241 42.7695C68.5298 42.7695 68.9326 42.9136 68.9326 43.2017C68.9326 43.4897 68.7642 43.6753 68.4272 43.7583C67.8804 43.895 66.8916 43.9634 65.4609 43.9634H65.2119C64.1377 43.9634 63.4785 43.8535 63.2344 43.6338C62.9951 43.4092 62.8755 42.8208 62.8755 41.8687V41.6196L62.8828 41.3706C62.8828 40.3599 62.9219 39.4248 63 38.5654C63.0781 37.7061 63.1172 36.793 63.1172 35.8262C63.1172 34.8545 63.2295 34.2954 63.4541 34.1489C63.9473 33.8267 64.9092 33.6655 66.3398 33.6655H67.5703C67.9902 33.6655 68.293 33.7021 68.4785 33.7754C68.6689 33.8438 68.7642 33.9829 68.7642 34.1929C68.7642 34.3589 68.5957 34.4883 68.2588 34.5811C67.9219 34.6738 67.3311 34.7544 66.4863 34.8228C65.6416 34.8911 65.1558 34.9692 65.0288 35.0571C64.9067 35.1401 64.7896 35.3428 64.6772 35.665C64.5649 35.9873 64.5088 36.3975 64.5088 36.8955C64.5088 37.3887 64.6235 37.6841 64.853 37.7817C65.0825 37.8794 65.6221 37.9551 66.4717 38.0088C67.3213 38.0625 67.7681 38.0967 67.812 38.1113C67.9731 38.1699 68.0537 38.3237 68.0537 38.5728C68.0537 38.8218 67.8926 38.9927 67.5703 39.0854C67.4434 39.1196 66.9844 39.1685 66.1934 39.2319C65.4023 39.2954 64.8921 39.3882 64.6626 39.5103C64.438 39.6323 64.3257 40.0034 64.3257 40.6235C64.3257 41.6196 64.4429 42.2568 64.6772 42.5352C64.8335 42.7207 65.3071 42.8135 66.0981 42.8135C66.269 42.8135 66.5083 42.8086 66.8159 42.7988L67.7241 42.7695ZM74.001 43.9634H73.8398C73.6006 43.9634 73.4492 43.895 73.3857 43.7583C73.3271 43.6216 73.2979 43.248 73.2979 42.6377L73.3125 42.4619L73.3345 42.1177C73.3442 41.937 73.354 41.7563 73.3638 41.5757C73.3784 41.3901 73.3857 41.1509 73.3857 40.8579L73.4004 40.3013C73.4004 40.1792 73.4004 40.0571 73.4004 39.9351L73.4224 38.8218C73.4224 36.8979 73.3467 35.7749 73.1953 35.4526C73.1025 35.2524 72.9658 35.1279 72.7852 35.0791C72.6094 35.0254 72.2603 34.9985 71.7378 34.9985C71.2202 34.9985 70.8833 34.9644 70.7271 34.896C70.5757 34.8276 70.5 34.6738 70.5 34.4346C70.5 34.166 70.7051 33.9951 71.1152 33.9219C72.0137 33.7607 73.354 33.6802 75.1362 33.6802H76.7476C77.1187 33.6802 77.3774 33.7144 77.5239 33.7827C77.6753 33.8511 77.751 33.9878 77.751 34.1929C77.751 34.3931 77.6606 34.5371 77.48 34.625C77.3823 34.6738 77.0088 34.7422 76.3594 34.8301C75.7148 34.918 75.3096 35.0864 75.1436 35.3354C74.8799 35.731 74.748 36.7393 74.748 38.3604L74.7188 39.8325L74.6162 42.4912C74.6162 43.1113 74.5698 43.5117 74.4771 43.6924C74.3843 43.873 74.2256 43.9634 74.001 43.9634Z" fill="#E82F3E"/>
</svg>
