<svg width="65" height="65" viewBox="0 0 65 65" fill="none" xmlns="http://www.w3.org/2000/svg">
<g clip-path="url(#clip0)">
<path d="M51.543 19.17C52.5946 19.17 53.4473 18.3174 53.4473 17.2657C53.4473 14.1157 56.0101 11.5529 59.1602 11.5529C60.2118 11.5529 61.0645 10.7002 61.0645 9.64856C61.0645 8.59688 60.2118 7.74426 59.1602 7.74426C56.0634 7.74426 53.4473 5.06999 53.4473 1.90442C53.4473 0.852739 52.5946 0.00012207 51.543 0.00012207C50.4913 0.00012207 49.6387 0.852739 49.6387 1.90442C49.6387 5.06999 47.0225 7.74426 43.9258 7.74426C42.8741 7.74426 42.0215 8.59688 42.0215 9.64856C42.0215 10.7002 42.8741 11.5529 43.9258 11.5529C47.0759 11.5529 49.6387 14.1157 49.6387 17.2657C49.6387 18.3174 50.4913 19.17 51.543 19.17ZM49.6066 9.62952C50.3409 9.06965 50.9859 8.41483 51.543 7.66441C52.0999 8.4147 52.745 9.06965 53.4794 9.62952C52.7455 10.1769 52.0928 10.8276 51.543 11.5596C50.9931 10.8274 50.3405 10.1769 49.6066 9.62952Z" fill="#88CCDD"/>
<path d="M38.2129 13.4572C38.2129 12.4055 37.3603 11.5529 36.3086 11.5529C35.2569 11.5529 34.4043 12.4055 34.4043 13.4572C34.4043 18.7073 30.133 22.9786 24.8828 22.9786C23.8311 22.9786 22.9785 23.8313 22.9785 24.8829C22.9785 25.9346 23.8311 26.7872 24.8828 26.7872C30.133 26.7872 34.4043 31.0586 34.4043 36.3087C34.4043 37.3604 35.2569 38.213 36.3086 38.213C37.3603 38.213 38.2129 37.3604 38.2129 36.3087C38.2129 31.0586 42.4842 26.7872 47.7344 26.7872C48.7861 26.7872 49.6387 25.9346 49.6387 24.8829C49.6387 23.8313 48.7861 22.9786 47.7344 22.9786C42.4842 22.9786 38.2129 18.7073 38.2129 13.4572ZM36.3086 29.4497C35.1824 27.5807 33.6108 26.0091 31.742 24.8829C33.611 23.7567 35.1824 22.1852 36.3086 20.3162C37.4348 22.1852 39.0063 23.7567 40.8752 24.8829C39.0063 26.0091 37.4348 27.5806 36.3086 29.4497Z" fill="#88CCDD"/>
<path d="M32.4999 65.0004C48.8309 65.0004 62.8201 52.7467 64.9824 36.906C65.1024 36.0262 64.5987 35.1803 63.7679 34.8668C62.9374 34.5533 62.0002 34.8553 61.509 35.5951C57.3176 41.9085 49.8503 45.8305 42.0214 45.8305C29.4211 45.8305 19.1699 35.5793 19.1699 22.979C19.1699 15.1501 23.0918 7.68285 29.4053 3.49137C30.145 3.00032 30.4472 2.06315 30.1337 1.2325C29.8202 0.401847 28.9745 -0.101902 28.0944 0.0180688C12.2331 2.18325 0 16.1915 0 32.5005C0 50.3956 14.6059 65.0004 32.4999 65.0004ZM21.3568 5.79633C17.5581 10.5771 15.3613 16.6809 15.3613 22.979C15.3613 37.6794 27.321 49.6391 42.0214 49.6391C48.3195 49.6391 54.4232 47.4423 59.2041 43.6436C54.7694 54.0217 44.3391 61.1918 32.4999 61.1918C16.6794 61.1918 3.80859 48.321 3.80859 32.5005C3.80859 20.6614 10.9788 10.231 21.3568 5.79633Z" fill="#88CCDD"/>
</g>
<defs>
<clipPath id="clip0">
<rect width="65" height="65" fill="white"/>
</clipPath>
</defs>
</svg>
