<svg width="63" height="65" viewBox="0 0 63 65" fill="none" xmlns="http://www.w3.org/2000/svg">
<path d="M62.9551 34.1144C62.9551 30.9999 60.8648 28.366 58.0139 27.5374V0H53.9032L26.0373 27.8661C25.1077 27.3468 24.057 27.0689 22.963 27.0689C21.2751 27.0689 19.6884 27.7263 18.495 28.9196L0.0444336 47.37L9.23204 56.5577L27.6824 38.1073C28.8759 36.9139 29.5331 35.3271 29.5331 33.6392C29.5331 32.5452 29.2554 31.4944 28.7361 30.5649L54.1972 5.10365V27.5374C51.3463 28.366 49.256 30.9999 49.256 34.1144L49.2503 34.1274C47.8189 34.8085 46.5958 35.9994 45.7476 37.3728L40.1045 46.5093C38.7369 48.7234 38.4881 51.4917 39.4389 53.9144L40.8796 57.5852L44.8071 57.2299C46.6102 57.0668 48.302 56.3084 49.6257 55.1171V55.9839C49.6257 58.5865 50.8687 61.0724 52.9507 62.6339L56.1055 65L59.2603 62.6339C61.3423 61.0725 62.5852 58.5865 62.5852 55.9839V45.2451C62.5852 43.1109 61.7489 41.0556 60.2999 39.5236C61.9139 38.2695 62.9551 36.3118 62.9551 34.1144ZM9.23204 51.16L5.44209 47.37L10.5081 42.3041L14.298 46.094L9.23204 51.16ZM24.8472 35.5449L16.9967 43.3952L13.2067 39.6053L21.0572 31.7548C22.1037 30.7081 23.8006 30.7083 24.8472 31.7548C25.8938 32.8016 25.8938 34.4983 24.8472 35.5449ZM49.6257 45.2451V48.4925L47.8833 51.3137C47.1435 52.5112 45.865 53.3019 44.4633 53.4287L43.3868 53.5261L42.9919 52.5199C42.4776 51.2096 42.6122 49.7123 43.3519 48.5148L48.995 39.3783C49.3583 38.7901 49.8522 38.3008 50.4263 37.9393C50.8343 38.5431 51.337 39.0773 51.9113 39.5236C50.4621 41.0555 49.6257 43.1109 49.6257 45.2451ZM58.7687 55.9839C58.7687 57.3915 58.0964 58.736 56.9704 59.5806L56.1057 60.2292L55.2408 59.5806C54.1148 58.7361 53.4425 57.3915 53.4425 55.9839V45.2451C53.4425 43.8375 54.1148 42.493 55.2409 41.6484L56.1057 40.9998L56.9704 41.6484C58.0964 42.493 58.7687 43.8375 58.7687 45.2451V55.9839ZM56.1055 37.1472C54.4332 37.1472 53.0727 35.7867 53.0727 34.1144C53.0727 32.442 54.4332 31.0815 56.1055 31.0815C57.7779 31.0815 59.1384 32.442 59.1384 34.1144C59.1384 35.7867 57.7779 37.1472 56.1055 37.1472Z" fill="#88CCDD"/>
</svg>
