<svg width="24" height="24" viewBox="0 0 24 24" fill="none" xmlns="http://www.w3.org/2000/svg">
<path d="M13.1998 16.8H10.7998V19.2H13.1998V16.8Z" fill="#2F80ED"/>
<path d="M12 0C5.3726 0 0 5.3726 0 12C0 18.6273 5.3726 23.9999 12 23.9999C18.6273 23.9999 23.9999 18.6273 23.9999 12C23.9999 5.3726 18.6274 0 12 0ZM12 21.828C6.57213 21.828 2.17198 17.4278 2.17198 12C2.17198 6.57213 6.57213 2.17198 12 2.17198C17.4251 2.17856 21.8213 6.57483 21.828 12C21.828 17.4279 17.4279 21.828 12 21.828Z" fill="#2F80ED"/>
<path d="M16.6682 8.46C16.051 5.88189 13.4606 4.29238 10.8825 4.90967C8.715 5.42863 7.1899 7.37128 7.20025 9.60002H9.60027C9.71293 8.27454 10.8788 7.29135 12.2042 7.40402C13.5297 7.51669 14.5129 8.68252 14.4002 10.008C14.1551 11.2007 13.0851 12.0425 11.8683 12C11.2784 12 10.8002 12.4782 10.8002 13.068V15.6H13.2003V14.232C15.7383 13.5775 17.282 11.0082 16.6682 8.46Z" fill="#2F80ED"/>
</svg>
