<svg width="173" height="173" viewBox="0 0 173 173" fill="none" xmlns="http://www.w3.org/2000/svg">
<path d="M148.518 82.122C151.896 85.4987 157.372 85.4987 160.751 82.122L170.465 72.4091C172.088 70.7868 173 68.5863 173 66.292C173 63.9965 172.088 61.796 170.465 60.1736L138.413 28.119C136.791 26.4966 134.59 25.5845 132.296 25.5845C130.001 25.5845 127.8 26.4966 126.178 28.119L112.386 41.9121L105.684 48.6127L105.395 48.9018C99.8799 44.3172 91.7841 44.6776 86.6979 49.7321L85.3106 51.1168C85.131 50.9689 84.9528 50.7789 84.7746 50.6548C79.8522 47.0577 73.1675 47.0577 68.245 50.6548C68.0602 50.7815 67.8675 50.9861 67.6682 51.134L51.7128 35.1786C51.627 35.1126 51.5372 35.0532 51.4448 34.999L46.8101 30.3657C43.3872 27.0959 37.9988 27.0959 34.5746 30.3657L2.53449 62.4058C0.912151 64.0282 0 66.2287 0 68.5229C0 70.8185 0.912151 73.019 2.53449 74.6413L12.2461 84.3595C15.6293 87.7282 21.0996 87.7282 24.4816 84.3595L25.0584 83.7826L45.5851 104.3C45.5152 104.363 45.4346 104.407 45.3686 104.473C41.7781 108.068 41.7781 113.892 45.3686 117.487C47.0332 119.155 49.2786 120.113 51.6349 120.16C51.7326 125.056 55.6782 129.002 60.5742 129.1C60.6693 133.997 64.6162 137.944 69.5136 138.039C69.6126 142.673 73.1503 146.505 77.7612 146.972C82.3708 147.441 86.6068 144.398 87.6352 139.879C88.3995 140.087 89.1875 140.197 89.9796 140.211C92.3609 140.237 94.6552 139.305 96.3422 137.625C98.0305 135.943 98.9717 133.654 98.9532 131.271C101.332 131.299 103.622 130.366 105.304 128.683C106.987 127.001 107.92 124.711 107.893 122.332C110.258 122.358 112.535 121.437 114.214 119.772C115.895 118.106 116.837 115.839 116.832 113.473C119.349 113.447 121.744 112.381 123.448 110.528C125.152 108.675 126.014 106.2 125.829 103.689L147.964 81.5531L148.518 82.122ZM130.244 32.2085C130.785 31.6659 131.519 31.3623 132.284 31.3623C133.05 31.3623 133.784 31.6659 134.324 32.2085L166.388 64.2539C167.512 65.3799 167.512 67.2029 166.388 68.3289L156.67 78.047C155.53 79.1361 153.735 79.1361 152.596 78.047L118.502 43.9503L130.244 32.2085ZM16.3382 80.2792L6.61211 70.5611C6.07089 70.0198 5.76596 69.2859 5.76596 68.5203C5.76596 67.7546 6.07089 67.0207 6.61211 66.4808L38.6641 34.4314C39.7901 33.3054 41.6157 33.3054 42.7417 34.4314L54.4981 46.1851L23.0321 77.6523L20.4105 80.2726C19.2859 81.396 17.4655 81.3986 16.3382 80.2792ZM49.4608 108.539C50.8019 107.198 52.9774 107.199 54.3185 108.54C55.6597 109.883 55.6584 112.057 54.3172 113.398C52.9576 114.695 50.8191 114.695 49.4608 113.398C48.1183 112.058 48.1117 109.887 49.4463 108.539H49.4608ZM58.4001 117.478C59.7439 116.141 61.9154 116.141 63.2592 117.478C63.9034 118.122 64.2651 118.996 64.2651 119.907C64.2651 120.818 63.9034 121.69 63.2592 122.335C61.8982 123.631 59.7598 123.631 58.4001 122.335C57.0563 120.996 57.0471 118.825 58.3803 117.475L58.4001 117.478ZM67.3395 126.417C68.6833 125.08 70.8548 125.08 72.1986 126.417C72.8427 127.062 73.2044 127.936 73.2044 128.846C73.2044 129.757 72.8427 130.63 72.1986 131.274C70.8389 132.572 68.6991 132.572 67.3395 131.274C65.9917 129.937 65.9811 127.761 67.3157 126.412L67.3395 126.417ZM81.1326 140.211C79.7901 141.55 77.616 141.55 76.2762 140.209C74.935 138.868 74.935 136.694 76.2762 135.353C77.616 134.012 79.7901 134.01 81.1326 135.352C81.7781 135.994 82.1411 136.868 82.1411 137.779C82.1411 138.691 81.7781 139.565 81.1326 140.208V140.211ZM119.11 106.703C117.749 107.999 115.611 107.999 114.251 106.703L96.3726 88.8226C95.6439 88.0952 94.5812 87.8101 93.5859 88.0781C92.5906 88.3447 91.8131 89.1222 91.5478 90.1175C91.2811 91.1128 91.5663 92.1755 92.2949 92.9041L109.867 110.477C110.607 111.199 111.04 112.175 111.079 113.208C111.128 114.108 110.795 114.986 110.164 115.63C108.657 116.962 106.359 116.833 105.008 115.341L87.4385 97.7685C86.7151 97.0187 85.6419 96.7178 84.6347 96.9818C83.6262 97.2458 82.8381 98.0338 82.5741 99.041C82.3114 100.05 82.6111 101.121 83.3609 101.846L100.917 119.411C101.654 120.134 102.087 121.112 102.128 122.144C102.177 123.043 101.847 123.923 101.217 124.567C99.7096 125.9 97.4101 125.771 96.061 124.278L78.4873 106.705C77.356 105.612 75.5581 105.628 74.4453 106.74C73.3325 107.852 73.318 109.652 74.4096 110.783L91.9834 128.355C93.0368 129.18 93.5199 130.537 93.2269 131.842C92.9325 133.146 91.9134 134.165 90.6092 134.458C89.305 134.75 87.948 134.265 87.1243 133.212L85.1772 131.269C83.5113 129.608 81.2686 128.654 78.9176 128.603C78.8701 126.247 77.9117 124 76.2445 122.335C74.576 120.674 72.3332 119.721 69.9809 119.669C69.9334 117.313 68.9763 115.066 67.3078 113.4C65.6379 111.737 63.3925 110.78 61.0363 110.73C61.0033 108.246 59.9419 105.884 58.1044 104.21C56.2669 102.538 53.8182 101.701 51.3405 101.9L29.136 79.6958L58.6193 50.2165L65.6498 57.2497C65.7211 57.3025 65.7963 57.3527 65.8742 57.3962C65.9336 57.4662 65.9957 57.5309 66.0617 57.5929C66.1554 57.6378 66.2518 57.6774 66.3508 57.7117C66.521 57.8055 66.7006 57.8807 66.8867 57.9361C67.057 57.9863 67.2312 58.0206 67.4081 58.0404C67.5071 58.0404 67.5956 58.0946 67.6972 58.0946C67.7975 58.0946 67.8754 58.051 67.9652 58.0431C68.1447 58.0259 68.3229 57.9916 68.4958 57.9388C68.6688 57.8886 68.8377 57.8213 68.9974 57.7368C69.1704 57.6497 69.3327 57.5415 69.4819 57.4174C69.569 57.3659 69.6535 57.3104 69.7354 57.2497C69.7895 57.1771 69.8383 57.1032 69.8832 57.0253C69.9439 56.9527 70.0244 56.9118 70.0786 56.8339C70.2686 56.5659 70.4825 56.3164 70.7188 56.0881C70.992 55.8082 71.2904 55.5548 71.6098 55.3317C74.4572 53.2394 78.3196 53.1932 81.2158 55.2169L67.7144 68.7209C64.137 72.3207 64.137 78.1328 67.7144 81.7326C71.3128 85.3099 77.1263 85.3099 80.7261 81.7326L89.8555 72.6018L119.096 101.843C120.429 103.187 120.425 105.356 119.087 106.696L119.11 106.703ZM123.361 97.956L123.171 97.7685L107.691 82.2923L98.7051 73.3002C101.621 72.8685 104.322 71.5168 106.417 69.4417C106.918 68.948 107.374 68.4081 107.778 67.8299C108.653 66.5164 108.31 64.7423 107.008 63.8513C105.705 62.9589 103.927 63.2797 103.019 64.572C102.814 64.8558 102.585 65.1225 102.333 65.368C99.4562 68.2299 94.9165 68.5533 91.6626 66.1283C90.8218 65.5079 89.709 65.397 88.7625 65.8406C88.5117 65.9594 88.2793 66.1151 88.0734 66.3013C87.9797 66.3567 87.8886 66.4174 87.8015 66.4834L76.6418 77.655C75.2795 78.9433 73.1477 78.9433 71.7854 77.655C71.1293 77.0042 70.7716 76.1105 70.7967 75.1865C70.7874 74.2875 71.1452 73.4242 71.7854 72.7959L86.8761 57.7078C86.9197 57.6801 86.9712 57.6708 87.0147 57.6391C87.3421 57.4108 87.618 57.1164 87.8252 56.7745L90.7756 53.8242C93.9701 50.6403 99.138 50.6403 102.333 53.8242C102.583 54.0724 102.813 54.3403 103.019 54.6255C103.103 54.735 103.195 54.838 103.294 54.9344C103.323 54.966 103.331 55.0056 103.36 55.0347C103.389 55.0637 103.397 55.0558 103.414 55.0703C103.655 55.3013 103.935 55.4875 104.241 55.6208C104.305 55.6498 104.365 55.6696 104.433 55.6921C104.74 55.8082 105.066 55.8716 105.395 55.8795C105.728 55.8742 106.056 55.8096 106.367 55.6894C106.466 55.6498 106.562 55.6049 106.656 55.5548C106.784 55.5046 106.907 55.4452 107.024 55.3753C107.102 55.3238 107.143 55.2433 107.211 55.1852C107.281 55.1271 107.371 55.102 107.437 55.0347L114.424 48.0503L143.855 77.4609L123.361 97.956Z" fill="#FFFFF6"/>
</svg>
