<svg width="140" height="140" viewBox="0 0 140 140" fill="none" xmlns="http://www.w3.org/2000/svg">
<g clip-path="url(#clip0)">
<path d="M90.7829 0.00537109C63.6442 0.00537109 41.565 22.0844 41.565 49.2233C41.565 61.3194 45.9539 72.4078 53.2191 80.9866L49.5605 84.6452C44.9876 82.4667 39.3389 83.2657 35.5584 87.0465L32.658 89.9469L29.7577 87.0465C28.1561 85.4447 25.559 85.445 23.9572 87.0465C22.3554 88.6483 22.3554 91.2452 23.9572 92.847L26.8576 95.7473L3.60691 118.998C-1.20176 123.806 -1.20285 131.59 3.60691 136.399C8.4041 141.197 16.2102 141.197 21.0079 136.399L44.2586 113.149L47.1589 116.049C48.7605 117.651 51.3576 117.651 52.9594 116.049C54.5612 114.447 54.5612 111.85 52.9594 110.249L50.059 107.348L52.9594 104.448C56.7405 100.667 57.5392 95.0189 55.3607 90.4459L59.0193 86.7873C67.5981 94.0526 78.6868 98.4415 90.7826 98.4415C117.921 98.4415 140.001 76.3625 140.001 49.2236C140.001 22.0846 117.922 0.00537109 90.7829 0.00537109ZM15.208 130.598C13.6052 132.201 11.0108 132.201 9.40761 130.598C7.80445 128.995 7.80445 126.401 9.40761 124.798L32.6583 101.547C34.6869 103.576 36.4301 105.319 38.4587 107.348L15.208 130.598ZM47.1595 98.6469L44.2591 101.547C42.0826 99.3706 40.5541 97.8421 38.4587 95.7468L41.3588 92.8464C42.9587 91.2471 45.5602 91.2474 47.1595 92.8464C48.7626 94.4499 48.7626 97.0437 47.1595 98.6469ZM90.7829 90.2381C68.1674 90.2381 49.7681 71.8388 49.7681 49.2233C49.7681 26.6078 68.1671 8.2085 90.7829 8.2085C113.399 8.2085 131.798 26.6078 131.798 49.2233C131.798 71.8388 113.398 90.2381 90.7829 90.2381Z" fill="#FFFFF6"/>
<path d="M102.681 44.0931C105.471 41.1507 107.189 37.1812 107.189 32.816C107.189 23.7699 99.8291 16.41 90.7827 16.41C81.7365 16.41 74.3767 23.7696 74.3767 32.816C74.3767 37.1814 76.0939 41.1507 78.884 44.0931C71.3112 48.2939 66.1738 56.3716 66.1738 65.6277V69.7292C66.1738 71.9944 68.0102 73.8308 70.2754 73.8308H111.29C113.555 73.8308 115.392 71.9944 115.392 69.7292V65.6277C115.391 56.3716 110.254 48.2939 102.681 44.0931ZM90.7827 24.6132C95.3059 24.6132 98.9855 28.2931 98.9855 32.816C98.9855 37.3389 95.3056 41.0189 90.7827 41.0189C86.2595 41.0189 82.5798 37.3389 82.5798 32.816C82.5798 28.2931 86.2595 24.6132 90.7827 24.6132ZM74.3767 65.628C74.3767 56.5818 81.7362 49.222 90.7827 49.222C99.8288 49.222 107.189 56.5816 107.189 65.628H74.3767Z" fill="#FFFFF6"/>
</g>
<defs>
<clipPath id="clip0">
<rect width="140" height="140" fill="white"/>
</clipPath>
</defs>
</svg>
