<svg width="104" height="104" viewBox="0 0 104 104" fill="none" xmlns="http://www.w3.org/2000/svg">
<path d="M82.4688 67.4375C76.4489 67.4375 71.1001 70.3629 67.767 74.866L39.0715 60.2014C39.5529 58.5658 39.8125 56.8362 39.8125 55.0469C39.8125 52.6234 39.3374 50.3092 38.4772 48.1908L68.5518 30.1212C71.9075 34.0598 76.9011 36.5625 82.4688 36.5625C92.549 36.5625 100.75 28.3615 100.75 18.2812C100.75 8.20097 92.549 0 82.4688 0C72.3885 0 64.1875 8.20097 64.1875 18.2812C64.1875 20.6111 64.6265 22.84 65.4245 24.8909L35.2747 43.0056C31.9215 39.1832 27.0036 36.7656 21.5312 36.7656C11.451 36.7656 3.25 44.9666 3.25 55.0469C3.25 65.1272 11.451 73.3281 21.5312 73.3281C27.6498 73.3281 33.0753 70.3064 36.3953 65.6772L65.0075 80.2992C64.4747 82.0123 64.1875 83.8325 64.1875 85.7188C64.1875 95.799 72.3885 104 82.4688 104C92.549 104 100.75 95.799 100.75 85.7188C100.75 75.6385 92.549 67.4375 82.4688 67.4375ZM82.4688 6.09375C89.1889 6.09375 94.6562 11.5611 94.6562 18.2812C94.6562 25.0014 89.1889 30.4688 82.4688 30.4688C75.7486 30.4688 70.2812 25.0014 70.2812 18.2812C70.2812 11.5611 75.7486 6.09375 82.4688 6.09375ZM21.5312 67.2344C14.8111 67.2344 9.34375 61.7671 9.34375 55.0469C9.34375 48.3267 14.8111 42.8594 21.5312 42.8594C28.2514 42.8594 33.7188 48.3267 33.7188 55.0469C33.7188 61.7671 28.2514 67.2344 21.5312 67.2344ZM82.4688 97.9062C75.7486 97.9062 70.2812 92.4389 70.2812 85.7188C70.2812 78.9986 75.7486 73.5312 82.4688 73.5312C89.1889 73.5312 94.6562 78.9986 94.6562 85.7188C94.6562 92.4389 89.1889 97.9062 82.4688 97.9062Z" fill="#68AC82"/>
</svg>
