<svg width="104" height="104" viewBox="0 0 104 104" fill="none" xmlns="http://www.w3.org/2000/svg">
<g clip-path="url(#clip0)">
<path d="M96.177 28.2176L96.1739 28.1367C96.1286 27.1377 96.0985 26.0808 96.0802 24.9049C95.9953 19.1706 91.4369 14.4273 85.7018 14.1068C73.7445 13.4395 64.4944 9.54045 56.5908 1.8368L56.5233 1.77253C53.9454 -0.59117 50.0567 -0.59117 47.4779 1.77253L47.4105 1.8368C39.5069 9.54045 30.2568 13.4395 18.2994 14.1076C12.5651 14.4273 8.00594 19.1706 7.92104 24.9057C7.90359 26.0737 7.87264 27.1306 7.82742 28.1367L7.82266 28.3247C7.59017 40.5177 7.30136 55.6925 12.3779 69.4661C15.1693 77.0405 19.3968 83.6245 24.9422 89.0367C31.2581 95.2002 39.5307 100.093 49.5298 103.58C49.8551 103.693 50.1931 103.785 50.5375 103.854C51.0231 103.951 51.5119 104 52.0006 104C52.4894 104 52.979 103.951 53.4638 103.854C53.8081 103.785 54.1485 103.693 54.4754 103.578C64.4626 100.086 72.7265 95.1899 79.0368 89.0272C84.5799 83.6134 88.8074 77.0278 91.6012 69.4519C96.6967 55.637 96.4087 40.4336 96.177 28.2176ZM85.8756 67.3405C80.5214 81.8575 69.5915 91.8273 52.4616 97.8179C52.4005 97.8385 52.3355 97.8567 52.268 97.8702C52.0911 97.9051 51.911 97.9051 51.7317 97.8694C51.665 97.8559 51.5999 97.8385 51.5396 97.8179C34.3915 91.8384 23.4545 81.8742 18.1042 67.3563C13.4252 54.6603 13.6903 40.7304 13.9243 28.4413L13.9259 28.3731C13.9735 27.317 14.0053 26.2109 14.0227 24.9954C14.0608 22.4492 16.0889 20.3425 18.6398 20.2005C25.4064 19.8228 31.351 18.5152 36.8131 16.2031C42.2681 13.8941 47.1129 10.6394 51.6229 6.25317C51.8523 6.05957 52.1498 6.05878 52.3783 6.25317C56.8891 10.6394 61.7339 13.8941 67.1882 16.2031C72.6503 18.5152 78.5949 19.8228 85.3622 20.2005C87.9132 20.3425 89.9413 22.4492 89.9786 24.9962C89.9968 26.2181 90.0285 27.3242 90.0761 28.3731C90.3094 40.6764 90.5681 54.6174 85.8756 67.3405Z" fill="#68AC82"/>
<path d="M51.9988 26.0833C37.7071 26.0833 26.0806 37.7106 26.0806 52.0015C26.0806 66.2933 37.7071 77.9206 51.9988 77.9206C66.2898 77.9206 77.9171 66.2933 77.9171 52.0015C77.9171 37.7106 66.2898 26.0833 51.9988 26.0833ZM51.9988 71.8173C41.0721 71.8173 32.183 62.9282 32.183 52.0015C32.183 41.0748 41.0721 32.1857 51.9988 32.1857C62.9247 32.1857 71.8138 41.0748 71.8138 52.0015C71.8138 62.9282 62.9247 71.8173 51.9988 71.8173Z" fill="#68AC82"/>
<path d="M59.4482 43.955L47.4099 55.9933L44.1424 52.7258C42.9507 51.5341 41.0186 51.5341 39.8268 52.7258C38.6358 53.9176 38.6358 55.8497 39.8268 57.0407L45.2525 62.4663C45.8484 63.0622 46.6291 63.3598 47.4099 63.3598C48.1907 63.3598 48.9714 63.0622 49.5673 62.4663L63.7638 48.2698C64.9548 47.078 64.9548 45.146 63.7638 43.955C62.5721 42.7624 60.64 42.7624 59.4482 43.955Z" fill="#68AC82"/>
</g>
<defs>
<clipPath id="clip0">
<rect width="104" height="104" fill="white"/>
</clipPath>
</defs>
</svg>
