<svg width="65" height="65" viewBox="0 0 65 65" fill="none" xmlns="http://www.w3.org/2000/svg">
<g clip-path="url(#clip0)">
<path d="M60.9059 27.3152L64.745 20.6654C65.2664 19.7623 64.9645 18.6076 64.0674 18.0756C52.4029 11.1561 58.7542 14.8639 33.4526 0.255176C32.8634 -0.0850586 32.1375 -0.0850586 31.5483 0.255176C5.78808 15.1275 12.3756 11.288 0.933523 18.0755C0.0365996 18.6075 -0.265549 19.7622 0.255848 20.6653L4.09491 27.3151C4.62177 28.2279 5.79164 28.5393 6.70291 28.0083L7.07221 27.7931L12.8717 63.4017C13.0217 64.3231 13.8176 64.9999 14.7512 64.9999H50.2497C51.1832 64.9999 51.9792 64.3231 52.1293 63.4017L57.9287 27.7931L58.2981 28.0083C59.2091 28.5392 60.3791 28.228 60.9059 27.3152ZM25.4164 61.1914V46.0402C25.4164 44.6394 26.556 43.4997 27.9569 43.4997H37.0441C38.4449 43.4997 39.5845 44.6394 39.5845 46.0402V61.1914H25.4164ZM48.6303 61.1914H43.393V46.0402C43.393 42.5393 40.5449 39.6911 37.0441 39.6911H27.9568C24.4559 39.6911 21.6078 42.5393 21.6078 46.0402V61.1914H16.3704L10.5964 25.7396L32.5004 12.976L54.4044 25.7396L48.6303 61.1914ZM58.5636 23.7551C58.3916 23.6548 34.0371 9.46334 33.4592 9.12653C32.8644 8.78008 32.1301 8.78389 31.5418 9.12653C31.2614 9.28992 8.00862 22.8394 6.43732 23.7551L4.49494 20.3906C13.6238 14.9712 9.01434 17.6618 32.5004 4.10313C55.4703 17.3649 51.1425 14.8319 60.506 20.3906L58.5636 23.7551Z" fill="#88CCDD"/>
<path d="M23.5887 25.4991C22.8452 24.7555 21.6394 24.7554 20.8957 25.4991C20.152 26.2428 20.152 27.4484 20.8957 28.1921L22.6644 29.961L20.8957 31.7297C20.152 32.4734 20.152 33.679 20.8957 34.4227C21.6392 35.1664 22.8449 35.1664 23.5887 34.4227L26.1462 31.8653H38.8802L41.4113 34.3964C42.1549 35.14 43.3607 35.1401 44.1043 34.3963C44.848 33.6526 44.848 32.447 44.1043 31.7033L42.362 29.961L44.1043 28.2187C44.848 27.4751 44.848 26.2693 44.1043 25.5256C43.3608 24.7819 42.155 24.782 41.4113 25.5256L38.8802 28.0567H26.1462L23.5887 25.4991Z" fill="#88CCDD"/>
</g>
<defs>
<clipPath id="clip0">
<rect width="65" height="65" fill="white"/>
</clipPath>
</defs>
</svg>
