<svg width="65" height="65" viewBox="0 0 65 65" fill="none" xmlns="http://www.w3.org/2000/svg">
<g clip-path="url(#clip0)">
<path d="M44.7243 9.16995C40.9758 7.42358 33.6784 3.99534 29.6621 2.10717C26.6876 0.709033 23.5108 0 20.22 0C16.1981 0 12.2492 1.0937 8.80039 3.16304L0.9246 7.88861C0.351025 8.23278 0 8.85257 0 9.52148V24.7559C0 25.8075 0.852617 26.6602 1.9043 26.6602H7.94396C11.6544 26.6602 15.1576 25.3132 17.8961 22.8516H26.0254C29.1755 22.8516 31.7383 20.2888 31.7383 17.1387C31.7383 16.7281 31.6938 16.3278 31.6111 15.9416L40.8413 19.0643C42.2701 19.5476 43.8391 19.3923 45.1455 18.6381C46.4523 17.8838 47.3714 16.6025 47.6675 15.1225L47.6831 15.0443C48.1674 12.6228 46.9507 10.2072 44.7243 9.16995ZM43.9484 14.2977L43.9328 14.3759C43.8217 14.9313 43.452 15.2181 43.2414 15.3396C43.031 15.4612 42.598 15.6382 42.0619 15.4565L30.4444 11.5262C30.2476 11.4598 30.0416 11.4258 29.834 11.4258H17.1387C16.087 11.4258 15.2344 12.2784 15.2344 13.3301C15.2344 14.3818 16.087 15.2344 17.1387 15.2344H26.0254C27.0754 15.2344 27.9297 16.0886 27.9297 17.1387C27.9297 18.1887 27.0754 19.043 26.0254 19.043H17.1387C16.6128 19.043 16.1368 19.2561 15.7921 19.6008C13.6958 21.6971 10.9087 22.8516 7.94396 22.8516H3.80859V10.5997L10.7599 6.42891C13.617 4.71466 16.8882 3.80859 20.22 3.80859C22.9464 3.80859 25.578 4.39588 28.0417 5.55395C32.0601 7.44326 39.3621 10.8735 43.1159 12.6223C43.7447 12.9152 44.0871 13.6039 43.9484 14.2977Z" fill="#88CCDD"/>
<path d="M63.0957 65H27.5286C27.01 65 26.5139 64.7885 26.1548 64.4144C25.7956 64.0404 25.6047 63.5358 25.6259 63.0178C25.7133 60.8819 26.1038 58.7358 26.7862 56.6391C26.9914 56.0089 27.0954 55.3638 27.0954 54.7214V54.6338C27.0954 51.73 25.2415 49.1852 22.4824 48.3015C19.8178 47.4477 18.0273 45.0208 18.0273 42.2621V34.8639C18.0273 33.8122 18.88 32.9596 19.9316 32.9596H23.7977L29.4418 28.4444C30.675 27.4574 32.2241 26.9141 33.8038 26.9141H41.5802C44.162 26.9141 46.5913 28.1741 48.0785 30.2844C49.5658 32.3948 49.9351 35.1061 49.0667 37.5375L47.3767 42.2693C49.296 47.7509 54.1959 51.5922 60.0212 52.1216L63.2682 52.4168C64.2491 52.5059 65.0001 53.3284 65.0001 54.3132V63.0957C65 64.1474 64.1474 65 63.0957 65ZM29.6163 61.1914H61.1914V56.0525L59.6762 55.9147C55.9746 55.5783 52.4936 54.161 49.6096 51.8162C47.581 50.1669 45.9415 48.135 44.7699 45.8374C44.0972 46.2 43.3332 46.4075 42.5256 46.4249C40.4664 46.4636 38.6313 45.2635 37.8554 43.3533L35.9256 38.6033C35.5299 37.6289 35.9988 36.5181 36.9732 36.1222C37.9472 35.7264 39.0583 36.1954 39.4542 37.1698L41.3839 41.9199C41.6457 42.5641 42.2118 42.6243 42.4441 42.617C42.6757 42.6121 43.2396 42.5298 43.4733 41.8751L45.4799 36.2565C45.939 34.9711 45.7515 33.594 44.9651 32.4783C44.1789 31.3625 42.9451 30.7227 41.5801 30.7227H33.8038C33.0859 30.7227 32.3817 30.9696 31.8213 31.4181L25.6554 36.3507C25.3178 36.6209 24.8983 36.768 24.4658 36.768H21.8359V42.2619C21.8359 43.3583 22.5626 44.3277 23.6443 44.6742C27.9866 46.0649 30.9041 50.0673 30.9041 54.6335V54.7211C30.9041 55.7645 30.7371 56.8063 30.4079 57.8178C30.0452 58.932 29.7807 60.0609 29.6163 61.1914Z" fill="#88CCDD"/>
</g>
<defs>
<clipPath id="clip0">
<rect width="65" height="65" fill="white"/>
</clipPath>
</defs>
</svg>
