<svg width="60" height="60" viewBox="0 0 60 60" fill="none" xmlns="http://www.w3.org/2000/svg">
<path d="M23.2365 27.9591H23.237C30.5868 27.9591 36.5451 22.0012 36.5451 14.651C36.5451 7.30112 30.5868 1.34277 23.237 1.34277C15.8871 1.34277 9.92877 7.30112 9.92877 14.651L9.92877 14.6514C9.93586 21.9986 15.8897 27.9521 23.2365 27.9591ZM23.2373 4.76621C28.6966 4.76642 33.1217 9.19233 33.1217 14.651C33.1217 20.1104 28.6964 24.5357 23.237 24.5357C17.778 24.5357 13.3528 20.1106 13.3526 14.6513C13.3588 9.19458 17.7806 4.77281 23.2373 4.76621Z" fill="#156981" stroke="#156981"/>
<path d="M56.7591 34.1793L56.7619 34.1808C57.3194 34.4822 57.6667 35.0653 57.6662 35.6992M56.7591 34.1793L57.1662 35.6988M56.7591 34.1793L46.3181 28.6199C46.3173 28.6195 46.3165 28.619 46.3157 28.6186C45.8053 28.3413 45.1883 28.3474 44.6836 28.6341L35.4054 33.7142C31.8675 31.1668 27.666 29.8431 23.2131 29.8431L23.212 29.8431C17.5299 29.8555 12.2504 32.0654 8.33759 36.0896C4.37478 40.1517 2.20928 45.6966 2.22204 51.6952L2.22204 51.6956C2.22471 52.6392 2.98874 53.4034 3.93215 53.4061L3.93447 53.4061L37.4079 53.3459C39.0205 55.288 41.0665 56.826 43.3819 57.8357C43.3821 57.8357 43.3822 57.8358 43.3823 57.8358L44.7841 58.4519C44.7845 58.4521 44.785 58.4523 44.7854 58.4525C45.0049 58.5503 45.2428 58.5978 45.4821 58.5923C45.7072 58.5882 45.9313 58.544 46.1424 58.4599L46.1497 58.457L46.1569 58.4539L47.7382 57.7658C47.7393 57.7654 47.7403 57.765 47.7413 57.7646C53.7576 55.239 57.6705 49.3492 57.6662 42.8237M56.7591 34.1793L57.1662 42.824M57.6662 35.6992L57.1662 35.6988M57.6662 35.6992V35.6988H57.1662M57.6662 35.6992V42.8237M57.1662 35.6988V42.824M57.6662 42.8237L57.1662 42.824M57.6662 42.8237V42.824H57.1662M35.2185 49.9229L5.71611 49.9697C6.06835 45.5287 7.8539 41.496 10.7991 38.4714L10.7995 38.4711C14.0599 35.1161 18.474 33.2666 23.2248 33.2666H23.2612C27.081 33.2666 30.6571 34.4401 33.643 36.6629V42.9695V42.9698C33.6447 45.3794 34.1843 47.7544 35.2185 49.9229ZM54.2428 42.824V42.8242C54.2449 47.9446 51.1894 52.5676 46.4862 54.5753H46.4727L46.3784 54.6157L45.4742 55.0032L44.7518 54.6895C44.7516 54.6894 44.7514 54.6893 44.7511 54.6892C40.0874 52.6512 37.0715 48.0471 37.0664 42.9572V36.6981L45.5243 32.0628L54.2428 36.714V42.824Z" fill="#156981" stroke="#156981"/>
<path d="M44.0279 47.8924C44.4207 47.8953 44.8028 47.7622 45.1089 47.5141L45.1093 47.5138L51.5076 42.3157L51.5092 42.3143C52.2415 41.7141 52.3483 40.6343 51.7485 39.9019C51.1488 39.1696 50.0693 39.0627 49.3372 39.662C49.337 39.6622 49.3367 39.6624 49.3365 39.6626L44.2403 43.8117L42.5821 41.8582L42.5821 41.8582L42.5808 41.8568C41.9663 41.1384 40.8859 41.0547 40.1674 41.6688L40.1673 41.6689C39.449 42.2834 39.365 43.3639 39.9794 44.0821L39.9796 44.0823L42.73 47.2934L42.7307 47.2942C43.0562 47.6726 43.5295 47.8904 44.0279 47.8924ZM44.0279 47.8924C44.0274 47.8924 44.027 47.8924 44.0266 47.8924L44.0307 47.3924M44.0279 47.8924C44.0283 47.8924 44.0287 47.8924 44.0291 47.8924L44.0307 47.3924M44.0307 47.3924C43.6768 47.3913 43.3408 47.2367 43.1097 46.9681L49.6534 40.0493C50.1721 39.6243 50.9369 39.7 51.3616 40.2187C51.7867 40.7377 51.7109 41.5026 51.1923 41.9276L44.794 47.1257C44.5781 47.3007 44.3084 47.3947 44.0307 47.3924Z" fill="#156981" stroke="#156981"/>
</svg>
